NotoSansOriya-CondensedExtraThin.ufo
<glyph name="quotedbl" format="2">
  <advance width="350"/>
  <unicode hex="0022"/>
  <outline>
    <contour>
      <point x="109" y="471" type="line"/>
      <point x="132" y="471" type="line"/>
      <point x="135" y="729" type="line"/>
      <point x="106" y="729" type="line"/>
    </contour>
    <contour>
      <point x="235" y="471" type="line"/>
      <point x="258" y="471" type="line"/>
      <point x="261" y="729" type="line"/>
      <point x="232" y="729" type="line"/>
    </contour>
  </outline>
</glyph>
<glyph name="quotesingle" format="2">
  <advance width="224"/>
  <unicode hex="0027"/>
  <outline>
    <contour>
      <point x="109" y="471" type="line"/>
      <point x="132" y="471" type="line"/>
      <point x="135" y="729" type="line"/>
      <point x="106" y="729" type="line"/>
    </contour>
  </outline>
</glyph>
<glyph name="comma" format="2">
  <advance width="208"/>
  <unicode hex="002C"/>
  <outline>
    <contour>
      <point x="44" y="-129" type="curve"/>
      <point x="66" y="-129" type="line"/>
      <point x="94" y="-60"/>
      <point x="116" y="30"/>
      <point x="131" y="104" type="curve"/>
      <point x="128" y="116" type="line"/>
      <point x="100" y="116" type="line"/>
      <point x="89" y="40"/>
      <point x="73" y="-32"/>
    </contour>
  </outline>
</glyph>
<glyph name="bracketright" format="2">
  <advance width="278"/>
  <unicode hex="005D"/>
  <outline>
    <contour>
      <point x="55" y="-139" type="line"/>
      <point x="55" y="-165" type="line"/>
      <point x="184" y="-165" type="line"/>
      <point x="184" y="832" type="line"/>
      <point x="55" y="832" type="line"/>
      <point x="55" y="806" type="line"/>
      <point x="158" y="806" type="line"/>
      <point x="158" y="-139" type="line"/>
    </contour>
  </outline>
</glyph>
<glyph name="underscore" format="2">
  <advance width="300"/>
  <unicode hex="005F"/>
  <outline>
    <contour>
      <point x="0" y="-90" type="line"/>
      <point x="0" y="-116" type="line"/>
      <point x="300" y="-116" type="line"/>
      <point x="300" y="-90" type="line"/>
    </contour>
  </outline>
</glyph>
<glyph name="bar" format="2">
  <advance width="403"/>
  <unicode hex="007C"/>
  <outline>
    <contour>
      <point x="189" y="832" type="line"/>
      <point x="189" y="-166" type="line"/>
      <point x="215" y="-166" type="line"/>
      <point x="215" y="832" type="line"/>
    </contour>
  </outline>
</glyph>
<glyph name="ii-oriya" format="2">
  <advance width="581"/>
  <unicode hex="0B08"/>
  <note>
iiorya
</note>
  <anchor x="502" y="658" name="topright"/>
  <outline>
    <contour>
      <point x="449" y="151" type="curve"/>
      <point x="560" y="-42" type="line"/>
      <point x="515" y="-24" type="line"/>
      <point x="583" y="18" type="line"/>
      <point x="581" y="-31" type="line"/>
      <point x="475" y="156" type="line"/>
      <point x="472" y="140" type="line"/>
      <point x="518" y="207"/>
      <point x="547" y="288"/>
      <point x="547" y="387" type="curve" smooth="yes"/>
      <point x="547" y="571"/>
      <point x="447" y="666"/>
      <point x="340" y="666" type="curve" smooth="yes"/>
      <point x="252" y="666"/>
      <point x="177" y="603"/>
      <point x="149" y="489" type="curve"/>
      <point x="179" y="497" type="line"/>
      <point x="205" y="589"/>
      <point x="266" y="641"/>
      <point x="340" y="641" type="curve" smooth="yes"/>
      <point x="439" y="641"/>
      <point x="521" y="546"/>
      <point x="521" y="385" type="curve" smooth="yes"/>
      <point x="521" y="291"/>
      <point x="493" y="213"/>
    </contour>
    <contour>
      <point x="180" y="-8" type="curve" smooth="yes"/>
      <point x="237" y="-8"/>
      <point x="265" y="53"/>
      <point x="265" y="159" type="curve" smooth="yes"/>
      <point x="265" y="265"/>
      <point x="237" y="326"/>
      <point x="180" y="326" type="curve" smooth="yes"/>
      <point x="126" y="326"/>
      <point x="93" y="267"/>
      <point x="93" y="159" type="curve" smooth="yes"/>
      <point x="93" y="52"/>
      <point x="125" y="-8"/>
    </contour>
    <contour>
      <point x="181" y="17" type="curve" smooth="yes"/>
      <point x="142" y="17"/>
      <point x="119" y="67"/>
      <point x="119" y="160" type="curve" smooth="yes"/>
      <point x="119" y="249"/>
      <point x="140" y="301"/>
      <point x="181" y="301" type="curve" smooth="yes"/>
      <point x="222" y="301"/>
      <point x="243" y="250"/>
      <point x="243" y="160" type="curve" smooth="yes"/>
      <point x="243" y="67"/>
      <point x="220" y="17"/>
    </contour>
    <contour>
      <point x="332" y="-8" type="curve" smooth="yes"/>
      <point x="387" y="-8"/>
      <point x="419" y="51"/>
      <point x="419" y="159" type="curve" smooth="yes"/>
      <point x="419" y="266"/>
      <point x="388" y="326"/>
      <point x="331" y="326" type="curve" smooth="yes"/>
      <point x="278" y="326"/>
      <point x="247" y="267"/>
      <point x="247" y="159" type="curve" smooth="yes"/>
      <point x="247" y="52"/>
      <point x="277" y="-8"/>
    </contour>
    <contour>
      <point x="331" y="17" type="curve" smooth="yes"/>
      <point x="292" y="17"/>
      <point x="269" y="68"/>
      <point x="269" y="160" type="curve" smooth="yes"/>
      <point x="269" y="251"/>
      <point x="292" y="301"/>
      <point x="331" y="301" type="curve" smooth="yes"/>
      <point x="372" y="301"/>
      <point x="393" y="250"/>
      <point x="393" y="160" type="curve" smooth="yes"/>
      <point x="393" y="68"/>
      <point x="371" y="17"/>
    </contour>
    <contour>
      <point x="95" y="194" type="curve"/>
      <point x="103" y="222" type="line"/>
      <point x="70" y="249"/>
      <point x="54" y="291"/>
      <point x="54" y="334" type="curve" smooth="yes"/>
      <point x="54" y="428"/>
      <point x="118" y="488"/>
      <point x="185" y="488" type="curve" smooth="yes"/>
      <point x="228" y="488"/>
      <point x="272" y="464"/>
      <point x="302" y="408" type="curve"/>
      <point x="276" y="408" type="line"/>
      <point x="343" y="464" type="line"/>
      <point x="319" y="426" type="line"/>
      <point x="286" y="486"/>
      <point x="235" y="513"/>
      <point x="185" y="513" type="curve" smooth="yes"/>
      <point x="105" y="513"/>
      <point x="28" y="445"/>
      <point x="28" y="336" type="curve" smooth="yes"/>
      <point x="28" y="282"/>
      <point x="49" y="229"/>
    </contour>
  </outline>
</glyph>
<glyph name="e-oriya" format="2">
  <advance width="493"/>
  <unicode hex="0B0F"/>
  <note>
eorya
</note>
  <anchor x="428" y="658" name="topright"/>
  <outline>
    <contour>
      <point x="227" y="414" type="curve"/>
      <point x="240" y="400" type="line"/>
      <point x="240" y="522"/>
      <point x="312" y="634"/>
      <point x="422" y="633" type="curve"/>
      <point x="415" y="645" type="line"/>
      <point x="415" y="9" type="line"/>
      <point x="437" y="12" type="line"/>
      <point x="274" y="160"/>
      <point x="134" y="326"/>
      <point x="-5" y="510" type="curve"/>
      <point x="23" y="509" type="line"/>
      <point x="-46" y="457" type="line"/>
      <point x="-28" y="495" type="line"/>
      <point x="103" y="323"/>
      <point x="243" y="155"/>
      <point x="412" y="0" type="curve"/>
      <point x="441" y="0" type="line"/>
      <point x="441" y="658" type="line"/>
      <point x="425" y="658" type="line" smooth="yes"/>
      <point x="298" y="658"/>
      <point x="215" y="530"/>
      <point x="215" y="416" type="curve" smooth="yes"/>
      <point x="215" y="362"/>
      <point x="235" y="351"/>
      <point x="249" y="351" type="curve" smooth="yes"/>
      <point x="269" y="351"/>
      <point x="279" y="370"/>
      <point x="279" y="388" type="curve" smooth="yes"/>
      <point x="279" y="407"/>
      <point x="269" y="426"/>
      <point x="250" y="426" type="curve" smooth="yes"/>
      <point x="242" y="426"/>
      <point x="234" y="423"/>
    </contour>
  </outline>
</glyph>
<glyph name="ai-oriya" format="2">
  <advance width="623"/>
  <unicode hex="0B10"/>
  <note>
aiorya
</note>
  <guideline x="293" y="858" angle="32.7352"/>
  <guideline x="350" y="699" angle="32.7352"/>
  <outline>
    <contour>
      <point x="493" y="328" type="curve" smooth="yes"/>
      <point x="513" y="328"/>
      <point x="545" y="334"/>
      <point x="564" y="348" type="curve"/>
      <point x="564" y="374" type="line"/>
      <point x="545" y="358"/>
      <point x="513" y="352"/>
      <point x="493" y="352" type="curve" smooth="yes"/>
      <point x="473" y="352"/>
      <point x="441" y="358"/>
      <point x="422" y="374" type="curve"/>
      <point x="422" y="348" type="line"/>
      <point x="441" y="334"/>
      <point x="473" y="328"/>
    </contour>
    <contour>
      <point x="227" y="414" type="curve"/>
      <point x="240" y="400" type="line"/>
      <point x="240" y="522"/>
      <point x="312" y="634"/>
      <point x="422" y="633" type="curve"/>
      <point x="415" y="645" type="line"/>
      <point x="415" y="9" type="line"/>
      <point x="437" y="12" type="line"/>
      <point x="274" y="160"/>
      <point x="134" y="326"/>
      <point x="-5" y="510" type="curve"/>
      <point x="23" y="509" type="line"/>
      <point x="-46" y="457" type="line"/>
      <point x="-28" y="495" type="line"/>
      <point x="103" y="323"/>
      <point x="243" y="155"/>
      <point x="412" y="0" type="curve"/>
      <point x="441" y="0" type="line"/>
      <point x="441" y="658" type="line"/>
      <point x="425" y="658" type="line" smooth="yes"/>
      <point x="298" y="658"/>
      <point x="215" y="530"/>
      <point x="215" y="416" type="curve" smooth="yes"/>
      <point x="215" y="362"/>
      <point x="235" y="351"/>
      <point x="249" y="351" type="curve" smooth="yes"/>
      <point x="269" y="351"/>
      <point x="279" y="370"/>
      <point x="279" y="388" type="curve" smooth="yes"/>
      <point x="279" y="407"/>
      <point x="269" y="426"/>
      <point x="250" y="426" type="curve" smooth="yes"/>
      <point x="242" y="426"/>
      <point x="234" y="423"/>
    </contour>
    <contour>
      <point x="564" y="675" type="line"/>
      <point x="606" y="710"/>
      <point x="624" y="746"/>
      <point x="624" y="785" type="curve" smooth="yes"/>
      <point x="624" y="837"/>
      <point x="588" y="876"/>
      <point x="533" y="876" type="curve" smooth="yes"/>
      <point x="464" y="876"/>
      <point x="386" y="816"/>
      <point x="321" y="816" type="curve" smooth="yes"/>
      <point x="281" y="816"/>
      <point x="250" y="838"/>
      <point x="225" y="902" type="curve"/>
      <point x="264" y="889" type="line"/>
      <point x="197" y="849" type="line"/>
      <point x="209" y="883" type="line"/>
      <point x="236" y="813"/>
      <point x="277" y="791"/>
      <point x="320" y="791" type="curve" smooth="yes"/>
      <point x="390" y="791"/>
      <point x="466" y="851"/>
      <point x="529" y="851" type="curve" smooth="yes"/>
      <point x="577" y="851"/>
      <point x="598" y="816"/>
      <point x="598" y="781" type="curve" smooth="yes"/>
      <point x="598" y="749"/>
      <point x="583" y="719"/>
      <point x="545" y="693" type="curve"/>
      <point x="545" y="0" type="line"/>
      <point x="571" y="0" type="line"/>
      <point x="571" y="693" type="line"/>
    </contour>
  </outline>
</glyph>
<glyph name="au-oriya" format="2">
  <advance width="630"/>
  <unicode hex="0B14"/>
  <note>
auorya
</note>
  <outline>
    <contour>
      <point x="492" y="241" type="curve" smooth="yes"/>
      <point x="515" y="241"/>
      <point x="537" y="246"/>
      <point x="560" y="254" type="curve"/>
      <point x="560" y="279" type="line"/>
      <point x="537" y="270"/>
      <point x="515" y="265"/>
      <point x="492" y="265" type="curve" smooth="yes"/>
      <point x="467" y="265"/>
      <point x="442" y="271"/>
      <point x="415" y="283" type="curve"/>
      <point x="409" y="279" type="line"/>
      <point x="425" y="254" type="line"/>
      <point x="448" y="246"/>
      <point x="470" y="241"/>
    </contour>
    <contour>
      <point x="272" y="-8" type="curve" smooth="yes"/>
      <point x="387" y="-8"/>
      <point x="454" y="76"/>
      <point x="454" y="179" type="curve" smooth="yes"/>
      <point x="454" y="269"/>
      <point x="404" y="338"/>
      <point x="312" y="338" type="curve"/>
      <point x="267" y="314" type="line"/>
      <point x="282" y="319" type="line" smooth="yes"/>
      <point x="417" y="364"/>
      <point x="446" y="444"/>
      <point x="446" y="516" type="curve" smooth="yes"/>
      <point x="446" y="607"/>
      <point x="400" y="666"/>
      <point x="325" y="666" type="curve" smooth="yes"/>
      <point x="245" y="666"/>
      <point x="202" y="597"/>
      <point x="202" y="514" type="curve" smooth="yes"/>
      <point x="202" y="486"/>
      <point x="207" y="455"/>
      <point x="218" y="426" type="curve"/>
      <point x="242" y="435" type="line"/>
      <point x="233" y="462"/>
      <point x="228" y="489"/>
      <point x="228" y="516" type="curve" smooth="yes"/>
      <point x="228" y="584"/>
      <point x="261" y="641"/>
      <point x="326" y="641" type="curve" smooth="yes"/>
      <point x="386" y="641"/>
      <point x="420" y="593"/>
      <point x="420" y="518" type="curve" smooth="yes"/>
      <point x="420" y="391"/>
      <point x="324" y="360"/>
      <point x="275" y="341" type="curve" smooth="yes"/>
      <point x="233" y="325" type="line"/>
      <point x="239" y="298" type="line"/>
      <point x="261" y="308"/>
      <point x="290" y="316"/>
      <point x="314" y="316" type="curve" smooth="yes"/>
      <point x="382" y="316"/>
      <point x="428" y="257"/>
      <point x="428" y="178" type="curve" smooth="yes"/>
      <point x="428" y="91"/>
      <point x="368" y="17"/>
      <point x="271" y="17" type="curve" smooth="yes"/>
      <point x="127" y="17"/>
      <point x="54" y="178"/>
      <point x="54" y="350" type="curve" smooth="yes"/>
      <point x="54" y="486"/>
      <point x="100" y="630"/>
      <point x="192" y="706" type="curve"/>
      <point x="176" y="726" type="line"/>
      <point x="78" y="642"/>
      <point x="28" y="490"/>
      <point x="28" y="347" type="curve" smooth="yes"/>
      <point x="28" y="163"/>
      <point x="108" y="-8"/>
    </contour>
    <contour>
      <point x="571" y="674" type="line"/>
      <point x="613" y="709"/>
      <point x="631" y="745"/>
      <point x="631" y="784" type="curve" smooth="yes"/>
      <point x="631" y="836"/>
      <point x="595" y="875"/>
      <point x="540" y="875" type="curve" smooth="yes"/>
      <point x="471" y="875"/>
      <point x="393" y="815"/>
      <point x="328" y="815" type="curve" smooth="yes"/>
      <point x="288" y="815"/>
      <point x="257" y="837"/>
      <point x="232" y="901" type="curve"/>
      <point x="271" y="888" type="line"/>
      <point x="204" y="848" type="line"/>
      <point x="216" y="882" type="line"/>
      <point x="243" y="812"/>
      <point x="284" y="790"/>
      <point x="327" y="790" type="curve" smooth="yes"/>
      <point x="397" y="790"/>
      <point x="473" y="850"/>
      <point x="536" y="850" type="curve" smooth="yes"/>
      <point x="584" y="850"/>
      <point x="605" y="815"/>
      <point x="605" y="780" type="curve" smooth="yes"/>
      <point x="605" y="748"/>
      <point x="590" y="718"/>
      <point x="552" y="692" type="curve"/>
      <point x="552" y="-1" type="line"/>
      <point x="578" y="-1" type="line"/>
      <point x="578" y="692" type="line"/>
    </contour>
  </outline>
</glyph>
<glyph name="ttha-oriya" format="2">
  <advance width="551"/>
  <unicode hex="0B20"/>
  <note>
tthaorya
</note>
  <anchor x="276" y="0" name="bottom"/>
  <anchor x="473" y="0" name="bottom_ra"/>
  <anchor x="276" y="658" name="top"/>
  <anchor x="463" y="658" name="topright"/>
  <outline>
    <contour>
      <point x="276" y="-7" type="curve" smooth="yes"/>
      <point x="423" y="-7"/>
      <point x="523" y="130"/>
      <point x="523" y="330" type="curve" smooth="yes"/>
      <point x="523" y="530"/>
      <point x="423" y="666"/>
      <point x="276" y="666" type="curve" smooth="yes"/>
      <point x="129" y="666"/>
      <point x="28" y="530"/>
      <point x="28" y="330" type="curve" smooth="yes"/>
      <point x="28" y="130"/>
      <point x="129" y="-7"/>
    </contour>
    <contour>
      <point x="276" y="18" type="curve" smooth="yes"/>
      <point x="144" y="18"/>
      <point x="54" y="145"/>
      <point x="54" y="331" type="curve" smooth="yes"/>
      <point x="54" y="515"/>
      <point x="144" y="641"/>
      <point x="276" y="641" type="curve" smooth="yes"/>
      <point x="407" y="641"/>
      <point x="497" y="515"/>
      <point x="497" y="331" type="curve" smooth="yes"/>
      <point x="497" y="145"/>
      <point x="407" y="18"/>
    </contour>
  </outline>
</glyph>
<glyph name="dda-oriya" format="2">
  <advance width="521"/>
  <unicode hex="0B21"/>
  <note>
ddaorya
</note>
  <anchor x="246" y="0" name="bottom"/>
  <anchor x="450" y="0" name="bottom_ra"/>
  <anchor x="246" y="-90" name="nukta"/>
  <anchor x="262" y="658" name="top"/>
  <anchor x="448" y="658" name="topright"/>
  <outline>
    <contour>
      <point x="116" y="207" type="curve"/>
      <point x="124" y="234" type="line"/>
      <point x="82" y="278"/>
      <point x="54" y="342"/>
      <point x="54" y="414" type="curve" smooth="yes"/>
      <point x="54" y="541"/>
      <point x="143" y="641"/>
      <point x="262" y="641" type="curve" smooth="yes"/>
      <point x="381" y="641"/>
      <point x="467" y="542"/>
      <point x="467" y="407" type="curve" smooth="yes"/>
      <point x="467" y="348"/>
      <point x="451" y="288"/>
      <point x="417" y="242" type="curve"/>
      <point x="412" y="255" type="line"/>
      <point x="450" y="226" type="line"/>
      <point x="437" y="227" type="line"/>
      <point x="472" y="273"/>
      <point x="493" y="338"/>
      <point x="493" y="408" type="curve" smooth="yes"/>
      <point x="493" y="561"/>
      <point x="393" y="666"/>
      <point x="262" y="666" type="curve" smooth="yes"/>
      <point x="126" y="666"/>
      <point x="28" y="555"/>
      <point x="28" y="414" type="curve" smooth="yes"/>
      <point x="28" y="330"/>
      <point x="63" y="252"/>
    </contour>
    <contour>
      <point x="105" y="164" type="curve" smooth="yes"/>
      <point x="105" y="61"/>
      <point x="156" y="-8"/>
      <point x="246" y="-8" type="curve" smooth="yes"/>
      <point x="334" y="-8"/>
      <point x="381" y="59"/>
      <point x="381" y="137" type="curve" smooth="yes"/>
      <point x="381" y="190"/>
      <point x="359" y="247"/>
      <point x="313" y="290" type="curve"/>
      <point x="298" y="271" type="line"/>
      <point x="336" y="236"/>
      <point x="355" y="186"/>
      <point x="355" y="139" type="curve" smooth="yes"/>
      <point x="355" y="74"/>
      <point x="318" y="17"/>
      <point x="246" y="17" type="curve" smooth="yes"/>
      <point x="172" y="17"/>
      <point x="131" y="77"/>
      <point x="131" y="164" type="curve" smooth="yes"/>
      <point x="131" y="233"/>
      <point x="160" y="295"/>
      <point x="215" y="357" type="curve"/>
      <point x="197" y="373" type="line"/>
      <point x="137" y="306"/>
      <point x="105" y="230"/>
    </contour>
    <contour>
      <point x="254" y="198" type="line"/>
      <point x="368" y="345" type="line"/>
      <point x="350" y="360" type="line"/>
      <point x="236" y="213" type="line"/>
    </contour>
  </outline>
</glyph>
<glyph name="nna-oriya" format="2">
  <advance width="534"/>
  <unicode hex="0B23"/>
  <note>
nnaorya
</note>
  <anchor x="456" y="0" name="bottom"/>
  <anchor x="482" y="0" name="bottom_ra"/>
  <anchor x="274" y="658" name="top"/>
  <anchor x="469" y="658" name="topright"/>
  <outline>
    <contour>
      <point x="28" y="240" type="curve" smooth="yes"/>
      <point x="28" y="106"/>
      <point x="94" y="-8"/>
      <point x="218" y="-8" type="curve" smooth="yes"/>
      <point x="307" y="-8"/>
      <point x="370" y="51"/>
      <point x="370" y="130" type="curve" smooth="yes"/>
      <point x="370" y="204"/>
      <point x="312" y="279"/>
      <point x="193" y="279" type="curve" smooth="yes"/>
      <point x="142" y="279"/>
      <point x="86" y="265"/>
      <point x="37" y="238" type="curve"/>
      <point x="38" y="210" type="line"/>
      <point x="83" y="239"/>
      <point x="138" y="254"/>
      <point x="190" y="254" type="curve" smooth="yes"/>
      <point x="294" y="254"/>
      <point x="344" y="191"/>
      <point x="344" y="130" type="curve" smooth="yes"/>
      <point x="344" y="70"/>
      <point x="296" y="17"/>
      <point x="219" y="17" type="curve" smooth="yes"/>
      <point x="112" y="17"/>
      <point x="54" y="118"/>
      <point x="54" y="242" type="curve" smooth="yes"/>
      <point x="54" y="362"/>
      <point x="108" y="435"/>
      <point x="199" y="435" type="curve" smooth="yes"/>
      <point x="234" y="435"/>
      <point x="275" y="424"/>
      <point x="321" y="400" type="curve"/>
      <point x="264" y="366" type="line"/>
      <point x="309" y="472" type="line"/>
      <point x="328" y="423" type="line"/>
      <point x="281" y="448"/>
      <point x="238" y="460"/>
      <point x="199" y="460" type="curve" smooth="yes"/>
      <point x="96" y="460"/>
      <point x="28" y="375"/>
    </contour>
    <contour>
      <point x="456" y="0" type="line"/>
      <point x="482" y="0" type="line"/>
      <point x="482" y="658" type="line"/>
      <point x="456" y="658" type="line"/>
      <point x="456" y="507" type="line"/>
      <point x="456" y="495" type="line"/>
    </contour>
    <contour>
      <point x="264" y="641" type="curve" smooth="yes"/>
      <point x="347" y="641"/>
      <point x="460" y="564"/>
      <point x="460" y="398" type="curve"/>
      <point x="482" y="398" type="line"/>
      <point x="482" y="578"/>
      <point x="361" y="666"/>
      <point x="263" y="666" type="curve" smooth="yes"/>
      <point x="183" y="666"/>
      <point x="126" y="608"/>
      <point x="126" y="517" type="curve" smooth="yes"/>
      <point x="126" y="496"/>
      <point x="129" y="468"/>
      <point x="141" y="438" type="curve"/>
      <point x="163" y="451" type="line"/>
      <point x="155" y="472"/>
      <point x="152" y="499"/>
      <point x="152" y="518" type="curve" smooth="yes"/>
      <point x="152" y="600"/>
      <point x="203" y="641"/>
    </contour>
  </outline>
</glyph>
<glyph name="da-oriya" format="2">
  <advance width="544"/>
  <unicode hex="0B26"/>
  <note>
daorya
</note>
  <guideline x="243" y="46" angle="0"/>
  <anchor x="348" y="0" name="bottom"/>
  <anchor x="444" y="0" name="bottom_ra"/>
  <anchor x="273" y="658" name="top"/>
  <anchor x="471" y="658" name="topright"/>
  <outline>
    <contour>
      <point x="254" y="75" type="curve" smooth="yes"/>
      <point x="296" y="75"/>
      <point x="341" y="97"/>
      <point x="369" y="144" type="curve"/>
      <point x="354" y="163" type="line"/>
      <point x="331" y="121"/>
      <point x="293" y="100"/>
      <point x="255" y="100" type="curve" smooth="yes"/>
      <point x="206" y="100"/>
      <point x="161" y="135"/>
      <point x="161" y="201" type="curve" smooth="yes"/>
      <point x="161" y="253"/>
      <point x="188" y="314"/>
      <point x="238" y="355" type="curve"/>
      <point x="222" y="374" type="line"/>
      <point x="166" y="329"/>
      <point x="135" y="261"/>
      <point x="135" y="202" type="curve" smooth="yes"/>
      <point x="135" y="121"/>
      <point x="193" y="75"/>
    </contour>
    <contour>
      <point x="348" y="0" type="line"/>
      <point x="374" y="0" type="line"/>
      <point x="374" y="320" type="line"/>
      <point x="348" y="320" type="line"/>
      <point x="348" y="130" type="line"/>
      <point x="348" y="118" type="line"/>
    </contour>
    <contour>
      <point x="154" y="183" type="curve"/>
      <point x="152" y="216" type="line"/>
      <point x="75" y="266"/>
      <point x="54" y="358"/>
      <point x="54" y="409" type="curve" smooth="yes"/>
      <point x="54" y="541"/>
      <point x="148" y="641"/>
      <point x="273" y="641" type="curve" smooth="yes"/>
      <point x="396" y="641"/>
      <point x="490" y="544"/>
      <point x="490" y="406" type="curve" smooth="yes"/>
      <point x="490" y="348"/>
      <point x="474" y="286"/>
      <point x="440" y="242" type="curve"/>
      <point x="435" y="255" type="line"/>
      <point x="473" y="226" type="line"/>
      <point x="460" y="227" type="line"/>
      <point x="495" y="273"/>
      <point x="516" y="338"/>
      <point x="516" y="407" type="curve" smooth="yes"/>
      <point x="516" y="561"/>
      <point x="412" y="666"/>
      <point x="273" y="666" type="curve" smooth="yes"/>
      <point x="131" y="666"/>
      <point x="28" y="556"/>
      <point x="28" y="409" type="curve" smooth="yes"/>
      <point x="28" y="347"/>
      <point x="50" y="241"/>
    </contour>
  </outline>
</glyph>
<glyph name="sha-oriya" format="2">
  <advance width="534"/>
  <unicode hex="0B36"/>
  <note>
shaorya
</note>
  <anchor x="456" y="0" name="bottom"/>
  <anchor x="482" y="0" name="bottom_ra"/>
  <anchor x="268" y="658" name="top"/>
  <anchor x="469" y="658" name="topright"/>
  <outline>
    <contour>
      <point x="460" y="398" type="curve"/>
      <point x="482" y="398" type="line"/>
      <point x="482" y="578"/>
      <point x="362" y="666"/>
      <point x="264" y="666" type="curve" smooth="yes"/>
      <point x="191" y="666"/>
      <point x="126" y="617"/>
      <point x="126" y="517" type="curve" smooth="yes"/>
      <point x="126" y="504"/>
      <point x="127" y="490"/>
      <point x="130" y="474" type="curve"/>
      <point x="155" y="481" type="line"/>
      <point x="153" y="494"/>
      <point x="152" y="507"/>
      <point x="152" y="518" type="curve" smooth="yes"/>
      <point x="152" y="597"/>
      <point x="200" y="641"/>
      <point x="264" y="641" type="curve" smooth="yes"/>
      <point x="348" y="641"/>
      <point x="460" y="564"/>
    </contour>
    <contour>
      <point x="234" y="-8" type="curve" smooth="yes"/>
      <point x="313" y="-8"/>
      <point x="370" y="63"/>
      <point x="370" y="156" type="curve" smooth="yes"/>
      <point x="370" y="248"/>
      <point x="313" y="319"/>
      <point x="234" y="319" type="curve" smooth="yes"/>
      <point x="155" y="319"/>
      <point x="98" y="248"/>
      <point x="98" y="156" type="curve" smooth="yes"/>
      <point x="98" y="63"/>
      <point x="155" y="-8"/>
    </contour>
    <contour>
      <point x="234" y="17" type="curve" smooth="yes"/>
      <point x="170" y="17"/>
      <point x="124" y="78"/>
      <point x="124" y="157" type="curve" smooth="yes"/>
      <point x="124" y="235"/>
      <point x="170" y="294"/>
      <point x="234" y="294" type="curve" smooth="yes"/>
      <point x="298" y="294"/>
      <point x="344" y="234"/>
      <point x="344" y="156" type="curve" smooth="yes"/>
      <point x="344" y="77"/>
      <point x="298" y="17"/>
    </contour>
    <contour>
      <point x="106" y="184" type="curve"/>
      <point x="112" y="212" type="line"/>
      <point x="72" y="241"/>
      <point x="54" y="287"/>
      <point x="54" y="334" type="curve" smooth="yes"/>
      <point x="54" y="417"/>
      <point x="109" y="475"/>
      <point x="188" y="475" type="curve" smooth="yes"/>
      <point x="220" y="475"/>
      <point x="256" y="465"/>
      <point x="291" y="443" type="curve"/>
      <point x="273" y="439" type="line"/>
      <point x="294" y="482" type="line"/>
      <point x="297" y="467" type="line"/>
      <point x="260" y="489"/>
      <point x="223" y="500"/>
      <point x="187" y="500" type="curve" smooth="yes"/>
      <point x="94" y="500"/>
      <point x="28" y="428"/>
      <point x="28" y="335" type="curve" smooth="yes"/>
      <point x="28" y="277"/>
      <point x="53" y="220"/>
    </contour>
    <contour>
      <point x="456" y="0" type="line"/>
      <point x="482" y="0" type="line"/>
      <point x="482" y="658" type="line"/>
      <point x="456" y="658" type="line"/>
      <point x="456" y="495" type="line"/>
      <point x="456" y="480" type="line"/>
    </contour>
  </outline>
</glyph>
<glyph name="ssa-oriya" format="2">
  <advance width="534"/>
  <unicode hex="0B37"/>
  <note>
ssaorya
</note>
  <anchor x="456" y="0" name="bottom"/>
  <anchor x="482" y="0" name="bottom_ra"/>
  <anchor x="253" y="658" name="top"/>
  <anchor x="469" y="658" name="topright"/>
  <outline>
    <contour>
      <point x="137" y="193" type="curve"/>
      <point x="142" y="222" type="line"/>
      <point x="82" y="270"/>
      <point x="54" y="340"/>
      <point x="54" y="417" type="curve" smooth="yes"/>
      <point x="54" y="561"/>
      <point x="152" y="641"/>
      <point x="252" y="641" type="curve" smooth="yes"/>
      <point x="355" y="641"/>
      <point x="460" y="567"/>
      <point x="460" y="398" type="curve"/>
      <point x="482" y="398" type="line"/>
      <point x="482" y="583"/>
      <point x="366" y="666"/>
      <point x="253" y="666" type="curve" smooth="yes"/>
      <point x="141" y="666"/>
      <point x="28" y="577"/>
      <point x="28" y="418" type="curve" smooth="yes"/>
      <point x="28" y="330"/>
      <point x="63" y="247"/>
    </contour>
    <contour>
      <point x="293" y="-8" type="curve" smooth="yes"/>
      <point x="377" y="-8"/>
      <point x="443" y="50"/>
      <point x="476" y="141" type="curve"/>
      <point x="456" y="152" type="line"/>
      <point x="425" y="68"/>
      <point x="367" y="18"/>
      <point x="294" y="17" type="curve" smooth="yes"/>
      <point x="208" y="16"/>
      <point x="149" y="88"/>
      <point x="149" y="180" type="curve" smooth="yes"/>
      <point x="149" y="268"/>
      <point x="201" y="337"/>
      <point x="272" y="362" type="curve"/>
      <point x="278" y="318" type="line"/>
      <point x="241" y="411" type="line"/>
      <point x="260" y="384" type="line"/>
      <point x="177" y="353"/>
      <point x="123" y="276"/>
      <point x="123" y="182" type="curve" smooth="yes"/>
      <point x="123" y="73"/>
      <point x="192" y="-8"/>
    </contour>
    <contour>
      <point x="456" y="0" type="line"/>
      <point x="482" y="0" type="line"/>
      <point x="482" y="658" type="line"/>
      <point x="456" y="658" type="line"/>
      <point x="456" y="510" type="line"/>
      <point x="456" y="495" type="line"/>
      <point x="456" y="123" type="line"/>
      <point x="456" y="107" type="line"/>
    </contour>
    <contour>
      <point x="425" y="74" type="line"/>
      <point x="442" y="93" type="line"/>
      <point x="134" y="615" type="line"/>
      <point x="119" y="592" type="line"/>
    </contour>
  </outline>
</glyph>
<glyph name="aaMatra-oriya" format="2">
  <advance width="130"/>
  <unicode hex="0B3E"/>
  <note>
aavowelsignorya
</note>
  <anchor x="65" y="658" name="topright"/>
  <outline>
    <contour>
      <point x="52" y="658" type="line"/>
      <point x="52" y="0" type="line"/>
      <point x="78" y="0" type="line"/>
      <point x="78" y="658" type="line"/>
    </contour>
  </outline>
</glyph>
<glyph name="aiLength-oriya" format="2">
  <unicode hex="0B56"/>
  <note>
ailengthmarkorya
</note>
  <guideline x="979" y="527" angle="90"/>
  <anchor x="404" y="658" name="_topright"/>
  <outline>
    <contour>
      <point x="376" y="711" type="line"/>
      <point x="430" y="687" type="line"/>
      <point x="400" y="673" type="line"/>
      <point x="424" y="706"/>
      <point x="438" y="745"/>
      <point x="438" y="780" type="curve" smooth="yes"/>
      <point x="438" y="838"/>
      <point x="402" y="876"/>
      <point x="347" y="876" type="curve" smooth="yes"/>
      <point x="277" y="876"/>
      <point x="200" y="816"/>
      <point x="135" y="816" type="curve" smooth="yes"/>
      <point x="95" y="816"/>
      <point x="64" y="838"/>
      <point x="39" y="902" type="curve"/>
      <point x="78" y="889" type="line"/>
      <point x="11" y="849" type="line"/>
      <point x="23" y="883" type="line"/>
      <point x="50" y="813"/>
      <point x="91" y="791"/>
      <point x="134" y="791" type="curve" smooth="yes"/>
      <point x="204" y="791"/>
      <point x="280" y="851"/>
      <point x="343" y="851" type="curve" smooth="yes"/>
      <point x="390" y="851"/>
      <point x="412" y="816"/>
      <point x="412" y="776" type="curve" smooth="yes"/>
      <point x="412" y="747"/>
      <point x="399" y="713"/>
      <point x="380" y="685" type="curve"/>
    </contour>
  </outline>
</glyph>
<glyph name="auLength-oriya" format="2">
  <advance width="130"/>
  <unicode hex="0B57"/>
  <note>
aulengthmarkorya
</note>
  <outline>
    <contour>
      <point x="52" y="693" type="line"/>
      <point x="52" y="0" type="line"/>
      <point x="78" y="0" type="line"/>
      <point x="78" y="694" type="line"/>
    </contour>
    <contour>
      <point x="52" y="693" type="curve"/>
      <point x="72" y="676" type="line"/>
      <point x="113" y="710"/>
      <point x="131" y="746"/>
      <point x="131" y="785" type="curve" smooth="yes"/>
      <point x="131" y="837"/>
      <point x="95" y="876"/>
      <point x="40" y="876" type="curve" smooth="yes"/>
      <point x="-29" y="876"/>
      <point x="-107" y="816"/>
      <point x="-172" y="816" type="curve" smooth="yes"/>
      <point x="-212" y="816"/>
      <point x="-243" y="838"/>
      <point x="-268" y="902" type="curve"/>
      <point x="-229" y="889" type="line"/>
      <point x="-296" y="849" type="line"/>
      <point x="-284" y="883" type="line"/>
      <point x="-257" y="813"/>
      <point x="-216" y="791"/>
      <point x="-173" y="791" type="curve" smooth="yes"/>
      <point x="-103" y="791"/>
      <point x="-27" y="851"/>
      <point x="36" y="851" type="curve" smooth="yes"/>
      <point x="84" y="851"/>
      <point x="105" y="816"/>
      <point x="105" y="781" type="curve" smooth="yes"/>
      <point x="105" y="749"/>
      <point x="90" y="719"/>
    </contour>
  </outline>
</glyph>
<glyph name="zero-oriya" format="2">
  <advance width="411"/>
  <unicode hex="0B66"/>
  <note>
zeroorya
</note>
  <outline>
    <contour>
      <point x="206" y="66" type="curve" smooth="yes"/>
      <point x="319" y="66"/>
      <point x="395" y="166"/>
      <point x="395" y="317" type="curve" smooth="yes"/>
      <point x="395" y="467"/>
      <point x="319" y="567"/>
      <point x="206" y="567" type="curve" smooth="yes"/>
      <point x="93" y="567"/>
      <point x="17" y="467"/>
      <point x="17" y="317" type="curve" smooth="yes"/>
      <point x="17" y="166"/>
      <point x="93" y="66"/>
    </contour>
    <contour>
      <point x="206" y="542" type="curve" smooth="yes"/>
      <point x="304" y="542"/>
      <point x="369" y="452"/>
      <point x="369" y="317" type="curve" smooth="yes"/>
      <point x="369" y="182"/>
      <point x="304" y="91"/>
      <point x="206" y="91" type="curve" smooth="yes"/>
      <point x="108" y="91"/>
      <point x="43" y="182"/>
      <point x="43" y="317" type="curve" smooth="yes"/>
      <point x="43" y="452"/>
      <point x="108" y="542"/>
    </contour>
  </outline>
</glyph>
<glyph name="hyphen" format="2">
  <advance width="264"/>
  <unicode hex="2010"/>
  <outline>
    <contour>
      <point x="41" y="310" type="line"/>
      <point x="41" y="284" type="line"/>
      <point x="222" y="284" type="line"/>
      <point x="222" y="310" type="line"/>
    </contour>
  </outline>
</glyph>
<glyph name="endash" format="2">
  <advance width="500"/>
  <unicode hex="2013"/>
  <outline>
    <contour>
      <point x="35" y="310" type="line"/>
      <point x="35" y="284" type="line"/>
      <point x="465" y="284" type="line"/>
      <point x="465" y="310" type="line"/>
    </contour>
  </outline>
</glyph>
<glyph name="minus" format="2">
  <advance width="411"/>
  <unicode hex="2212"/>
  <outline>
    <contour>
      <point x="38" y="335" type="line"/>
      <point x="38" y="309" type="line"/>
      <point x="373" y="309" type="line"/>
      <point x="373" y="335" type="line"/>
    </contour>
  </outline>
</glyph>
<glyph name="_part.pha" format="2">
  <advance width="644"/>
  <outline>
    <contour>
      <point x="544" y="600" type="curve" smooth="yes"/>
      <point x="492" y="600"/>
      <point x="455" y="549"/>
      <point x="455" y="474" type="curve" smooth="yes"/>
      <point x="455" y="392"/>
      <point x="498" y="350"/>
      <point x="545" y="350" type="curve" smooth="yes"/>
      <point x="602" y="350"/>
      <point x="631" y="413"/>
      <point x="631" y="475" type="curve" smooth="yes"/>
      <point x="631" y="538"/>
      <point x="601" y="600"/>
    </contour>
    <contour>
      <point x="545" y="575" type="curve" smooth="yes"/>
      <point x="585" y="575"/>
      <point x="606" y="525"/>
      <point x="606" y="475" type="curve" smooth="yes"/>
      <point x="606" y="425"/>
      <point x="585" y="375"/>
      <point x="544" y="375" type="curve" smooth="yes"/>
      <point x="511" y="375"/>
      <point x="481" y="408"/>
      <point x="481" y="474" type="curve" smooth="yes"/>
      <point x="481" y="540"/>
      <point x="511" y="575"/>
    </contour>
  </outline>
</glyph>
<glyph name="_part_ta-oriya.below" format="2">
  <advance width="425"/>
  <note>
tasubscriptorya
</note>
  <outline>
    <contour>
      <point x="4" y="-151" type="line"/>
      <point x="-3" y="-120" type="line"/>
      <point x="50" y="-163"/>
      <point x="118" y="-184"/>
      <point x="181" y="-184" type="curve" smooth="yes"/>
      <point x="293" y="-184"/>
      <point x="392" y="-116"/>
      <point x="392" y="14" type="curve" smooth="yes"/>
      <point x="392" y="79"/>
      <point x="366" y="116"/>
      <point x="320" y="116" type="curve" smooth="yes"/>
      <point x="266" y="116"/>
      <point x="242" y="67"/>
      <point x="242" y="20" type="curve" smooth="yes"/>
      <point x="242" y="-29"/>
      <point x="267" y="-76"/>
      <point x="315" y="-76" type="curve" smooth="yes"/>
      <point x="349" y="-76"/>
      <point x="370" y="-53"/>
      <point x="381" y="-13" type="curve"/>
      <point x="363" y="-26" type="line"/>
      <point x="349" y="-115"/>
      <point x="269" y="-159"/>
      <point x="181" y="-159" type="curve" smooth="yes"/>
      <point x="123" y="-159"/>
      <point x="62" y="-140"/>
      <point x="14" y="-103" type="curve"/>
      <point x="35" y="-102" type="line"/>
    </contour>
    <contour>
      <point x="366" y="21" type="curve" smooth="yes"/>
      <point x="366" y="-25"/>
      <point x="349" y="-51"/>
      <point x="318" y="-51" type="curve" smooth="yes"/>
      <point x="287" y="-51"/>
      <point x="268" y="-24"/>
      <point x="268" y="23" type="curve" smooth="yes"/>
      <point x="268" y="66"/>
      <point x="286" y="91"/>
      <point x="317" y="91" type="curve" smooth="yes"/>
      <point x="348" y="91"/>
      <point x="366" y="65"/>
    </contour>
  </outline>
</glyph>
<glyph name="aiLength-oriya.stem" format="2">
  <advance width="500"/>
  <note>
ailengthmarkorya
</note>
  <anchor x="364" y="658" name="_topright"/>
  <outline>
    <contour>
      <point x="351" y="658" type="curve"/>
      <point x="386" y="641" type="line"/>
      <point x="371" y="642" type="line"/>
      <point x="414" y="679"/>
      <point x="438" y="732"/>
      <point x="438" y="780" type="curve" smooth="yes"/>
      <point x="438" y="838"/>
      <point x="402" y="876"/>
      <point x="347" y="876" type="curve" smooth="yes"/>
      <point x="277" y="876"/>
      <point x="200" y="816"/>
      <point x="135" y="816" type="curve" smooth="yes"/>
      <point x="95" y="816"/>
      <point x="64" y="838"/>
      <point x="39" y="902" type="curve"/>
      <point x="78" y="889" type="line"/>
      <point x="11" y="849" type="line"/>
      <point x="23" y="883" type="line"/>
      <point x="50" y="813"/>
      <point x="91" y="791"/>
      <point x="134" y="791" type="curve" smooth="yes"/>
      <point x="204" y="791"/>
      <point x="280" y="851"/>
      <point x="343" y="851" type="curve" smooth="yes"/>
      <point x="390" y="851"/>
      <point x="412" y="816"/>
      <point x="412" y="776" type="curve" smooth="yes"/>
      <point x="412" y="735"/>
      <point x="390" y="687"/>
    </contour>
  </outline>
</glyph>
<glyph name="aiLength-oriya.umbrella" format="2">
  <note>
ailengthmarkorya
</note>
  <guideline x="979" y="527" angle="90"/>
  <anchor x="385" y="658" name="_topright"/>
  <outline>
    <contour>
      <point x="317" y="614" type="line"/>
      <point x="365" y="587" type="line"/>
      <point x="332" y="574" type="line"/>
      <point x="388" y="632"/>
      <point x="419" y="708"/>
      <point x="419" y="769" type="curve" smooth="yes"/>
      <point x="419" y="830"/>
      <point x="388" y="876"/>
      <point x="327" y="876" type="curve" smooth="yes"/>
      <point x="258" y="876"/>
      <point x="180" y="816"/>
      <point x="115" y="816" type="curve" smooth="yes"/>
      <point x="75" y="816"/>
      <point x="44" y="838"/>
      <point x="19" y="902" type="curve"/>
      <point x="58" y="889" type="line"/>
      <point x="-9" y="849" type="line"/>
      <point x="3" y="883" type="line"/>
      <point x="30" y="813"/>
      <point x="71" y="791"/>
      <point x="114" y="791" type="curve" smooth="yes"/>
      <point x="184" y="791"/>
      <point x="261" y="851"/>
      <point x="322" y="851" type="curve" smooth="yes"/>
      <point x="369" y="851"/>
      <point x="393" y="816"/>
      <point x="393" y="766" type="curve" smooth="yes"/>
      <point x="393" y="710"/>
      <point x="362" y="636"/>
      <point x="306" y="584" type="curve"/>
    </contour>
  </outline>
</glyph>
<glyph name="ai_reph-oriya" format="2">
  <advance width="623"/>
  <outline>
    <contour>
      <point x="496" y="328" type="curve" smooth="yes"/>
      <point x="516" y="328"/>
      <point x="548" y="334"/>
      <point x="567" y="348" type="curve"/>
      <point x="567" y="374" type="line"/>
      <point x="548" y="358"/>
      <point x="516" y="352"/>
      <point x="496" y="352" type="curve" smooth="yes"/>
      <point x="476" y="352"/>
      <point x="444" y="358"/>
      <point x="425" y="374" type="curve"/>
      <point x="425" y="348" type="line"/>
      <point x="444" y="334"/>
      <point x="476" y="328"/>
    </contour>
    <contour>
      <point x="609" y="818" type="line"/>
      <point x="711" y="931" type="line"/>
      <point x="694" y="946" type="line"/>
      <point x="593" y="834" type="line"/>
    </contour>
    <contour>
      <point x="545" y="693" type="line"/>
      <point x="545" y="0" type="line"/>
      <point x="571" y="0" type="line"/>
      <point x="571" y="694" type="line"/>
    </contour>
    <contour>
      <point x="545" y="693" type="curve"/>
      <point x="565" y="676" type="line"/>
      <point x="606" y="710"/>
      <point x="624" y="746"/>
      <point x="624" y="785" type="curve" smooth="yes"/>
      <point x="624" y="837"/>
      <point x="588" y="876"/>
      <point x="533" y="876" type="curve" smooth="yes"/>
      <point x="464" y="876"/>
      <point x="386" y="816"/>
      <point x="321" y="816" type="curve" smooth="yes"/>
      <point x="281" y="816"/>
      <point x="250" y="838"/>
      <point x="225" y="902" type="curve"/>
      <point x="264" y="889" type="line"/>
      <point x="197" y="849" type="line"/>
      <point x="209" y="883" type="line"/>
      <point x="236" y="813"/>
      <point x="277" y="791"/>
      <point x="320" y="791" type="curve" smooth="yes"/>
      <point x="390" y="791"/>
      <point x="466" y="851"/>
      <point x="529" y="851" type="curve" smooth="yes"/>
      <point x="577" y="851"/>
      <point x="598" y="816"/>
      <point x="598" y="781" type="curve" smooth="yes"/>
      <point x="598" y="749"/>
      <point x="583" y="719"/>
    </contour>
    <contour>
      <point x="227" y="414" type="curve"/>
      <point x="240" y="400" type="line"/>
      <point x="240" y="522"/>
      <point x="312" y="634"/>
      <point x="422" y="633" type="curve"/>
      <point x="415" y="645" type="line"/>
      <point x="415" y="9" type="line"/>
      <point x="437" y="12" type="line"/>
      <point x="274" y="160"/>
      <point x="134" y="326"/>
      <point x="-5" y="510" type="curve"/>
      <point x="23" y="509" type="line"/>
      <point x="-46" y="457" type="line"/>
      <point x="-28" y="495" type="line"/>
      <point x="103" y="323"/>
      <point x="243" y="155"/>
      <point x="412" y="0" type="curve"/>
      <point x="441" y="0" type="line"/>
      <point x="441" y="658" type="line"/>
      <point x="425" y="658" type="line" smooth="yes"/>
      <point x="298" y="658"/>
      <point x="215" y="530"/>
      <point x="215" y="416" type="curve" smooth="yes"/>
      <point x="215" y="362"/>
      <point x="235" y="351"/>
      <point x="249" y="351" type="curve" smooth="yes"/>
      <point x="269" y="351"/>
      <point x="279" y="370"/>
      <point x="279" y="388" type="curve" smooth="yes"/>
      <point x="279" y="407"/>
      <point x="269" y="426"/>
      <point x="250" y="426" type="curve" smooth="yes"/>
      <point x="242" y="426"/>
      <point x="234" y="423"/>
    </contour>
  </outline>
</glyph>
<glyph name="au_reph-oriya" format="2">
  <advance width="630"/>
  <outline>
    <contour>
      <point x="492" y="241" type="curve" smooth="yes"/>
      <point x="515" y="241"/>
      <point x="537" y="246"/>
      <point x="560" y="254" type="curve"/>
      <point x="560" y="279" type="line"/>
      <point x="537" y="270"/>
      <point x="515" y="265"/>
      <point x="492" y="265" type="curve" smooth="yes"/>
      <point x="467" y="265"/>
      <point x="442" y="271"/>
      <point x="415" y="283" type="curve"/>
      <point x="409" y="279" type="line"/>
      <point x="425" y="254" type="line"/>
      <point x="448" y="246"/>
      <point x="470" y="241"/>
    </contour>
    <contour>
      <point x="272" y="-8" type="curve" smooth="yes"/>
      <point x="387" y="-8"/>
      <point x="454" y="76"/>
      <point x="454" y="179" type="curve" smooth="yes"/>
      <point x="454" y="269"/>
      <point x="404" y="338"/>
      <point x="312" y="338" type="curve"/>
      <point x="267" y="314" type="line"/>
      <point x="282" y="319" type="line" smooth="yes"/>
      <point x="417" y="364"/>
      <point x="446" y="444"/>
      <point x="446" y="516" type="curve" smooth="yes"/>
      <point x="446" y="607"/>
      <point x="400" y="666"/>
      <point x="325" y="666" type="curve" smooth="yes"/>
      <point x="245" y="666"/>
      <point x="202" y="597"/>
      <point x="202" y="514" type="curve" smooth="yes"/>
      <point x="202" y="486"/>
      <point x="207" y="455"/>
      <point x="218" y="426" type="curve"/>
      <point x="242" y="435" type="line"/>
      <point x="233" y="462"/>
      <point x="228" y="489"/>
      <point x="228" y="516" type="curve" smooth="yes"/>
      <point x="228" y="584"/>
      <point x="261" y="641"/>
      <point x="326" y="641" type="curve" smooth="yes"/>
      <point x="386" y="641"/>
      <point x="420" y="593"/>
      <point x="420" y="518" type="curve" smooth="yes"/>
      <point x="420" y="391"/>
      <point x="324" y="360"/>
      <point x="275" y="341" type="curve" smooth="yes"/>
      <point x="233" y="325" type="line"/>
      <point x="239" y="298" type="line"/>
      <point x="261" y="308"/>
      <point x="290" y="316"/>
      <point x="314" y="316" type="curve" smooth="yes"/>
      <point x="382" y="316"/>
      <point x="428" y="257"/>
      <point x="428" y="178" type="curve" smooth="yes"/>
      <point x="428" y="91"/>
      <point x="368" y="17"/>
      <point x="271" y="17" type="curve" smooth="yes"/>
      <point x="127" y="17"/>
      <point x="54" y="178"/>
      <point x="54" y="350" type="curve" smooth="yes"/>
      <point x="54" y="486"/>
      <point x="100" y="630"/>
      <point x="192" y="706" type="curve"/>
      <point x="176" y="726" type="line"/>
      <point x="78" y="642"/>
      <point x="28" y="490"/>
      <point x="28" y="347" type="curve" smooth="yes"/>
      <point x="28" y="163"/>
      <point x="108" y="-8"/>
    </contour>
    <contour>
      <point x="611" y="812" type="line"/>
      <point x="718" y="931" type="line"/>
      <point x="701" y="946" type="line"/>
      <point x="595" y="828" type="line"/>
    </contour>
    <contour>
      <point x="552" y="693" type="line"/>
      <point x="552" y="0" type="line"/>
      <point x="578" y="0" type="line"/>
      <point x="578" y="694" type="line"/>
    </contour>
    <contour>
      <point x="552" y="693" type="curve"/>
      <point x="572" y="676" type="line"/>
      <point x="613" y="710"/>
      <point x="631" y="746"/>
      <point x="631" y="785" type="curve" smooth="yes"/>
      <point x="631" y="837"/>
      <point x="595" y="876"/>
      <point x="540" y="876" type="curve" smooth="yes"/>
      <point x="471" y="876"/>
      <point x="393" y="816"/>
      <point x="328" y="816" type="curve" smooth="yes"/>
      <point x="288" y="816"/>
      <point x="257" y="838"/>
      <point x="232" y="902" type="curve"/>
      <point x="271" y="889" type="line"/>
      <point x="204" y="849" type="line"/>
      <point x="216" y="883" type="line"/>
      <point x="243" y="813"/>
      <point x="284" y="791"/>
      <point x="327" y="791" type="curve" smooth="yes"/>
      <point x="397" y="791"/>
      <point x="473" y="851"/>
      <point x="536" y="851" type="curve" smooth="yes"/>
      <point x="584" y="851"/>
      <point x="605" y="816"/>
      <point x="605" y="781" type="curve" smooth="yes"/>
      <point x="605" y="749"/>
      <point x="590" y="719"/>
    </contour>
  </outline>
</glyph>
<glyph name="ba_ja-oriya" format="2">
  <advance width="471"/>
  <guideline x="107" y="142" angle="90"/>
  <guideline x="333" y="177" angle="90"/>
  <guideline x="393" y="173" angle="90"/>
  <anchor x="234" y="658" name="top"/>
  <anchor x="398" y="658" name="topright"/>
  <outline>
    <contour>
      <point x="222" y="-248" type="curve" smooth="yes"/>
      <point x="248" y="-248"/>
      <point x="277" y="-240"/>
      <point x="308" y="-225" type="curve"/>
      <point x="294" y="-241" type="line"/>
      <point x="277" y="-195"/>
      <point x="260" y="-145"/>
      <point x="260" y="-91" type="curve" smooth="yes"/>
      <point x="260" y="-35"/>
      <point x="279" y="14"/>
      <point x="319" y="14" type="curve" smooth="yes"/>
      <point x="352" y="14"/>
      <point x="367" y="-13"/>
      <point x="367" y="-49" type="curve" smooth="yes"/>
      <point x="367" y="-244" type="line"/>
      <point x="393" y="-244" type="line"/>
      <point x="393" y="-49" type="line" smooth="yes"/>
      <point x="393" y="-37"/>
      <point x="391" y="36"/>
      <point x="322" y="36" type="curve" smooth="yes"/>
      <point x="260" y="36"/>
      <point x="235" y="-21"/>
      <point x="235" y="-93" type="curve" smooth="yes"/>
      <point x="235" y="-146"/>
      <point x="248" y="-184"/>
      <point x="265" y="-233" type="curve"/>
      <point x="274" y="-214" type="line"/>
      <point x="257" y="-221"/>
      <point x="241" y="-225"/>
      <point x="224" y="-225" type="curve" smooth="yes"/>
      <point x="169" y="-225"/>
      <point x="137" y="-181"/>
      <point x="137" y="-117" type="curve" smooth="yes"/>
      <point x="137" y="-53"/>
      <point x="176" y="3"/>
      <point x="217" y="48" type="curve"/>
      <point x="205" y="11" type="line"/>
      <point x="161" y="41" type="line"/>
      <point x="200" y="63" type="line"/>
      <point x="148" y="10"/>
      <point x="112" y="-48"/>
      <point x="112" y="-119" type="curve" smooth="yes"/>
      <point x="112" y="-201"/>
      <point x="159" y="-248"/>
    </contour>
    <contour>
      <point x="307" y="96" type="line"/>
      <point x="333" y="96" type="line"/>
      <point x="333" y="282" type="line"/>
      <point x="307" y="256" type="line"/>
    </contour>
    <contour>
      <point x="218" y="140" type="curve" smooth="yes"/>
      <point x="287" y="140"/>
      <point x="333" y="197"/>
      <point x="333" y="282" type="curve" smooth="yes"/>
      <point x="333" y="367"/>
      <point x="287" y="423"/>
      <point x="218" y="423" type="curve" smooth="yes"/>
      <point x="148" y="423"/>
      <point x="102" y="367"/>
      <point x="102" y="282" type="curve" smooth="yes"/>
      <point x="102" y="197"/>
      <point x="148" y="140"/>
    </contour>
    <contour>
      <point x="218" y="165" type="curve" smooth="yes"/>
      <point x="164" y="165"/>
      <point x="128" y="212"/>
      <point x="128" y="282" type="curve" smooth="yes"/>
      <point x="128" y="352"/>
      <point x="164" y="398"/>
      <point x="218" y="398" type="curve" smooth="yes"/>
      <point x="271" y="398"/>
      <point x="307" y="352"/>
      <point x="307" y="282" type="curve" smooth="yes"/>
      <point x="307" y="212"/>
      <point x="271" y="165"/>
    </contour>
    <contour>
      <point x="116" y="272" type="curve"/>
      <point x="124" y="295" type="line"/>
      <point x="81" y="333"/>
      <point x="54" y="388"/>
      <point x="54" y="453" type="curve" smooth="yes"/>
      <point x="54" y="578"/>
      <point x="144" y="641"/>
      <point x="234" y="641" type="curve" smooth="yes"/>
      <point x="325" y="641"/>
      <point x="417" y="576"/>
      <point x="417" y="446" type="curve" smooth="yes"/>
      <point x="417" y="391"/>
      <point x="402" y="341"/>
      <point x="368" y="301" type="curve"/>
      <point x="364" y="319" type="line"/>
      <point x="403" y="288" type="line"/>
      <point x="390" y="288" type="line"/>
      <point x="423" y="328"/>
      <point x="443" y="383"/>
      <point x="443" y="446" type="curve" smooth="yes"/>
      <point x="443" y="593"/>
      <point x="338" y="666"/>
      <point x="234" y="666" type="curve" smooth="yes"/>
      <point x="130" y="666"/>
      <point x="28" y="594"/>
      <point x="28" y="456" type="curve" smooth="yes"/>
      <point x="28" y="377"/>
      <point x="61" y="311"/>
    </contour>
  </outline>
</glyph>
<glyph name="ca-oriya.base" format="2">
  <advance width="482"/>
  <anchor x="331" y="110" name="bottom"/>
  <anchor x="239" y="658" name="top"/>
  <anchor x="409" y="658" name="topright"/>
  <outline>
    <contour>
      <point x="111" y="274" type="curve"/>
      <point x="118" y="297" type="line"/>
      <point x="80" y="334"/>
      <point x="54" y="397"/>
      <point x="54" y="454" type="curve" smooth="yes"/>
      <point x="54" y="566"/>
      <point x="128" y="641"/>
      <point x="240" y="641" type="curve" smooth="yes"/>
      <point x="353" y="641"/>
      <point x="428" y="563"/>
      <point x="428" y="446" type="curve" smooth="yes"/>
      <point x="428" y="394"/>
      <point x="409" y="337"/>
      <point x="380" y="303" type="curve"/>
      <point x="375" y="319" type="line"/>
      <point x="416" y="286" type="line"/>
      <point x="403" y="290" type="line"/>
      <point x="434" y="328"/>
      <point x="454" y="389"/>
      <point x="454" y="444" type="curve" smooth="yes"/>
      <point x="454" y="577"/>
      <point x="368" y="666"/>
      <point x="239" y="666" type="curve" smooth="yes"/>
      <point x="112" y="666"/>
      <point x="28" y="582"/>
      <point x="28" y="455" type="curve" smooth="yes"/>
      <point x="28" y="384"/>
      <point x="61" y="312"/>
    </contour>
    <contour>
      <point x="219" y="90" type="curve" smooth="yes"/>
      <point x="294" y="90"/>
      <point x="344" y="150"/>
      <point x="344" y="241" type="curve" smooth="yes"/>
      <point x="344" y="332"/>
      <point x="294" y="393"/>
      <point x="219" y="393" type="curve" smooth="yes"/>
      <point x="144" y="393"/>
      <point x="94" y="332"/>
      <point x="94" y="241" type="curve" smooth="yes"/>
      <point x="94" y="150"/>
      <point x="144" y="90"/>
    </contour>
    <contour>
      <point x="219" y="115" type="curve" smooth="yes"/>
      <point x="160" y="115"/>
      <point x="120" y="165"/>
      <point x="120" y="242" type="curve" smooth="yes"/>
      <point x="120" y="319"/>
      <point x="160" y="368"/>
      <point x="219" y="368" type="curve" smooth="yes"/>
      <point x="278" y="368"/>
      <point x="318" y="318"/>
      <point x="318" y="241" type="curve" smooth="yes"/>
      <point x="318" y="164"/>
      <point x="278" y="115"/>
    </contour>
  </outline>
</glyph>
<glyph name="ca-oriya.below" format="2">
  <note>
casubscriptorya
</note>
  <guideline x="145" y="159" angle="90"/>
  <anchor x="180" y="110" name="_bottom"/>
  <outline>
    <contour>
      <point x="63" y="-128" type="curve"/>
      <point x="75" y="-107" type="line"/>
      <point x="54" y="-83"/>
      <point x="43" y="-52"/>
      <point x="43" y="-21" type="curve" smooth="yes"/>
      <point x="43" y="36"/>
      <point x="74" y="93"/>
      <point x="144" y="93" type="curve" smooth="yes"/>
      <point x="214" y="93"/>
      <point x="245" y="36"/>
      <point x="245" y="-22" type="curve" smooth="yes"/>
      <point x="245" y="-53"/>
      <point x="236" y="-85"/>
      <point x="215" y="-112" type="curve"/>
      <point x="218" y="-94" type="line"/>
      <point x="251" y="-117" type="line"/>
      <point x="239" y="-120" type="line"/>
      <point x="261" y="-91"/>
      <point x="271" y="-56"/>
      <point x="271" y="-23" type="curve" smooth="yes"/>
      <point x="271" y="49"/>
      <point x="231" y="116"/>
      <point x="145" y="116" type="curve" smooth="yes"/>
      <point x="58" y="116"/>
      <point x="18" y="49"/>
      <point x="18" y="-20" type="curve" smooth="yes"/>
      <point x="18" y="-59"/>
      <point x="32" y="-99"/>
    </contour>
    <contour>
      <point x="138" y="-248" type="curve" smooth="yes"/>
      <point x="185" y="-248"/>
      <point x="217" y="-210"/>
      <point x="217" y="-152" type="curve" smooth="yes"/>
      <point x="217" y="-94"/>
      <point x="185" y="-56"/>
      <point x="138" y="-56" type="curve" smooth="yes"/>
      <point x="90" y="-56"/>
      <point x="59" y="-94"/>
      <point x="59" y="-152" type="curve" smooth="yes"/>
      <point x="59" y="-209"/>
      <point x="89" y="-248"/>
    </contour>
    <contour>
      <point x="138" y="-225" type="curve" smooth="yes"/>
      <point x="105" y="-225"/>
      <point x="84" y="-195"/>
      <point x="84" y="-151" type="curve" smooth="yes"/>
      <point x="84" y="-108"/>
      <point x="105" y="-79"/>
      <point x="138" y="-79" type="curve" smooth="yes"/>
      <point x="171" y="-79"/>
      <point x="192" y="-109"/>
      <point x="192" y="-152" type="curve" smooth="yes"/>
      <point x="192" y="-195"/>
      <point x="171" y="-225"/>
    </contour>
  </outline>
</glyph>
<glyph name="candraBindu-oriya.REV_BRACKET.141" format="2">
  <note>
candrabinduorya
</note>
  <guideline x="31" y="814" angle="0"/>
  <anchor x="300" y="658" name="_topright"/>
  <outline>
    <contour>
      <point x="298" y="704" type="curve" smooth="yes"/>
      <point x="373" y="704"/>
      <point x="422" y="766"/>
      <point x="430" y="870" type="curve"/>
      <point x="405" y="873" type="line"/>
      <point x="398" y="782"/>
      <point x="358" y="728"/>
      <point x="298" y="728" type="curve" smooth="yes"/>
      <point x="239" y="728"/>
      <point x="200" y="782"/>
      <point x="194" y="873" type="curve"/>
      <point x="169" y="870" type="line"/>
      <point x="176" y="766"/>
      <point x="225" y="704"/>
    </contour>
    <contour>
      <point x="298" y="816" type="curve" smooth="yes"/>
      <point x="309" y="816"/>
      <point x="316" y="825"/>
      <point x="316" y="839" type="curve" smooth="yes"/>
      <point x="316" y="853"/>
      <point x="309" y="863"/>
      <point x="298" y="863" type="curve" smooth="yes"/>
      <point x="287" y="863"/>
      <point x="280" y="853"/>
      <point x="280" y="839" type="curve" smooth="yes"/>
      <point x="280" y="825"/>
      <point x="287" y="816"/>
    </contour>
  </outline>
</glyph>
<glyph name="da-oriya.base" format="2">
  <advance width="505"/>
  <anchor x="330" y="110" name="bottom"/>
  <anchor x="250" y="658" name="top"/>
  <anchor x="432" y="658" name="topright"/>
  <outline>
    <contour>
      <point x="226" y="160" type="curve" smooth="yes"/>
      <point x="266" y="160"/>
      <point x="310" y="178"/>
      <point x="338" y="219" type="curve"/>
      <point x="323" y="238" type="line"/>
      <point x="301" y="201"/>
      <point x="263" y="185"/>
      <point x="228" y="185" type="curve" smooth="yes"/>
      <point x="180" y="185"/>
      <point x="137" y="216"/>
      <point x="137" y="270" type="curve" smooth="yes"/>
      <point x="137" y="313"/>
      <point x="162" y="365"/>
      <point x="208" y="400" type="curve"/>
      <point x="194" y="418" type="line"/>
      <point x="143" y="382"/>
      <point x="111" y="323"/>
      <point x="111" y="271" type="curve" smooth="yes"/>
      <point x="111" y="202"/>
      <point x="167" y="160"/>
    </contour>
    <contour>
      <point x="317" y="96" type="line"/>
      <point x="343" y="96" type="line"/>
      <point x="343" y="370" type="line"/>
      <point x="317" y="370" type="line"/>
      <point x="317" y="211" type="line"/>
      <point x="317" y="201" type="line"/>
    </contour>
    <contour>
      <point x="121" y="264" type="curve"/>
      <point x="126" y="293" type="line"/>
      <point x="81" y="326"/>
      <point x="54" y="385"/>
      <point x="54" y="453" type="curve" smooth="yes"/>
      <point x="54" y="562"/>
      <point x="134" y="641"/>
      <point x="252" y="641" type="curve" smooth="yes"/>
      <point x="371" y="641"/>
      <point x="451" y="560"/>
      <point x="451" y="440" type="curve" smooth="yes"/>
      <point x="451" y="396"/>
      <point x="440" y="341"/>
      <point x="406" y="304" type="curve"/>
      <point x="402" y="317" type="line"/>
      <point x="438" y="288" type="line"/>
      <point x="424" y="290" type="line"/>
      <point x="459" y="328"/>
      <point x="477" y="385"/>
      <point x="477" y="444" type="curve" smooth="yes"/>
      <point x="477" y="577"/>
      <point x="384" y="666"/>
      <point x="250" y="666" type="curve" smooth="yes"/>
      <point x="120" y="666"/>
      <point x="28" y="582"/>
      <point x="28" y="446" type="curve" smooth="yes"/>
      <point x="28" y="370"/>
      <point x="57" y="312"/>
    </contour>
  </outline>
</glyph>
<glyph name="da_dha_va-oriya" format="2">
  <advance width="557"/>
  <anchor x="386" y="0" name="bottom"/>
  <anchor x="482" y="0" name="bottom_ra"/>
  <anchor x="241.325" y="18.95" name="curve"/>
  <anchor x="278" y="658" name="top"/>
  <anchor x="484" y="658" name="topright"/>
  <anchor x="386" y="17.471" name="vertical"/>
  <outline>
    <contour>
      <point x="101" y="218" type="curve"/>
      <point x="104" y="253" type="line"/>
      <point x="71" y="301"/>
      <point x="54" y="355"/>
      <point x="54" y="410" type="curve" smooth="yes"/>
      <point x="54" y="539"/>
      <point x="144" y="641"/>
      <point x="278" y="641" type="curve" smooth="yes"/>
      <point x="411" y="641"/>
      <point x="503" y="541"/>
      <point x="503" y="406" type="curve" smooth="yes"/>
      <point x="503" y="351"/>
      <point x="488" y="292"/>
      <point x="457" y="248" type="curve"/>
      <point x="477" y="233" type="line"/>
      <point x="510" y="278"/>
      <point x="529" y="341"/>
      <point x="529" y="407" type="curve" smooth="yes"/>
      <point x="529" y="561"/>
      <point x="424" y="666"/>
      <point x="278" y="666" type="curve" smooth="yes"/>
      <point x="127" y="666"/>
      <point x="28" y="554"/>
      <point x="28" y="412" type="curve" smooth="yes"/>
      <point x="28" y="337"/>
      <point x="55" y="265"/>
    </contour>
    <contour>
      <point x="190" y="72" type="curve" smooth="yes"/>
      <point x="233" y="72"/>
      <point x="267" y="108"/>
      <point x="265" y="171" type="curve"/>
      <point x="253" y="167" type="line"/>
      <point x="253" y="108"/>
      <point x="289" y="72"/>
      <point x="330" y="72" type="curve" smooth="yes"/>
      <point x="359" y="72"/>
      <point x="388" y="89"/>
      <point x="400" y="119" type="curve"/>
      <point x="395" y="150" type="line"/>
      <point x="385" y="120"/>
      <point x="365" y="96"/>
      <point x="332" y="96" type="curve" smooth="yes"/>
      <point x="291" y="96"/>
      <point x="272" y="133"/>
      <point x="272" y="192" type="curve" smooth="yes"/>
      <point x="272" y="320" type="line"/>
      <point x="246" y="320" type="line"/>
      <point x="246" y="192" type="line" smooth="yes"/>
      <point x="246" y="132"/>
      <point x="224" y="96"/>
      <point x="189" y="96" type="curve" smooth="yes"/>
      <point x="144" y="96"/>
      <point x="123" y="156"/>
      <point x="123" y="212" type="curve" smooth="yes"/>
      <point x="123" y="264"/>
      <point x="141" y="326"/>
      <point x="180" y="362" type="curve"/>
      <point x="162" y="380" type="line"/>
      <point x="117" y="338"/>
      <point x="97" y="272"/>
      <point x="97" y="213" type="curve" smooth="yes"/>
      <point x="97" y="146"/>
      <point x="123" y="72"/>
    </contour>
    <contour>
      <point x="131" y="603" type="line"/>
      <point x="115" y="583" type="line"/>
      <point x="394" y="305" type="line"/>
      <point x="386" y="325" type="line"/>
      <point x="386" y="119" type="line"/>
      <point x="386" y="107" type="line"/>
      <point x="386" y="0" type="line"/>
      <point x="412" y="0" type="line"/>
      <point x="412" y="320" type="line"/>
    </contour>
    <contour>
      <point x="315" y="-168" type="curve" smooth="yes"/>
      <point x="349" y="-168"/>
      <point x="380" y="-154"/>
      <point x="401" y="-128" type="curve"/>
      <point x="398" y="-98" type="line"/>
      <point x="380" y="-127"/>
      <point x="349" y="-144"/>
      <point x="317" y="-144" type="curve" smooth="yes"/>
      <point x="271" y="-144"/>
      <point x="246" y="-108"/>
      <point x="246" y="-62" type="curve" smooth="yes"/>
      <point x="246" y="-38"/>
      <point x="254" y="-6"/>
      <point x="267" y="19" type="curve"/>
      <point x="276" y="4" type="line"/>
      <point x="230" y="24" type="line"/>
      <point x="245" y="27" type="line"/>
      <point x="230" y="-1"/>
      <point x="220" y="-36"/>
      <point x="220" y="-65" type="curve" smooth="yes"/>
      <point x="220" y="-121"/>
      <point x="253" y="-168"/>
    </contour>
    <contour>
      <point x="386" y="-244" type="line"/>
      <point x="412" y="-244" type="line"/>
      <point x="412" y="17" type="line"/>
      <point x="386" y="17" type="line"/>
      <point x="386" y="-129" type="line"/>
      <point x="386" y="-138" type="line"/>
    </contour>
  </outline>
</glyph>
<glyph name="da_ra_uMatra-oriya" format="2">
  <advance width="505"/>
  <anchor x="250" y="658" name="top"/>
  <anchor x="432" y="658" name="topright"/>
  <outline>
    <contour>
      <point x="226" y="160" type="curve" smooth="yes"/>
      <point x="266" y="160"/>
      <point x="310" y="178"/>
      <point x="338" y="219" type="curve"/>
      <point x="323" y="238" type="line"/>
      <point x="301" y="201"/>
      <point x="263" y="185"/>
      <point x="228" y="185" type="curve" smooth="yes"/>
      <point x="180" y="185"/>
      <point x="137" y="216"/>
      <point x="137" y="270" type="curve" smooth="yes"/>
      <point x="137" y="313"/>
      <point x="162" y="365"/>
      <point x="208" y="400" type="curve"/>
      <point x="194" y="418" type="line"/>
      <point x="143" y="382"/>
      <point x="111" y="323"/>
      <point x="111" y="271" type="curve" smooth="yes"/>
      <point x="111" y="202"/>
      <point x="167" y="160"/>
    </contour>
    <contour>
      <point x="121" y="264" type="curve"/>
      <point x="126" y="293" type="line"/>
      <point x="81" y="326"/>
      <point x="54" y="385"/>
      <point x="54" y="453" type="curve" smooth="yes"/>
      <point x="54" y="562"/>
      <point x="134" y="641"/>
      <point x="252" y="641" type="curve" smooth="yes"/>
      <point x="371" y="641"/>
      <point x="451" y="560"/>
      <point x="451" y="440" type="curve" smooth="yes"/>
      <point x="451" y="396"/>
      <point x="440" y="341"/>
      <point x="406" y="304" type="curve"/>
      <point x="402" y="317" type="line"/>
      <point x="438" y="288" type="line"/>
      <point x="424" y="290" type="line"/>
      <point x="459" y="328"/>
      <point x="477" y="385"/>
      <point x="477" y="444" type="curve" smooth="yes"/>
      <point x="477" y="577"/>
      <point x="384" y="666"/>
      <point x="250" y="666" type="curve" smooth="yes"/>
      <point x="120" y="666"/>
      <point x="28" y="582"/>
      <point x="28" y="446" type="curve" smooth="yes"/>
      <point x="28" y="370"/>
      <point x="57" y="312"/>
    </contour>
    <contour>
      <point x="317" y="370" type="line"/>
      <point x="317" y="25" type="line"/>
      <point x="39" y="25" type="line"/>
      <point x="39" y="0" type="line"/>
      <point x="343" y="0" type="line"/>
      <point x="343" y="370" type="line"/>
    </contour>
    <contour>
      <point x="141" y="-203" type="curve" smooth="yes"/>
      <point x="201" y="-203"/>
      <point x="273" y="-149"/>
      <point x="273" y="-18" type="curve" smooth="yes"/>
      <point x="273" y="8" type="line"/>
      <point x="247" y="8" type="line"/>
      <point x="247" y="-18" type="line" smooth="yes"/>
      <point x="247" y="-133"/>
      <point x="189" y="-178"/>
      <point x="142" y="-178" type="curve" smooth="yes"/>
      <point x="107" y="-178"/>
      <point x="90" y="-154"/>
      <point x="90" y="-129" type="curve" smooth="yes"/>
      <point x="90" y="-103"/>
      <point x="109" y="-79"/>
      <point x="144" y="-79" type="curve" smooth="yes"/>
      <point x="222" y="-79"/>
      <point x="256" y="-203"/>
      <point x="358" y="-203" type="curve" smooth="yes"/>
      <point x="378" y="-203"/>
      <point x="397" y="-198"/>
      <point x="412" y="-187" type="curve"/>
      <point x="404" y="-211" type="line"/>
      <point x="386" y="-151" type="line"/>
      <point x="403" y="-167" type="line"/>
      <point x="389" y="-174"/>
      <point x="371" y="-178"/>
      <point x="356" y="-178" type="curve" smooth="yes"/>
      <point x="270" y="-178"/>
      <point x="235" y="-54"/>
      <point x="141" y="-54" type="curve" smooth="yes"/>
      <point x="90" y="-54"/>
      <point x="64" y="-91"/>
      <point x="64" y="-128" type="curve" smooth="yes"/>
      <point x="64" y="-166"/>
      <point x="91" y="-203"/>
    </contour>
  </outline>
</glyph>
<glyph name="ha-oriya.REV_BRACKET.141" format="2">
  <advance width="507"/>
  <note>
haorya
</note>
  <anchor x="312" y="20" name="bottom"/>
  <anchor x="404" y="0" name="bottom_ra"/>
  <anchor x="254" y="658" name="top"/>
  <anchor x="434" y="658" name="topright"/>
  <outline>
    <contour>
      <point x="405" y="219" type="line"/>
      <point x="455" y="275"/>
      <point x="479" y="346"/>
      <point x="479" y="415" type="curve" smooth="yes"/>
      <point x="479" y="545"/>
      <point x="395" y="666"/>
      <point x="254" y="666" type="curve" smooth="yes"/>
      <point x="141" y="666"/>
      <point x="28" y="588"/>
      <point x="28" y="448" type="curve" smooth="yes"/>
      <point x="28" y="375"/>
      <point x="59" y="308"/>
      <point x="130" y="267" type="curve"/>
      <point x="132" y="297" type="line"/>
      <point x="79" y="329"/>
      <point x="54" y="385"/>
      <point x="54" y="447" type="curve" smooth="yes"/>
      <point x="54" y="571"/>
      <point x="154" y="641"/>
      <point x="254" y="641" type="curve" smooth="yes"/>
      <point x="379" y="641"/>
      <point x="453" y="530"/>
      <point x="453" y="413" type="curve" smooth="yes"/>
      <point x="453" y="350"/>
      <point x="431" y="284"/>
      <point x="383" y="234" type="curve"/>
      <point x="374" y="283" type="line"/>
      <point x="451" y="219" type="line"/>
    </contour>
    <contour>
      <point x="396" y="-14" type="line"/>
      <point x="404" y="9" type="line"/>
      <point x="104" y="122" type="line"/>
      <point x="107" y="106" type="line"/>
      <point x="187" y="187" type="line"/>
      <point x="164" y="197" type="line"/>
      <point x="87" y="120" type="line"/>
      <point x="88" y="101" type="line"/>
    </contour>
    <contour>
      <point x="225" y="176" type="curve" smooth="yes"/>
      <point x="266" y="176"/>
      <point x="307" y="196"/>
      <point x="333" y="240" type="curve"/>
      <point x="326" y="265" type="line"/>
      <point x="302" y="221"/>
      <point x="264" y="201"/>
      <point x="227" y="201" type="curve" smooth="yes"/>
      <point x="170" y="201"/>
      <point x="144" y="248"/>
      <point x="144" y="302" type="curve" smooth="yes"/>
      <point x="144" y="353"/>
      <point x="167" y="412"/>
      <point x="210" y="442" type="curve"/>
      <point x="195" y="461" type="line"/>
      <point x="144" y="423"/>
      <point x="118" y="360"/>
      <point x="118" y="303" type="curve" smooth="yes"/>
      <point x="118" y="235"/>
      <point x="154" y="176"/>
    </contour>
    <contour>
      <point x="312" y="116" type="line"/>
      <point x="338" y="116" type="line"/>
      <point x="338" y="406" type="line"/>
      <point x="312" y="406" type="line"/>
      <point x="312" y="235" type="line"/>
      <point x="312" y="226" type="line"/>
    </contour>
  </outline>
</glyph>
<glyph name="ha_ja-oriya" format="2">
  <advance width="472"/>
  <note>
hajaorya
</note>
  <guideline x="314" y="372" angle="90"/>
  <guideline x="374" y="372" angle="90"/>
  <anchor x="234" y="658" name="top"/>
  <anchor x="399" y="658" name="topright"/>
  <outline>
    <contour>
      <point x="303" y="98" type="line"/>
      <point x="331" y="111" type="line"/>
      <point x="102" y="202" type="line"/>
      <point x="106" y="187" type="line"/>
      <point x="180" y="257" type="line"/>
      <point x="157" y="266" type="line"/>
      <point x="85" y="199" type="line"/>
      <point x="86" y="183" type="line"/>
    </contour>
    <contour>
      <point x="216" y="247" type="curve" smooth="yes"/>
      <point x="256" y="247"/>
      <point x="288" y="261"/>
      <point x="313" y="297" type="curve"/>
      <point x="306" y="322" type="line"/>
      <point x="282" y="284"/>
      <point x="252" y="270"/>
      <point x="218" y="270" type="curve" smooth="yes"/>
      <point x="164" y="270"/>
      <point x="138" y="310"/>
      <point x="138" y="357" type="curve" smooth="yes"/>
      <point x="138" y="398"/>
      <point x="158" y="444"/>
      <point x="197" y="472" type="curve"/>
      <point x="182" y="490" type="line"/>
      <point x="136" y="459"/>
      <point x="112" y="406"/>
      <point x="112" y="357" type="curve" smooth="yes"/>
      <point x="112" y="299"/>
      <point x="146" y="247"/>
    </contour>
    <contour>
      <point x="288" y="195" type="line"/>
      <point x="314" y="195" type="line"/>
      <point x="314" y="443" type="line"/>
      <point x="288" y="443" type="line"/>
      <point x="288" y="288" type="line"/>
      <point x="288" y="280" type="line"/>
    </contour>
    <contour>
      <point x="375" y="283" type="line"/>
      <point x="422" y="329"/>
      <point x="444" y="390"/>
      <point x="444" y="453" type="curve" smooth="yes"/>
      <point x="444" y="592"/>
      <point x="338" y="666"/>
      <point x="234" y="666" type="curve" smooth="yes"/>
      <point x="137" y="666"/>
      <point x="28" y="601"/>
      <point x="28" y="481" type="curve" smooth="yes"/>
      <point x="28" y="419"/>
      <point x="58" y="355"/>
      <point x="127" y="321" type="curve"/>
      <point x="129" y="349" type="line"/>
      <point x="79" y="376"/>
      <point x="54" y="426"/>
      <point x="54" y="480" type="curve" smooth="yes"/>
      <point x="54" y="585"/>
      <point x="149" y="643"/>
      <point x="235" y="643" type="curve" smooth="yes"/>
      <point x="337" y="643"/>
      <point x="418" y="563"/>
      <point x="418" y="451" type="curve" smooth="yes"/>
      <point x="418" y="396"/>
      <point x="399" y="338"/>
      <point x="354" y="296" type="curve"/>
      <point x="343" y="340" type="line"/>
      <point x="417" y="283" type="line"/>
    </contour>
    <contour>
      <point x="203" y="-168" type="curve" smooth="yes"/>
      <point x="229" y="-168"/>
      <point x="258" y="-160"/>
      <point x="289" y="-145" type="curve"/>
      <point x="275" y="-161" type="line"/>
      <point x="258" y="-115"/>
      <point x="241" y="-65"/>
      <point x="241" y="-11" type="curve" smooth="yes"/>
      <point x="241" y="45"/>
      <point x="260" y="94"/>
      <point x="300" y="94" type="curve" smooth="yes"/>
      <point x="333" y="94"/>
      <point x="349" y="67"/>
      <point x="349" y="31" type="curve" smooth="yes"/>
      <point x="349" y="-164" type="line"/>
      <point x="374" y="-164" type="line"/>
      <point x="374" y="31" type="line" smooth="yes"/>
      <point x="374" y="43"/>
      <point x="372" y="116"/>
      <point x="303" y="116" type="curve" smooth="yes"/>
      <point x="241" y="116"/>
      <point x="216" y="59"/>
      <point x="216" y="-13" type="curve" smooth="yes"/>
      <point x="216" y="-66"/>
      <point x="229" y="-104"/>
      <point x="246" y="-153" type="curve"/>
      <point x="255" y="-134" type="line"/>
      <point x="238" y="-141"/>
      <point x="222" y="-145"/>
      <point x="205" y="-145" type="curve" smooth="yes"/>
      <point x="150" y="-145"/>
      <point x="118" y="-101"/>
      <point x="118" y="-37" type="curve" smooth="yes"/>
      <point x="118" y="27"/>
      <point x="156" y="82"/>
      <point x="198" y="128" type="curve"/>
      <point x="182" y="85" type="line"/>
      <point x="146" y="114" type="line"/>
      <point x="181" y="143" type="line"/>
      <point x="129" y="90"/>
      <point x="93" y="32"/>
      <point x="93" y="-39" type="curve" smooth="yes"/>
      <point x="93" y="-121"/>
      <point x="140" y="-168"/>
    </contour>
  </outline>
</glyph>
<glyph name="ha_va-oriya" format="2">
  <advance width="472"/>
  <note>
habaorya
</note>
  <guideline x="314" y="372" angle="90"/>
  <guideline x="374" y="372" angle="90"/>
  <anchor x="234" y="658" name="top"/>
  <anchor x="399" y="658" name="topright"/>
  <outline>
    <contour>
      <point x="366" y="91" type="line"/>
      <point x="374" y="112" type="line"/>
      <point x="102" y="202" type="line"/>
      <point x="106" y="187" type="line"/>
      <point x="180" y="257" type="line"/>
      <point x="157" y="266" type="line"/>
      <point x="85" y="199" type="line"/>
      <point x="86" y="183" type="line"/>
    </contour>
    <contour>
      <point x="216" y="247" type="curve" smooth="yes"/>
      <point x="256" y="247"/>
      <point x="288" y="261"/>
      <point x="313" y="297" type="curve"/>
      <point x="306" y="322" type="line"/>
      <point x="282" y="284"/>
      <point x="252" y="270"/>
      <point x="218" y="270" type="curve" smooth="yes"/>
      <point x="164" y="270"/>
      <point x="138" y="310"/>
      <point x="138" y="357" type="curve" smooth="yes"/>
      <point x="138" y="398"/>
      <point x="158" y="444"/>
      <point x="197" y="472" type="curve"/>
      <point x="182" y="490" type="line"/>
      <point x="136" y="459"/>
      <point x="112" y="406"/>
      <point x="112" y="357" type="curve" smooth="yes"/>
      <point x="112" y="299"/>
      <point x="146" y="247"/>
    </contour>
    <contour>
      <point x="288" y="195" type="line"/>
      <point x="314" y="195" type="line"/>
      <point x="314" y="443" type="line"/>
      <point x="288" y="443" type="line"/>
      <point x="288" y="288" type="line"/>
      <point x="288" y="280" type="line"/>
    </contour>
    <contour>
      <point x="375" y="283" type="line"/>
      <point x="422" y="329"/>
      <point x="444" y="390"/>
      <point x="444" y="453" type="curve" smooth="yes"/>
      <point x="444" y="592"/>
      <point x="338" y="666"/>
      <point x="234" y="666" type="curve" smooth="yes"/>
      <point x="137" y="666"/>
      <point x="28" y="601"/>
      <point x="28" y="481" type="curve" smooth="yes"/>
      <point x="28" y="419"/>
      <point x="58" y="355"/>
      <point x="127" y="321" type="curve"/>
      <point x="129" y="349" type="line"/>
      <point x="79" y="376"/>
      <point x="54" y="426"/>
      <point x="54" y="480" type="curve" smooth="yes"/>
      <point x="54" y="585"/>
      <point x="149" y="643"/>
      <point x="235" y="643" type="curve" smooth="yes"/>
      <point x="337" y="643"/>
      <point x="418" y="563"/>
      <point x="418" y="451" type="curve" smooth="yes"/>
      <point x="418" y="396"/>
      <point x="399" y="338"/>
      <point x="354" y="296" type="curve"/>
      <point x="343" y="340" type="line"/>
      <point x="417" y="283" type="line"/>
    </contour>
    <contour>
      <point x="277" y="-88" type="curve" smooth="yes"/>
      <point x="311" y="-88"/>
      <point x="342" y="-74"/>
      <point x="363" y="-48" type="curve"/>
      <point x="360" y="-18" type="line"/>
      <point x="342" y="-47"/>
      <point x="311" y="-64"/>
      <point x="279" y="-64" type="curve" smooth="yes"/>
      <point x="233" y="-64"/>
      <point x="208" y="-29"/>
      <point x="208" y="16" type="curve" smooth="yes"/>
      <point x="208" y="36"/>
      <point x="213" y="62"/>
      <point x="221" y="84" type="curve"/>
      <point x="230" y="69" type="line"/>
      <point x="182" y="84" type="line"/>
      <point x="198" y="90" type="line"/>
      <point x="188" y="64"/>
      <point x="182" y="37"/>
      <point x="182" y="14" type="curve" smooth="yes"/>
      <point x="182" y="-41"/>
      <point x="215" y="-88"/>
    </contour>
    <contour>
      <point x="348" y="-164" type="line"/>
      <point x="374" y="-164" type="line"/>
      <point x="374" y="112" type="line"/>
      <point x="348" y="112" type="line"/>
      <point x="348" y="-49" type="line"/>
      <point x="348" y="-58" type="line"/>
    </contour>
  </outline>
</glyph>
<glyph name="iMatra_reph-oriya.wide" format="2">
  <anchor x="300" y="658" name="_top"/>
  <outline>
    <contour>
      <point x="89" y="714" type="line"/>
      <point x="136" y="779"/>
      <point x="218" y="811"/>
      <point x="301" y="811" type="curve" smooth="yes"/>
      <point x="383" y="811"/>
      <point x="465" y="779"/>
      <point x="513" y="714" type="curve"/>
      <point x="533" y="728" type="line"/>
      <point x="481" y="800"/>
      <point x="391" y="836"/>
      <point x="301" y="836" type="curve" smooth="yes"/>
      <point x="211" y="836"/>
      <point x="121" y="800"/>
      <point x="69" y="728" type="curve"/>
    </contour>
    <contour>
      <point x="406" y="805" type="line"/>
      <point x="538" y="952" type="line"/>
      <point x="521" y="967" type="line"/>
      <point x="385" y="815" type="line"/>
    </contour>
  </outline>
</glyph>
<glyph name="ja-oriya.REV_BRACKET.141" format="2">
  <advance width="544"/>
  <note>
jaorya
</note>
  <anchor x="388" y="0" name="bottom"/>
  <anchor x="414" y="0" name="bottom_ra"/>
  <anchor x="274" y="658" name="top"/>
  <anchor x="471" y="658" name="topright"/>
  <outline>
    <contour>
      <point x="223" y="-8" type="curve" smooth="yes"/>
      <point x="252" y="-8"/>
      <point x="285" y="0"/>
      <point x="320" y="18" type="curve"/>
      <point x="304" y="3" type="line"/>
      <point x="268" y="77"/>
      <point x="263" y="144"/>
      <point x="263" y="182" type="curve" smooth="yes"/>
      <point x="263" y="273"/>
      <point x="286" y="322"/>
      <point x="329" y="322" type="curve" smooth="yes"/>
      <point x="368" y="322"/>
      <point x="388" y="292"/>
      <point x="388" y="238" type="curve" smooth="yes"/>
      <point x="388" y="0" type="line"/>
      <point x="414" y="0" type="line"/>
      <point x="414" y="238" type="line" smooth="yes"/>
      <point x="414" y="304"/>
      <point x="390" y="347"/>
      <point x="330" y="347" type="curve" smooth="yes"/>
      <point x="265" y="347"/>
      <point x="237" y="278"/>
      <point x="237" y="185" type="curve" smooth="yes"/>
      <point x="237" y="137"/>
      <point x="247" y="68"/>
      <point x="274" y="10" type="curve"/>
      <point x="287" y="30" type="line"/>
      <point x="265" y="21"/>
      <point x="245" y="17"/>
      <point x="227" y="17" type="curve" smooth="yes"/>
      <point x="161" y="17"/>
      <point x="118" y="69"/>
      <point x="118" y="155" type="curve" smooth="yes"/>
      <point x="118" y="227"/>
      <point x="148" y="299"/>
      <point x="207" y="362" type="curve"/>
      <point x="210" y="348" type="line"/>
      <point x="174" y="380" type="line"/>
      <point x="188" y="378" type="line"/>
      <point x="130" y="316"/>
      <point x="92" y="239"/>
      <point x="92" y="151" type="curve" smooth="yes"/>
      <point x="92" y="51"/>
      <point x="146" y="-8"/>
    </contour>
    <contour>
      <point x="106" y="219" type="curve"/>
      <point x="113" y="252" type="line"/>
      <point x="77" y="297"/>
      <point x="54" y="352"/>
      <point x="54" y="413" type="curve" smooth="yes"/>
      <point x="54" y="539"/>
      <point x="148" y="641"/>
      <point x="272" y="641" type="curve" smooth="yes"/>
      <point x="399" y="641"/>
      <point x="490" y="541"/>
      <point x="490" y="406" type="curve" smooth="yes"/>
      <point x="490" y="348"/>
      <point x="474" y="286"/>
      <point x="440" y="242" type="curve"/>
      <point x="435" y="255" type="line"/>
      <point x="473" y="226" type="line"/>
      <point x="460" y="227" type="line"/>
      <point x="495" y="273"/>
      <point x="516" y="338"/>
      <point x="516" y="407" type="curve" smooth="yes"/>
      <point x="516" y="561"/>
      <point x="412" y="666"/>
      <point x="274" y="666" type="curve" smooth="yes"/>
      <point x="131" y="666"/>
      <point x="28" y="554"/>
      <point x="28" y="414" type="curve" smooth="yes"/>
      <point x="28" y="339"/>
      <point x="58" y="268"/>
    </contour>
  </outline>
</glyph>
<glyph name="ja-oriya.below" format="2">
  <note>
jasubscriptorya
</note>
  <guideline x="210" y="124" angle="0"/>
  <guideline x="157" y="206" angle="90"/>
  <guideline x="89" y="113" angle="0"/>
  <anchor x="187" y="110" name="_bottom"/>
  <outline>
    <contour>
      <point x="128" y="-168" type="curve" smooth="yes"/>
      <point x="154" y="-168"/>
      <point x="183" y="-160"/>
      <point x="214" y="-145" type="curve"/>
      <point x="200" y="-161" type="line"/>
      <point x="183" y="-115"/>
      <point x="166" y="-65"/>
      <point x="166" y="-11" type="curve" smooth="yes"/>
      <point x="166" y="45"/>
      <point x="185" y="94"/>
      <point x="225" y="94" type="curve" smooth="yes"/>
      <point x="258" y="94"/>
      <point x="273" y="67"/>
      <point x="273" y="31" type="curve" smooth="yes"/>
      <point x="273" y="-164" type="line"/>
      <point x="299" y="-164" type="line"/>
      <point x="299" y="31" type="line" smooth="yes"/>
      <point x="299" y="43"/>
      <point x="297" y="116"/>
      <point x="228" y="116" type="curve" smooth="yes"/>
      <point x="166" y="116"/>
      <point x="141" y="59"/>
      <point x="141" y="-13" type="curve" smooth="yes"/>
      <point x="141" y="-66"/>
      <point x="154" y="-104"/>
      <point x="171" y="-153" type="curve"/>
      <point x="180" y="-134" type="line"/>
      <point x="163" y="-141"/>
      <point x="147" y="-145"/>
      <point x="130" y="-145" type="curve" smooth="yes"/>
      <point x="75" y="-145"/>
      <point x="43" y="-101"/>
      <point x="43" y="-37" type="curve" smooth="yes"/>
      <point x="43" y="27"/>
      <point x="82" y="83"/>
      <point x="123" y="128" type="curve"/>
      <point x="111" y="91" type="line"/>
      <point x="67" y="121" type="line"/>
      <point x="106" y="143" type="line"/>
      <point x="54" y="90"/>
      <point x="18" y="32"/>
      <point x="18" y="-39" type="curve" smooth="yes"/>
      <point x="18" y="-121"/>
      <point x="65" y="-168"/>
    </contour>
  </outline>
</glyph>
<glyph name="ja_ja_va-oriya" format="2">
  <advance width="603"/>
  <guideline x="383" y="177" angle="90"/>
  <guideline x="443" y="173" angle="90"/>
  <anchor x="251" y="658" name="top"/>
  <anchor x="432" y="658" name="topright"/>
  <outline>
    <contour>
      <point x="545" y="-244" type="line"/>
      <point x="571" y="-244" type="line"/>
      <point x="571" y="60" type="line"/>
      <point x="545" y="60" type="line"/>
      <point x="545" y="-166" type="line"/>
      <point x="545" y="-175" type="line"/>
    </contour>
    <contour>
      <point x="417" y="-110" type="line" smooth="yes"/>
      <point x="417" y="-173"/>
      <point x="453" y="-204"/>
      <point x="495" y="-204" type="curve" smooth="yes"/>
      <point x="518" y="-204"/>
      <point x="544" y="-194"/>
      <point x="562" y="-173" type="curve"/>
      <point x="556" y="-144" type="line"/>
      <point x="544" y="-166"/>
      <point x="520" y="-179"/>
      <point x="498" y="-179" type="curve" smooth="yes"/>
      <point x="468" y="-179"/>
      <point x="443" y="-157"/>
      <point x="443" y="-110" type="curve" smooth="yes"/>
      <point x="443" y="31" type="line" smooth="yes"/>
      <point x="443" y="74"/>
      <point x="423" y="116"/>
      <point x="371" y="116" type="curve" smooth="yes"/>
      <point x="311" y="116"/>
      <point x="284" y="59"/>
      <point x="284" y="-13" type="curve" smooth="yes"/>
      <point x="284" y="-66"/>
      <point x="297" y="-104"/>
      <point x="314" y="-153" type="curve"/>
      <point x="323" y="-134" type="line"/>
      <point x="306" y="-141"/>
      <point x="290" y="-145"/>
      <point x="275" y="-145" type="curve" smooth="yes"/>
      <point x="222" y="-145"/>
      <point x="186" y="-100"/>
      <point x="186" y="-35" type="curve" smooth="yes"/>
      <point x="186" y="16"/>
      <point x="207" y="59"/>
      <point x="241" y="100" type="curve"/>
      <point x="211" y="103" type="line"/>
      <point x="180" y="62"/>
      <point x="161" y="14"/>
      <point x="161" y="-39" type="curve" smooth="yes"/>
      <point x="161" y="-121"/>
      <point x="206" y="-168"/>
      <point x="271" y="-168" type="curve" smooth="yes"/>
      <point x="297" y="-168"/>
      <point x="326" y="-160"/>
      <point x="357" y="-145" type="curve"/>
      <point x="343" y="-161" type="line"/>
      <point x="326" y="-115"/>
      <point x="309" y="-65"/>
      <point x="309" y="-11" type="curve" smooth="yes"/>
      <point x="309" y="44"/>
      <point x="327" y="94"/>
      <point x="370" y="94" type="curve" smooth="yes"/>
      <point x="397" y="94"/>
      <point x="417" y="75"/>
      <point x="417" y="31" type="curve" smooth="yes"/>
    </contour>
    <contour>
      <point x="213" y="90" type="curve" smooth="yes"/>
      <point x="243" y="90"/>
      <point x="274" y="98"/>
      <point x="308" y="113" type="curve"/>
      <point x="279" y="100" type="line"/>
      <point x="263" y="142"/>
      <point x="245" y="192"/>
      <point x="245" y="254" type="curve" smooth="yes"/>
      <point x="245" y="317"/>
      <point x="258" y="368"/>
      <point x="308" y="368" type="curve" smooth="yes"/>
      <point x="357" y="368"/>
      <point x="357" y="321"/>
      <point x="357" y="299" type="curve" smooth="yes"/>
      <point x="357" y="96" type="line"/>
      <point x="383" y="96" type="line"/>
      <point x="383" y="299" type="line" smooth="yes"/>
      <point x="383" y="356"/>
      <point x="358" y="393"/>
      <point x="309" y="393" type="curve" smooth="yes"/>
      <point x="243" y="393"/>
      <point x="219" y="330"/>
      <point x="219" y="255" type="curve" smooth="yes"/>
      <point x="219" y="195"/>
      <point x="237" y="144"/>
      <point x="252" y="105" type="curve"/>
      <point x="268" y="124" type="line"/>
      <point x="250" y="118"/>
      <point x="230" y="115"/>
      <point x="216" y="115" type="curve" smooth="yes"/>
      <point x="155" y="115"/>
      <point x="114" y="152"/>
      <point x="114" y="227" type="curve" smooth="yes"/>
      <point x="114" y="293"/>
      <point x="143" y="347"/>
      <point x="190" y="399" type="curve"/>
      <point x="172" y="414" type="line"/>
      <point x="122" y="365"/>
      <point x="88" y="299"/>
      <point x="88" y="225" type="curve" smooth="yes"/>
      <point x="88" y="137"/>
      <point x="139" y="90"/>
    </contour>
    <contour>
      <point x="100" y="286" type="curve"/>
      <point x="107" y="314" type="line"/>
      <point x="75" y="352"/>
      <point x="54" y="397"/>
      <point x="54" y="453" type="curve" smooth="yes"/>
      <point x="54" y="562"/>
      <point x="134" y="641"/>
      <point x="252" y="641" type="curve" smooth="yes"/>
      <point x="371" y="641"/>
      <point x="451" y="560"/>
      <point x="451" y="440" type="curve" smooth="yes"/>
      <point x="451" y="396"/>
      <point x="440" y="341"/>
      <point x="406" y="304" type="curve"/>
      <point x="402" y="317" type="line"/>
      <point x="438" y="288" type="line"/>
      <point x="424" y="290" type="line"/>
      <point x="459" y="328"/>
      <point x="477" y="385"/>
      <point x="477" y="444" type="curve" smooth="yes"/>
      <point x="477" y="577"/>
      <point x="384" y="666"/>
      <point x="251" y="666" type="curve" smooth="yes"/>
      <point x="120" y="666"/>
      <point x="28" y="579"/>
      <point x="28" y="455" type="curve" smooth="yes"/>
      <point x="28" y="387"/>
      <point x="56" y="328"/>
    </contour>
  </outline>
</glyph>
<glyph name="ja_va-oriya" format="2">
  <advance width="505"/>
  <anchor x="251" y="658" name="top"/>
  <anchor x="432" y="658" name="topright"/>
  <outline>
    <contour>
      <point x="100" y="286" type="curve"/>
      <point x="107" y="314" type="line"/>
      <point x="75" y="352"/>
      <point x="54" y="397"/>
      <point x="54" y="453" type="curve" smooth="yes"/>
      <point x="54" y="562"/>
      <point x="134" y="641"/>
      <point x="252" y="641" type="curve" smooth="yes"/>
      <point x="371" y="641"/>
      <point x="451" y="560"/>
      <point x="451" y="440" type="curve" smooth="yes"/>
      <point x="451" y="396"/>
      <point x="440" y="341"/>
      <point x="406" y="304" type="curve"/>
      <point x="402" y="317" type="line"/>
      <point x="438" y="288" type="line"/>
      <point x="424" y="290" type="line"/>
      <point x="459" y="328"/>
      <point x="477" y="385"/>
      <point x="477" y="444" type="curve" smooth="yes"/>
      <point x="477" y="577"/>
      <point x="384" y="666"/>
      <point x="251" y="666" type="curve" smooth="yes"/>
      <point x="120" y="666"/>
      <point x="28" y="579"/>
      <point x="28" y="455" type="curve" smooth="yes"/>
      <point x="28" y="387"/>
      <point x="56" y="328"/>
    </contour>
    <contour>
      <point x="286" y="-168" type="curve" smooth="yes"/>
      <point x="320" y="-168"/>
      <point x="351" y="-154"/>
      <point x="372" y="-128" type="curve"/>
      <point x="369" y="-98" type="line"/>
      <point x="351" y="-127"/>
      <point x="320" y="-144"/>
      <point x="288" y="-144" type="curve" smooth="yes"/>
      <point x="242" y="-144"/>
      <point x="217" y="-108"/>
      <point x="217" y="-62" type="curve" smooth="yes"/>
      <point x="217" y="-38"/>
      <point x="225" y="-6"/>
      <point x="238" y="19" type="curve"/>
      <point x="247" y="4" type="line"/>
      <point x="201" y="24" type="line"/>
      <point x="216" y="27" type="line"/>
      <point x="201" y="-1"/>
      <point x="191" y="-36"/>
      <point x="191" y="-65" type="curve" smooth="yes"/>
      <point x="191" y="-121"/>
      <point x="224" y="-168"/>
    </contour>
    <contour>
      <point x="383" y="-244" type="line"/>
      <point x="383" y="299" type="line" smooth="yes"/>
      <point x="383" y="356"/>
      <point x="358" y="393"/>
      <point x="309" y="393" type="curve" smooth="yes"/>
      <point x="243" y="393"/>
      <point x="219" y="330"/>
      <point x="219" y="255" type="curve" smooth="yes"/>
      <point x="219" y="195"/>
      <point x="237" y="144"/>
      <point x="252" y="105" type="curve"/>
      <point x="268" y="124" type="line"/>
      <point x="250" y="118"/>
      <point x="230" y="115"/>
      <point x="216" y="115" type="curve" smooth="yes"/>
      <point x="155" y="115"/>
      <point x="114" y="152"/>
      <point x="114" y="227" type="curve" smooth="yes"/>
      <point x="114" y="293"/>
      <point x="143" y="347"/>
      <point x="190" y="399" type="curve"/>
      <point x="172" y="414" type="line"/>
      <point x="122" y="365"/>
      <point x="88" y="299"/>
      <point x="88" y="225" type="curve" smooth="yes"/>
      <point x="88" y="137"/>
      <point x="139" y="90"/>
      <point x="213" y="90" type="curve" smooth="yes"/>
      <point x="243" y="90"/>
      <point x="274" y="98"/>
      <point x="308" y="113" type="curve"/>
      <point x="279" y="100" type="line"/>
      <point x="263" y="142"/>
      <point x="245" y="192"/>
      <point x="245" y="254" type="curve" smooth="yes"/>
      <point x="245" y="317"/>
      <point x="258" y="368"/>
      <point x="308" y="368" type="curve" smooth="yes"/>
      <point x="357" y="368"/>
      <point x="357" y="321"/>
      <point x="357" y="299" type="curve" smooth="yes"/>
      <point x="357" y="-129" type="line"/>
      <point x="357" y="-138" type="line"/>
      <point x="357" y="-244" type="line"/>
    </contour>
  </outline>
</glyph>
<glyph name="jha-oriya.base" format="2">
  <advance width="465"/>
  <guideline x="459" y="727" angle="90"/>
  <anchor x="330" y="110" name="bottom"/>
  <anchor x="266" y="658" name="top"/>
  <anchor x="414" y="658" name="topright"/>
  <outline>
    <contour>
      <point x="111" y="275" type="curve"/>
      <point x="120" y="300" type="line"/>
      <point x="75" y="336"/>
      <point x="54" y="389"/>
      <point x="54" y="445" type="curve" smooth="yes"/>
      <point x="54" y="557"/>
      <point x="129" y="643"/>
      <point x="250" y="643" type="curve" smooth="yes"/>
      <point x="259" y="643"/>
      <point x="269" y="643"/>
      <point x="279" y="643" type="curve"/>
      <point x="279" y="666" type="line"/>
      <point x="270" y="666"/>
      <point x="260" y="666"/>
      <point x="252" y="666" type="curve" smooth="yes"/>
      <point x="111" y="666"/>
      <point x="28" y="568"/>
      <point x="28" y="449" type="curve" smooth="yes"/>
      <point x="28" y="378"/>
      <point x="59" y="317"/>
    </contour>
    <contour>
      <point x="386" y="56" type="line"/>
      <point x="442" y="135" type="line"/>
      <point x="446" y="90" type="line"/>
      <point x="317" y="176" type="line"/>
      <point x="306" y="157" type="line"/>
      <point x="437" y="69" type="line"/>
    </contour>
    <contour>
      <point x="345" y="423" type="curve" smooth="yes"/>
      <point x="402" y="423"/>
      <point x="459" y="462"/>
      <point x="459" y="541" type="curve" smooth="yes"/>
      <point x="459" y="593"/>
      <point x="433" y="653"/>
      <point x="388" y="680" type="curve"/>
      <point x="438" y="697" type="line"/>
      <point x="365" y="624" type="line"/>
      <point x="374" y="662" type="line"/>
      <point x="413" y="633"/>
      <point x="433" y="588"/>
      <point x="433" y="544" type="curve" smooth="yes"/>
      <point x="433" y="471"/>
      <point x="387" y="446"/>
      <point x="345" y="446" type="curve" smooth="yes"/>
      <point x="295" y="446"/>
      <point x="255" y="481"/>
      <point x="255" y="542" type="curve" smooth="yes"/>
      <point x="255" y="582"/>
      <point x="268" y="621"/>
      <point x="292" y="650" type="curve"/>
      <point x="279" y="666" type="line"/>
      <point x="245" y="633"/>
      <point x="229" y="587"/>
      <point x="229" y="543" type="curve" smooth="yes"/>
      <point x="229" y="463"/>
      <point x="287" y="423"/>
    </contour>
    <contour>
      <point x="220" y="90" type="curve" smooth="yes"/>
      <point x="297" y="90"/>
      <point x="343" y="150"/>
      <point x="343" y="242" type="curve" smooth="yes"/>
      <point x="343" y="333"/>
      <point x="296" y="393"/>
      <point x="220" y="393" type="curve" smooth="yes"/>
      <point x="142" y="393"/>
      <point x="94" y="333"/>
      <point x="94" y="242" type="curve" smooth="yes"/>
      <point x="94" y="149"/>
      <point x="144" y="90"/>
    </contour>
    <contour>
      <point x="221" y="115" type="curve" smooth="yes"/>
      <point x="160" y="115"/>
      <point x="120" y="164"/>
      <point x="120" y="243" type="curve" smooth="yes"/>
      <point x="120" y="321"/>
      <point x="159" y="368"/>
      <point x="220" y="368" type="curve" smooth="yes"/>
      <point x="280" y="368"/>
      <point x="317" y="320"/>
      <point x="317" y="242" type="curve" smooth="yes"/>
      <point x="317" y="164"/>
      <point x="281" y="115"/>
    </contour>
  </outline>
</glyph>
<glyph name="jha-oriya.below" format="2">
  <note>
jhasubscriptorya
</note>
  <guideline x="154" y="155" angle="90"/>
  <anchor x="150" y="110" name="_bottom"/>
  <outline>
    <contour>
      <point x="68" y="-132" type="curve"/>
      <point x="81" y="-110" type="line"/>
      <point x="56" y="-82"/>
      <point x="43" y="-53"/>
      <point x="43" y="-20" type="curve" smooth="yes"/>
      <point x="43" y="47"/>
      <point x="94" y="93"/>
      <point x="158" y="93" type="curve" smooth="yes"/>
      <point x="168" y="93"/>
      <point x="177" y="92"/>
      <point x="179" y="90" type="curve"/>
      <point x="177" y="116" type="line"/>
      <point x="170" y="116"/>
      <point x="162" y="116"/>
      <point x="155" y="116" type="curve" smooth="yes"/>
      <point x="87" y="116"/>
      <point x="18" y="69"/>
      <point x="18" y="-22" type="curve" smooth="yes"/>
      <point x="18" y="-64"/>
      <point x="33" y="-101"/>
    </contour>
    <contour>
      <point x="245" y="-268" type="line"/>
      <point x="276" y="-221" type="line"/>
      <point x="286" y="-235" type="line"/>
      <point x="199" y="-183" type="line"/>
      <point x="190" y="-204" type="line"/>
      <point x="276" y="-260" type="line"/>
    </contour>
    <contour>
      <point x="217" y="-38" type="curve" smooth="yes"/>
      <point x="261" y="-38"/>
      <point x="290" y="-7"/>
      <point x="290" y="39" type="curve" smooth="yes"/>
      <point x="290" y="66"/>
      <point x="279" y="107"/>
      <point x="244" y="126" type="curve"/>
      <point x="275" y="131" type="line"/>
      <point x="228" y="88" type="line"/>
      <point x="234" y="107" type="line"/>
      <point x="260" y="88"/>
      <point x="265" y="62"/>
      <point x="265" y="42" type="curve" smooth="yes"/>
      <point x="265" y="11"/>
      <point x="247" y="-15"/>
      <point x="217" y="-15" type="curve" smooth="yes"/>
      <point x="185" y="-15"/>
      <point x="170" y="12"/>
      <point x="170" y="42" type="curve" smooth="yes"/>
      <point x="170" y="61"/>
      <point x="178" y="82"/>
      <point x="190" y="100" type="curve"/>
      <point x="177" y="116" type="line"/>
      <point x="155" y="93"/>
      <point x="145" y="70"/>
      <point x="145" y="38" type="curve" smooth="yes"/>
      <point x="145" y="-8"/>
      <point x="174" y="-38"/>
    </contour>
    <contour>
      <point x="138" y="-248" type="curve" smooth="yes"/>
      <point x="185" y="-248"/>
      <point x="217" y="-210"/>
      <point x="217" y="-152" type="curve" smooth="yes"/>
      <point x="217" y="-94"/>
      <point x="185" y="-56"/>
      <point x="138" y="-56" type="curve" smooth="yes"/>
      <point x="90" y="-56"/>
      <point x="59" y="-94"/>
      <point x="59" y="-152" type="curve" smooth="yes"/>
      <point x="59" y="-209"/>
      <point x="89" y="-248"/>
    </contour>
    <contour>
      <point x="138" y="-225" type="curve" smooth="yes"/>
      <point x="105" y="-225"/>
      <point x="84" y="-195"/>
      <point x="84" y="-151" type="curve" smooth="yes"/>
      <point x="84" y="-108"/>
      <point x="105" y="-79"/>
      <point x="138" y="-79" type="curve" smooth="yes"/>
      <point x="171" y="-79"/>
      <point x="192" y="-109"/>
      <point x="192" y="-152" type="curve" smooth="yes"/>
      <point x="192" y="-195"/>
      <point x="171" y="-225"/>
    </contour>
  </outline>
</glyph>
<glyph name="ka-oriya.REV_BRACKET.141" format="2">
  <advance width="544"/>
  <note>
kaorya
</note>
  <anchor x="388" y="0" name="bottom"/>
  <anchor x="414" y="0" name="bottom_ra"/>
  <anchor x="414" y="10" name="bottom_ta"/>
  <anchor x="274" y="658" name="top"/>
  <anchor x="471" y="658" name="topright"/>
  <outline>
    <contour>
      <point x="97" y="229" type="curve"/>
      <point x="103" y="265" type="line"/>
      <point x="73" y="306"/>
      <point x="54" y="357"/>
      <point x="54" y="413" type="curve" smooth="yes"/>
      <point x="54" y="539"/>
      <point x="148" y="641"/>
      <point x="272" y="641" type="curve" smooth="yes"/>
      <point x="399" y="641"/>
      <point x="490" y="541"/>
      <point x="490" y="406" type="curve" smooth="yes"/>
      <point x="490" y="348"/>
      <point x="474" y="286"/>
      <point x="440" y="242" type="curve"/>
      <point x="435" y="255" type="line"/>
      <point x="473" y="226" type="line"/>
      <point x="460" y="227" type="line"/>
      <point x="495" y="273"/>
      <point x="516" y="338"/>
      <point x="516" y="407" type="curve" smooth="yes"/>
      <point x="516" y="561"/>
      <point x="412" y="666"/>
      <point x="274" y="666" type="curve" smooth="yes"/>
      <point x="131" y="666"/>
      <point x="28" y="554"/>
      <point x="28" y="414" type="curve" smooth="yes"/>
      <point x="28" y="343"/>
      <point x="55" y="275"/>
    </contour>
    <contour>
      <point x="184" y="84" type="curve" smooth="yes"/>
      <point x="239" y="84"/>
      <point x="273" y="133"/>
      <point x="273" y="216" type="curve" smooth="yes"/>
      <point x="273" y="298"/>
      <point x="239" y="346"/>
      <point x="184" y="346" type="curve" smooth="yes"/>
      <point x="128" y="346"/>
      <point x="93" y="297"/>
      <point x="93" y="215" type="curve" smooth="yes"/>
      <point x="93" y="133"/>
      <point x="128" y="84"/>
    </contour>
    <contour>
      <point x="185" y="109" type="curve" smooth="yes"/>
      <point x="145" y="109"/>
      <point x="119" y="148"/>
      <point x="119" y="214" type="curve" smooth="yes"/>
      <point x="119" y="281"/>
      <point x="144" y="321"/>
      <point x="184" y="321" type="curve" smooth="yes"/>
      <point x="224" y="321"/>
      <point x="249" y="282"/>
      <point x="249" y="215" type="curve" smooth="yes"/>
      <point x="249" y="148"/>
      <point x="224" y="109"/>
    </contour>
    <contour>
      <point x="249" y="0" type="line"/>
      <point x="275" y="0" type="line"/>
      <point x="275" y="226" type="line" smooth="yes"/>
      <point x="275" y="288"/>
      <point x="294" y="321"/>
      <point x="331" y="321" type="curve" smooth="yes"/>
      <point x="368" y="321"/>
      <point x="388" y="288"/>
      <point x="388" y="226" type="curve" smooth="yes"/>
      <point x="388" y="0" type="line"/>
      <point x="414" y="0" type="line"/>
      <point x="414" y="226" type="line" smooth="yes"/>
      <point x="414" y="305"/>
      <point x="387" y="346"/>
      <point x="334" y="346" type="curve" smooth="yes"/>
      <point x="279" y="346"/>
      <point x="251" y="305"/>
      <point x="251" y="226" type="curve"/>
      <point x="249" y="161" type="line"/>
    </contour>
  </outline>
</glyph>
<glyph name="ka_ta_ra-oriya" format="2">
  <advance width="589"/>
  <guideline x="680" y="-188" angle="0"/>
  <anchor x="267" y="658" name="top"/>
  <anchor x="469" y="658" name="topright"/>
  <outline>
    <contour>
      <point x="96" y="285" type="curve"/>
      <point x="99" y="320" type="line"/>
      <point x="71" y="356"/>
      <point x="54" y="409"/>
      <point x="54" y="458" type="curve" smooth="yes"/>
      <point x="54" y="579"/>
      <point x="158" y="641"/>
      <point x="263" y="641" type="curve" smooth="yes"/>
      <point x="375" y="641"/>
      <point x="488" y="570"/>
      <point x="488" y="421" type="curve" smooth="yes"/>
      <point x="488" y="378"/>
      <point x="477" y="319"/>
      <point x="455" y="274" type="curve"/>
      <point x="483" y="275" type="line"/>
      <point x="504" y="323"/>
      <point x="514" y="380"/>
      <point x="514" y="423" type="curve" smooth="yes"/>
      <point x="514" y="586"/>
      <point x="389" y="666"/>
      <point x="264" y="666" type="curve" smooth="yes"/>
      <point x="146" y="666"/>
      <point x="28" y="595"/>
      <point x="28" y="456" type="curve" smooth="yes"/>
      <point x="28" y="391"/>
      <point x="53" y="327"/>
    </contour>
    <contour>
      <point x="149" y="-84" type="line"/>
      <point x="161" y="-32" type="line"/>
      <point x="207" y="-51"/>
      <point x="253" y="-60"/>
      <point x="303" y="-60" type="curve" smooth="yes"/>
      <point x="502" y="-60"/>
      <point x="561" y="81"/>
      <point x="561" y="180" type="curve" smooth="yes"/>
      <point x="561" y="250"/>
      <point x="532" y="293"/>
      <point x="488" y="293" type="curve" smooth="yes"/>
      <point x="447" y="293"/>
      <point x="417" y="254"/>
      <point x="417" y="198" type="curve" smooth="yes"/>
      <point x="417" y="142"/>
      <point x="447" y="102"/>
      <point x="487" y="102" type="curve" smooth="yes"/>
      <point x="529" y="102"/>
      <point x="556" y="145"/>
      <point x="556" y="203" type="curve"/>
      <point x="536" y="157" type="line"/>
      <point x="520" y="25"/>
      <point x="421" y="-35"/>
      <point x="306" y="-35" type="curve" smooth="yes"/>
      <point x="250" y="-35"/>
      <point x="198" y="-22"/>
      <point x="145" y="3" type="curve"/>
      <point x="196" y="35" type="line"/>
    </contour>
    <contour>
      <point x="492" y="127" type="curve" smooth="yes"/>
      <point x="462" y="127"/>
      <point x="443" y="154"/>
      <point x="443" y="198" type="curve" smooth="yes"/>
      <point x="443" y="242"/>
      <point x="461" y="268"/>
      <point x="490" y="268" type="curve" smooth="yes"/>
      <point x="518" y="268"/>
      <point x="535" y="241"/>
      <point x="535" y="197" type="curve" smooth="yes"/>
      <point x="535" y="153"/>
      <point x="519" y="127"/>
    </contour>
    <contour>
      <point x="163" y="169" type="curve" smooth="yes"/>
      <point x="215" y="169"/>
      <point x="246" y="217"/>
      <point x="246" y="281" type="curve" smooth="yes"/>
      <point x="246" y="346"/>
      <point x="217" y="393"/>
      <point x="165" y="393" type="curve" smooth="yes"/>
      <point x="113" y="393"/>
      <point x="81" y="346"/>
      <point x="81" y="281" type="curve" smooth="yes"/>
      <point x="81" y="215"/>
      <point x="111" y="169"/>
    </contour>
    <contour>
      <point x="164" y="194" type="curve" smooth="yes"/>
      <point x="129" y="194"/>
      <point x="107" y="228"/>
      <point x="107" y="280" type="curve" smooth="yes"/>
      <point x="107" y="333"/>
      <point x="130" y="368"/>
      <point x="166" y="368" type="curve" smooth="yes"/>
      <point x="202" y="368"/>
      <point x="223" y="333"/>
      <point x="223" y="281" type="curve" smooth="yes"/>
      <point x="223" y="229"/>
      <point x="201" y="194"/>
    </contour>
    <contour>
      <point x="223" y="96" type="line"/>
      <point x="249" y="96" type="line"/>
      <point x="249" y="289" type="line" smooth="yes"/>
      <point x="249" y="341"/>
      <point x="266" y="368"/>
      <point x="298" y="368" type="curve" smooth="yes"/>
      <point x="330" y="368"/>
      <point x="347" y="341"/>
      <point x="347" y="289" type="curve" smooth="yes"/>
      <point x="347" y="96" type="line"/>
      <point x="373" y="96" type="line"/>
      <point x="373" y="289" type="line" smooth="yes"/>
      <point x="373" y="357"/>
      <point x="348" y="393"/>
      <point x="301" y="393" type="curve" smooth="yes"/>
      <point x="250" y="393"/>
      <point x="224" y="357"/>
      <point x="224" y="289" type="curve"/>
      <point x="223" y="234" type="line"/>
    </contour>
    <contour>
      <point x="492" y="-188" type="line"/>
      <point x="492" y="16" type="line"/>
      <point x="466" y="16" type="line"/>
      <point x="466" y="-163" type="line"/>
      <point x="168" y="-163" type="line"/>
      <point x="168" y="-188" type="line"/>
    </contour>
  </outline>
</glyph>
<glyph name="la_ga-oriya" format="2">
  <advance width="538"/>
  <note>
lagaorya
</note>
  <anchor x="256" y="658" name="top"/>
  <anchor x="461" y="658" name="topright"/>
  <outline>
    <contour>
      <point x="28" y="455" type="curve" smooth="yes"/>
      <point x="28" y="384"/>
      <point x="60" y="319"/>
      <point x="109" y="279" type="curve"/>
      <point x="118" y="301" type="line"/>
      <point x="80" y="340"/>
      <point x="54" y="395"/>
      <point x="54" y="455" type="curve" smooth="yes"/>
      <point x="54" y="567"/>
      <point x="134" y="641"/>
      <point x="255" y="641" type="curve" smooth="yes"/>
      <point x="390" y="641"/>
      <point x="480" y="550"/>
      <point x="480" y="414" type="curve" smooth="yes"/>
      <point x="480" y="329"/>
      <point x="450" y="279"/>
      <point x="411" y="228" type="curve"/>
      <point x="516" y="65" type="line"/>
      <point x="469" y="73" type="line"/>
      <point x="536" y="114" type="line"/>
      <point x="529" y="85" type="line"/>
      <point x="436" y="233" type="line"/>
      <point x="428" y="216" type="line"/>
      <point x="473" y="269"/>
      <point x="506" y="327"/>
      <point x="506" y="416" type="curve" smooth="yes"/>
      <point x="506" y="566"/>
      <point x="406" y="666"/>
      <point x="256" y="666" type="curve" smooth="yes"/>
      <point x="119" y="666"/>
      <point x="28" y="582"/>
    </contour>
    <contour>
      <point x="163" y="-128" type="curve"/>
      <point x="175" y="-107" type="line"/>
      <point x="154" y="-83"/>
      <point x="143" y="-52"/>
      <point x="143" y="-21" type="curve" smooth="yes"/>
      <point x="143" y="52"/>
      <point x="195" y="93"/>
      <point x="247" y="93" type="curve" smooth="yes"/>
      <point x="302" y="93"/>
      <point x="361" y="48"/>
      <point x="361" y="-39" type="curve"/>
      <point x="382" y="-29" type="line"/>
      <point x="381" y="75"/>
      <point x="311" y="116"/>
      <point x="249" y="116" type="curve" smooth="yes"/>
      <point x="181" y="116"/>
      <point x="118" y="68"/>
      <point x="118" y="-19" type="curve" smooth="yes"/>
      <point x="118" y="-60"/>
      <point x="132" y="-99"/>
    </contour>
    <contour>
      <point x="238" y="-248" type="curve" smooth="yes"/>
      <point x="285" y="-248"/>
      <point x="317" y="-210"/>
      <point x="317" y="-152" type="curve" smooth="yes"/>
      <point x="317" y="-94"/>
      <point x="285" y="-56"/>
      <point x="238" y="-56" type="curve" smooth="yes"/>
      <point x="190" y="-56"/>
      <point x="159" y="-94"/>
      <point x="159" y="-152" type="curve" smooth="yes"/>
      <point x="159" y="-209"/>
      <point x="189" y="-248"/>
    </contour>
    <contour>
      <point x="238" y="-225" type="curve" smooth="yes"/>
      <point x="205" y="-225"/>
      <point x="184" y="-195"/>
      <point x="184" y="-151" type="curve" smooth="yes"/>
      <point x="184" y="-108"/>
      <point x="205" y="-79"/>
      <point x="238" y="-79" type="curve" smooth="yes"/>
      <point x="271" y="-79"/>
      <point x="292" y="-109"/>
      <point x="292" y="-152" type="curve" smooth="yes"/>
      <point x="292" y="-195"/>
      <point x="271" y="-225"/>
    </contour>
    <contour>
      <point x="357" y="-244" type="line"/>
      <point x="383" y="-244" type="line"/>
      <point x="383" y="329" type="line" smooth="yes"/>
      <point x="383" y="413"/>
      <point x="347" y="433"/>
      <point x="312" y="433" type="curve" smooth="yes"/>
      <point x="264" y="433"/>
      <point x="238" y="396"/>
      <point x="238" y="329" type="curve"/>
      <point x="255" y="329" type="line"/>
      <point x="255" y="407"/>
      <point x="220" y="433"/>
      <point x="183" y="433" type="curve" smooth="yes"/>
      <point x="142" y="433"/>
      <point x="99" y="402"/>
      <point x="99" y="299" type="curve" smooth="yes"/>
      <point x="99" y="243"/>
      <point x="112" y="183"/>
      <point x="128" y="124" type="curve"/>
      <point x="115" y="139" type="line"/>
      <point x="162" y="152" type="line"/>
      <point x="153" y="132" type="line"/>
      <point x="138" y="181"/>
      <point x="125" y="245"/>
      <point x="125" y="299" type="curve" smooth="yes"/>
      <point x="125" y="361"/>
      <point x="142" y="408"/>
      <point x="183" y="408" type="curve" smooth="yes"/>
      <point x="215" y="408"/>
      <point x="233" y="380"/>
      <point x="233" y="328" type="curve" smooth="yes"/>
      <point x="233" y="156" type="line"/>
      <point x="259" y="156" type="line"/>
      <point x="259" y="328" type="line" smooth="yes"/>
      <point x="259" y="381"/>
      <point x="276" y="408"/>
      <point x="308" y="408" type="curve" smooth="yes"/>
      <point x="338" y="408"/>
      <point x="357" y="381"/>
      <point x="357" y="329" type="curve" smooth="yes"/>
      <point x="357" y="36" type="line"/>
      <point x="357" y="19" type="line"/>
    </contour>
  </outline>
</glyph>
<glyph name="ma_ba-oriya" format="2">
  <advance width="501"/>
  <guideline x="453" y="49" angle="0"/>
  <anchor x="239" y="658" name="top"/>
  <anchor x="436" y="658" name="topright"/>
  <outline>
    <contour>
      <point x="131" y="262" type="curve"/>
      <point x="137" y="286" type="line"/>
      <point x="85" y="320"/>
      <point x="54" y="389"/>
      <point x="54" y="457" type="curve" smooth="yes"/>
      <point x="54" y="555"/>
      <point x="117" y="641"/>
      <point x="234" y="641" type="curve" smooth="yes"/>
      <point x="342" y="641"/>
      <point x="425" y="567"/>
      <point x="425" y="434" type="curve"/>
      <point x="449" y="436" type="line"/>
      <point x="449" y="576"/>
      <point x="361" y="666"/>
      <point x="232" y="666" type="curve" smooth="yes"/>
      <point x="97" y="666"/>
      <point x="28" y="568"/>
      <point x="28" y="460" type="curve" smooth="yes"/>
      <point x="28" y="381"/>
      <point x="65" y="300"/>
    </contour>
    <contour>
      <point x="136" y="91" type="curve" smooth="yes"/>
      <point x="160" y="91"/>
      <point x="171" y="110"/>
      <point x="171" y="130" type="curve" smooth="yes"/>
      <point x="171" y="149"/>
      <point x="160" y="168"/>
      <point x="137" y="168" type="curve" smooth="yes"/>
      <point x="120" y="168"/>
      <point x="102" y="156"/>
      <point x="102" y="133" type="curve"/>
      <point x="121" y="135" type="line"/>
      <point x="120" y="143"/>
      <point x="119" y="151"/>
      <point x="119" y="160" type="curve" smooth="yes"/>
      <point x="119" y="272"/>
      <point x="210" y="373"/>
      <point x="344" y="390" type="curve"/>
      <point x="321" y="370" type="line"/>
      <point x="309" y="428" type="line"/>
      <point x="341" y="413" type="line"/>
      <point x="205" y="401"/>
      <point x="93" y="287"/>
      <point x="93" y="164" type="curve" smooth="yes"/>
      <point x="93" y="128"/>
      <point x="103" y="91"/>
    </contour>
    <contour>
      <point x="353" y="-88" type="curve" smooth="yes"/>
      <point x="387" y="-88"/>
      <point x="417" y="-74"/>
      <point x="438" y="-48" type="curve"/>
      <point x="435" y="-18" type="line"/>
      <point x="417" y="-47"/>
      <point x="387" y="-64"/>
      <point x="355" y="-64" type="curve" smooth="yes"/>
      <point x="308" y="-64"/>
      <point x="283" y="-27"/>
      <point x="283" y="20" type="curve" smooth="yes"/>
      <point x="283" y="51"/>
      <point x="295" y="95"/>
      <point x="317" y="124" type="curve"/>
      <point x="327" y="108" type="line"/>
      <point x="283" y="138" type="line"/>
      <point x="296" y="135" type="line"/>
      <point x="273" y="104"/>
      <point x="257" y="55"/>
      <point x="257" y="16" type="curve" smooth="yes"/>
      <point x="257" y="-40"/>
      <point x="290" y="-88"/>
    </contour>
    <contour>
      <point x="449" y="-164" type="line"/>
      <point x="449" y="658" type="line"/>
      <point x="423" y="658" type="line"/>
      <point x="423" y="519" type="line"/>
      <point x="423" y="507" type="line"/>
      <point x="423" y="-49" type="line"/>
      <point x="423" y="-58" type="line"/>
      <point x="423" y="-164" type="line"/>
    </contour>
  </outline>
</glyph>
<glyph name="ma_bha-oriya" format="2">
  <advance width="588"/>
  <note>
mabhaorya
</note>
  <guideline x="482" y="315" angle="90"/>
  <guideline x="542" y="315" angle="90"/>
  <anchor x="248" y="658" name="top"/>
  <anchor x="469" y="658" name="topright"/>
  <outline>
    <contour>
      <point x="134" y="193" type="curve"/>
      <point x="139" y="222" type="line"/>
      <point x="81" y="270"/>
      <point x="54" y="340"/>
      <point x="54" y="417" type="curve" smooth="yes"/>
      <point x="54" y="561"/>
      <point x="149" y="641"/>
      <point x="251" y="641" type="curve" smooth="yes"/>
      <point x="344" y="641"/>
      <point x="460" y="574"/>
      <point x="460" y="398" type="curve"/>
      <point x="482" y="398" type="line"/>
      <point x="482" y="591"/>
      <point x="356" y="666"/>
      <point x="252" y="666" type="curve" smooth="yes"/>
      <point x="139" y="666"/>
      <point x="28" y="577"/>
      <point x="28" y="418" type="curve" smooth="yes"/>
      <point x="28" y="330"/>
      <point x="62" y="247"/>
    </contour>
    <contour>
      <point x="456" y="150" type="line"/>
      <point x="482" y="150" type="line"/>
      <point x="482" y="658" type="line"/>
      <point x="456" y="658" type="line"/>
      <point x="456" y="495" type="line"/>
      <point x="456" y="480" type="line"/>
    </contour>
    <contour>
      <point x="142" y="-8" type="curve" smooth="yes"/>
      <point x="167" y="-8"/>
      <point x="179" y="15"/>
      <point x="179" y="37" type="curve" smooth="yes"/>
      <point x="179" y="60"/>
      <point x="166" y="83"/>
      <point x="141" y="83" type="curve" smooth="yes"/>
      <point x="122" y="83"/>
      <point x="104" y="69"/>
      <point x="104" y="42" type="curve"/>
      <point x="141" y="16" type="line"/>
      <point x="131" y="29"/>
      <point x="121" y="45"/>
      <point x="121" y="80" type="curve" smooth="yes"/>
      <point x="121" y="192"/>
      <point x="212" y="321"/>
      <point x="358" y="345" type="curve"/>
      <point x="306" y="311" type="line"/>
      <point x="290" y="379" type="line"/>
      <point x="355" y="370" type="line"/>
      <point x="219" y="355"/>
      <point x="95" y="229"/>
      <point x="95" y="81" type="curve" smooth="yes"/>
      <point x="95" y="29"/>
      <point x="110" y="-8"/>
    </contour>
    <contour>
      <point x="351" y="-91" type="line"/>
      <point x="559" y="-168" type="line"/>
      <point x="568" y="-145" type="line"/>
      <point x="418" y="-89" type="line"/>
      <point x="386" y="-81" type="line"/>
      <point x="360" y="-68" type="line"/>
    </contour>
    <contour>
      <point x="352" y="133" type="curve"/>
      <point x="364" y="113" type="line"/>
      <point x="389" y="131"/>
      <point x="415" y="139"/>
      <point x="439" y="139" type="curve" smooth="yes"/>
      <point x="490" y="139"/>
      <point x="533" y="104"/>
      <point x="533" y="41" type="curve" smooth="yes"/>
      <point x="533" y="-30"/>
      <point x="479" y="-78"/>
      <point x="412" y="-78" type="curve" smooth="yes"/>
      <point x="396" y="-78"/>
      <point x="378" y="-75"/>
      <point x="360" y="-68" type="curve"/>
      <point x="409" y="-103" type="line"/>
      <point x="510" y="-103"/>
      <point x="559" y="-29"/>
      <point x="559" y="44" type="curve" smooth="yes"/>
      <point x="559" y="119"/>
      <point x="507" y="164"/>
      <point x="444" y="164" type="curve" smooth="yes"/>
      <point x="414" y="164"/>
      <point x="382" y="154"/>
    </contour>
  </outline>
</glyph>
<glyph name="ma_ra-oriya" format="2">
  <advance width="534"/>
  <anchor x="248" y="658" name="top"/>
  <anchor x="469" y="658" name="topright"/>
  <outline>
    <contour>
      <point x="134" y="193" type="curve"/>
      <point x="139" y="222" type="line"/>
      <point x="81" y="270"/>
      <point x="54" y="340"/>
      <point x="54" y="417" type="curve" smooth="yes"/>
      <point x="54" y="561"/>
      <point x="149" y="641"/>
      <point x="251" y="641" type="curve" smooth="yes"/>
      <point x="344" y="641"/>
      <point x="460" y="574"/>
      <point x="460" y="398" type="curve"/>
      <point x="482" y="398" type="line"/>
      <point x="482" y="591"/>
      <point x="356" y="666"/>
      <point x="252" y="666" type="curve" smooth="yes"/>
      <point x="139" y="666"/>
      <point x="28" y="577"/>
      <point x="28" y="418" type="curve" smooth="yes"/>
      <point x="28" y="330"/>
      <point x="62" y="247"/>
    </contour>
    <contour>
      <point x="142" y="-8" type="curve" smooth="yes"/>
      <point x="167" y="-8"/>
      <point x="179" y="15"/>
      <point x="179" y="37" type="curve" smooth="yes"/>
      <point x="179" y="60"/>
      <point x="166" y="83"/>
      <point x="141" y="83" type="curve" smooth="yes"/>
      <point x="122" y="83"/>
      <point x="104" y="69"/>
      <point x="104" y="42" type="curve"/>
      <point x="141" y="16" type="line"/>
      <point x="131" y="29"/>
      <point x="121" y="45"/>
      <point x="121" y="80" type="curve" smooth="yes"/>
      <point x="121" y="192"/>
      <point x="212" y="321"/>
      <point x="358" y="345" type="curve"/>
      <point x="306" y="311" type="line"/>
      <point x="290" y="379" type="line"/>
      <point x="355" y="370" type="line"/>
      <point x="219" y="355"/>
      <point x="95" y="229"/>
      <point x="95" y="81" type="curve" smooth="yes"/>
      <point x="95" y="29"/>
      <point x="110" y="-8"/>
    </contour>
    <contour>
      <point x="456" y="480" type="line"/>
      <point x="456" y="-115" type="line"/>
      <point x="94" y="-115" type="line"/>
      <point x="94" y="-140" type="line"/>
      <point x="482" y="-140" type="line"/>
      <point x="482" y="658" type="line"/>
      <point x="456" y="658" type="line"/>
      <point x="456" y="495" type="line"/>
    </contour>
  </outline>
</glyph>
<glyph name="na_ta_uMatra-oriya" format="2">
  <advance width="491"/>
  <anchor x="240" y="658" name="top"/>
  <anchor x="412" y="658" name="topright"/>
  <outline>
    <contour>
      <point x="127" y="270" type="curve"/>
      <point x="138" y="292" type="line"/>
      <point x="83" y="328"/>
      <point x="54" y="387"/>
      <point x="54" y="454" type="curve" smooth="yes"/>
      <point x="54" y="567"/>
      <point x="129" y="641"/>
      <point x="241" y="641" type="curve" smooth="yes"/>
      <point x="355" y="641"/>
      <point x="431" y="565"/>
      <point x="431" y="447" type="curve" smooth="yes"/>
      <point x="431" y="392"/>
      <point x="415" y="340"/>
      <point x="384" y="301" type="curve"/>
      <point x="379" y="313" type="line"/>
      <point x="420" y="288" type="line"/>
      <point x="406" y="289" type="line"/>
      <point x="438" y="328"/>
      <point x="457" y="385"/>
      <point x="457" y="447" type="curve" smooth="yes"/>
      <point x="457" y="578"/>
      <point x="370" y="666"/>
      <point x="240" y="666" type="curve" smooth="yes"/>
      <point x="113" y="666"/>
      <point x="28" y="582"/>
      <point x="28" y="455" type="curve" smooth="yes"/>
      <point x="28" y="377"/>
      <point x="63" y="307"/>
    </contour>
    <contour>
      <point x="252" y="-51" type="curve" smooth="yes"/>
      <point x="364" y="-51"/>
      <point x="463" y="17"/>
      <point x="463" y="147" type="curve" smooth="yes"/>
      <point x="463" y="212"/>
      <point x="437" y="249"/>
      <point x="391" y="249" type="curve" smooth="yes"/>
      <point x="337" y="249"/>
      <point x="313" y="200"/>
      <point x="313" y="153" type="curve" smooth="yes"/>
      <point x="313" y="104"/>
      <point x="338" y="57"/>
      <point x="386" y="57" type="curve" smooth="yes"/>
      <point x="420" y="57"/>
      <point x="441" y="80"/>
      <point x="452" y="120" type="curve"/>
      <point x="434" y="107" type="line"/>
      <point x="420" y="18"/>
      <point x="340" y="-26"/>
      <point x="252" y="-26" type="curve" smooth="yes"/>
      <point x="194" y="-26"/>
      <point x="133" y="-7"/>
      <point x="85" y="30" type="curve"/>
      <point x="106" y="31" type="line"/>
      <point x="75" y="-18" type="line"/>
      <point x="68" y="13" type="line"/>
      <point x="121" y="-30"/>
      <point x="189" y="-51"/>
    </contour>
    <contour>
      <point x="137" y="110" type="curve" smooth="yes"/>
      <point x="161" y="110"/>
      <point x="173" y="130"/>
      <point x="173" y="149" type="curve" smooth="yes"/>
      <point x="173" y="169"/>
      <point x="160" y="188"/>
      <point x="139" y="188" type="curve" smooth="yes"/>
      <point x="121" y="188"/>
      <point x="107" y="178"/>
      <point x="105" y="152" type="curve"/>
      <point x="121" y="157" type="line"/>
      <point x="120" y="166"/>
      <point x="119" y="172"/>
      <point x="119" y="186" type="curve" smooth="yes"/>
      <point x="119" y="306"/>
      <point x="181" y="388"/>
      <point x="288" y="388" type="curve" smooth="yes"/>
      <point x="299" y="388"/>
      <point x="315" y="386"/>
      <point x="333" y="382" type="curve"/>
      <point x="313" y="397" type="line"/>
      <point x="313" y="153" type="line"/>
      <point x="339" y="195" type="line"/>
      <point x="339" y="408" type="line"/>
      <point x="322" y="411"/>
      <point x="305" y="413"/>
      <point x="289" y="413" type="curve" smooth="yes"/>
      <point x="171" y="413"/>
      <point x="93" y="321"/>
      <point x="93" y="191" type="curve" smooth="yes"/>
      <point x="93" y="148"/>
      <point x="104" y="110"/>
    </contour>
    <contour>
      <point x="389" y="82" type="curve" smooth="yes"/>
      <point x="358" y="82"/>
      <point x="339" y="109"/>
      <point x="339" y="156" type="curve" smooth="yes"/>
      <point x="339" y="199"/>
      <point x="357" y="224"/>
      <point x="388" y="224" type="curve" smooth="yes"/>
      <point x="419" y="224"/>
      <point x="437" y="198"/>
      <point x="437" y="154" type="curve" smooth="yes"/>
      <point x="437" y="108"/>
      <point x="420" y="82"/>
    </contour>
    <contour>
      <point x="195" y="-263" type="curve" smooth="yes"/>
      <point x="255" y="-263"/>
      <point x="327" y="-209"/>
      <point x="327" y="-52" type="curve" smooth="yes"/>
      <point x="327" y="-30" type="line"/>
      <point x="301" y="-30" type="line"/>
      <point x="301" y="-61" type="line" smooth="yes"/>
      <point x="301" y="-193"/>
      <point x="243" y="-238"/>
      <point x="196" y="-238" type="curve" smooth="yes"/>
      <point x="161" y="-238"/>
      <point x="144" y="-214"/>
      <point x="144" y="-189" type="curve" smooth="yes"/>
      <point x="144" y="-163"/>
      <point x="163" y="-139"/>
      <point x="198" y="-139" type="curve" smooth="yes"/>
      <point x="276" y="-139"/>
      <point x="310" y="-263"/>
      <point x="412" y="-263" type="curve" smooth="yes"/>
      <point x="432" y="-263"/>
      <point x="451" y="-258"/>
      <point x="466" y="-247" type="curve"/>
      <point x="458" y="-271" type="line"/>
      <point x="440" y="-211" type="line"/>
      <point x="457" y="-227" type="line"/>
      <point x="443" y="-234"/>
      <point x="425" y="-238"/>
      <point x="410" y="-238" type="curve" smooth="yes"/>
      <point x="324" y="-238"/>
      <point x="289" y="-114"/>
      <point x="195" y="-114" type="curve" smooth="yes"/>
      <point x="144" y="-114"/>
      <point x="118" y="-151"/>
      <point x="118" y="-188" type="curve" smooth="yes"/>
      <point x="118" y="-226"/>
      <point x="145" y="-263"/>
    </contour>
  </outline>
</glyph>
<glyph name="nna_dda-oriya" format="2">
  <advance width="559"/>
  <note>
nnaddaorya
</note>
  <guideline x="481" y="381" angle="90"/>
  <guideline x="541" y="381" angle="90"/>
  <anchor x="254" y="658" name="top"/>
  <anchor x="469" y="658" name="topright"/>
  <outline>
    <contour>
      <point x="218" y="-8" type="curve" smooth="yes"/>
      <point x="307" y="-8"/>
      <point x="370" y="51"/>
      <point x="370" y="130" type="curve" smooth="yes"/>
      <point x="370" y="204"/>
      <point x="312" y="279"/>
      <point x="193" y="279" type="curve" smooth="yes"/>
      <point x="142" y="279"/>
      <point x="86" y="265"/>
      <point x="37" y="238" type="curve"/>
      <point x="38" y="210" type="line"/>
      <point x="83" y="239"/>
      <point x="138" y="254"/>
      <point x="190" y="254" type="curve" smooth="yes"/>
      <point x="294" y="254"/>
      <point x="344" y="191"/>
      <point x="344" y="130" type="curve" smooth="yes"/>
      <point x="344" y="70"/>
      <point x="296" y="17"/>
      <point x="219" y="17" type="curve" smooth="yes"/>
      <point x="112" y="17"/>
      <point x="54" y="118"/>
      <point x="54" y="242" type="curve" smooth="yes"/>
      <point x="54" y="362"/>
      <point x="108" y="435"/>
      <point x="199" y="435" type="curve" smooth="yes"/>
      <point x="234" y="435"/>
      <point x="275" y="424"/>
      <point x="321" y="400" type="curve"/>
      <point x="264" y="366" type="line"/>
      <point x="309" y="472" type="line"/>
      <point x="328" y="423" type="line"/>
      <point x="281" y="448"/>
      <point x="238" y="460"/>
      <point x="199" y="460" type="curve" smooth="yes"/>
      <point x="96" y="460"/>
      <point x="28" y="375"/>
      <point x="28" y="240" type="curve" smooth="yes"/>
      <point x="28" y="106"/>
      <point x="94" y="-8"/>
    </contour>
    <contour>
      <point x="330" y="-168" type="curve" smooth="yes"/>
      <point x="442" y="-168"/>
      <point x="541" y="-100"/>
      <point x="541" y="30" type="curve" smooth="yes"/>
      <point x="541" y="95"/>
      <point x="515" y="132"/>
      <point x="469" y="132" type="curve" smooth="yes"/>
      <point x="415" y="132"/>
      <point x="391" y="83"/>
      <point x="391" y="36" type="curve" smooth="yes"/>
      <point x="391" y="-13"/>
      <point x="416" y="-60"/>
      <point x="464" y="-60" type="curve" smooth="yes"/>
      <point x="498" y="-60"/>
      <point x="519" y="-37"/>
      <point x="530" y="3" type="curve"/>
      <point x="512" y="-10" type="line"/>
      <point x="498" y="-99"/>
      <point x="418" y="-143"/>
      <point x="330" y="-143" type="curve" smooth="yes"/>
      <point x="272" y="-143"/>
      <point x="211" y="-124"/>
      <point x="163" y="-87" type="curve"/>
      <point x="184" y="-86" type="line"/>
      <point x="153" y="-135" type="line"/>
      <point x="146" y="-104" type="line"/>
      <point x="199" y="-147"/>
      <point x="267" y="-168"/>
    </contour>
    <contour>
      <point x="467" y="-35" type="curve" smooth="yes"/>
      <point x="436" y="-35"/>
      <point x="417" y="-8"/>
      <point x="417" y="39" type="curve" smooth="yes"/>
      <point x="417" y="82"/>
      <point x="435" y="107"/>
      <point x="466" y="107" type="curve" smooth="yes"/>
      <point x="497" y="107"/>
      <point x="515" y="81"/>
      <point x="515" y="37" type="curve" smooth="yes"/>
      <point x="515" y="-9"/>
      <point x="498" y="-35"/>
    </contour>
    <contour>
      <point x="460" y="398" type="curve"/>
      <point x="482" y="398" type="line"/>
      <point x="482" y="578"/>
      <point x="361" y="666"/>
      <point x="263" y="666" type="curve" smooth="yes"/>
      <point x="183" y="666"/>
      <point x="126" y="608"/>
      <point x="126" y="517" type="curve" smooth="yes"/>
      <point x="126" y="496"/>
      <point x="129" y="468"/>
      <point x="141" y="438" type="curve"/>
      <point x="163" y="451" type="line"/>
      <point x="155" y="472"/>
      <point x="152" y="499"/>
      <point x="152" y="518" type="curve" smooth="yes"/>
      <point x="152" y="600"/>
      <point x="203" y="641"/>
      <point x="264" y="641" type="curve" smooth="yes"/>
      <point x="347" y="641"/>
      <point x="460" y="564"/>
    </contour>
    <contour>
      <point x="456" y="118" type="line"/>
      <point x="482" y="118" type="line"/>
      <point x="482" y="658" type="line"/>
      <point x="456" y="658" type="line"/>
      <point x="456" y="507" type="line"/>
      <point x="456" y="495" type="line"/>
    </contour>
  </outline>
</glyph>
<glyph name="nna_dda_ra-oriya" format="2">
  <advance width="527"/>
  <note>
nnaddaraorya
</note>
  <guideline x="449" y="-28" angle="90"/>
  <guideline x="449" y="177" angle="90"/>
  <guideline x="509" y="177" angle="90"/>
  <anchor x="252" y="658" name="top"/>
  <anchor x="436" y="658" name="topright"/>
  <outline>
    <contour>
      <point x="212" y="90" type="curve" smooth="yes"/>
      <point x="292" y="90"/>
      <point x="348" y="138"/>
      <point x="348" y="211" type="curve" smooth="yes"/>
      <point x="348" y="300"/>
      <point x="271" y="344"/>
      <point x="180" y="344" type="curve" smooth="yes"/>
      <point x="133" y="344"/>
      <point x="82" y="332"/>
      <point x="37" y="309" type="curve"/>
      <point x="38" y="286" type="line"/>
      <point x="80" y="307"/>
      <point x="131" y="319"/>
      <point x="177" y="319" type="curve" smooth="yes"/>
      <point x="255" y="319"/>
      <point x="322" y="286"/>
      <point x="322" y="211" type="curve" smooth="yes"/>
      <point x="322" y="152"/>
      <point x="276" y="115"/>
      <point x="211" y="115" type="curve" smooth="yes"/>
      <point x="110" y="115"/>
      <point x="54" y="208"/>
      <point x="54" y="303" type="curve" smooth="yes"/>
      <point x="54" y="403"/>
      <point x="115" y="477"/>
      <point x="202" y="477" type="curve" smooth="yes"/>
      <point x="232" y="477"/>
      <point x="268" y="468"/>
      <point x="303" y="448" type="curve"/>
      <point x="267" y="422" type="line"/>
      <point x="310" y="512" type="line"/>
      <point x="309" y="470" type="line"/>
      <point x="273" y="492"/>
      <point x="236" y="502"/>
      <point x="202" y="502" type="curve" smooth="yes"/>
      <point x="104" y="502"/>
      <point x="28" y="419"/>
      <point x="28" y="303" type="curve" smooth="yes"/>
      <point x="28" y="196"/>
      <point x="92" y="90"/>
    </contour>
    <contour>
      <point x="423" y="196" type="line"/>
      <point x="449" y="196" type="line"/>
      <point x="449" y="658" type="line"/>
      <point x="423" y="658" type="line"/>
      <point x="423" y="528" type="line"/>
      <point x="423" y="518" type="line"/>
    </contour>
    <contour>
      <point x="259" y="641" type="curve" smooth="yes"/>
      <point x="338" y="641"/>
      <point x="425" y="584"/>
      <point x="425" y="434" type="curve"/>
      <point x="449" y="436" type="line"/>
      <point x="449" y="594"/>
      <point x="352" y="666"/>
      <point x="259" y="666" type="curve" smooth="yes"/>
      <point x="187" y="666"/>
      <point x="123" y="623"/>
      <point x="123" y="538" type="curve" smooth="yes"/>
      <point x="123" y="527"/>
      <point x="124" y="504"/>
      <point x="132" y="485" type="curve"/>
      <point x="155" y="494" type="line"/>
      <point x="151" y="505"/>
      <point x="148" y="527"/>
      <point x="148" y="543" type="curve" smooth="yes"/>
      <point x="148" y="608"/>
      <point x="199" y="641"/>
    </contour>
    <contour>
      <point x="121" y="-55" type="line"/>
      <point x="114" y="-24" type="line"/>
      <point x="167" y="-67"/>
      <point x="235" y="-88"/>
      <point x="298" y="-88" type="curve" smooth="yes"/>
      <point x="410" y="-88"/>
      <point x="509" y="-20"/>
      <point x="509" y="110" type="curve" smooth="yes"/>
      <point x="509" y="175"/>
      <point x="483" y="212"/>
      <point x="437" y="212" type="curve" smooth="yes"/>
      <point x="383" y="212"/>
      <point x="359" y="163"/>
      <point x="359" y="116" type="curve" smooth="yes"/>
      <point x="359" y="67"/>
      <point x="384" y="20"/>
      <point x="432" y="20" type="curve" smooth="yes"/>
      <point x="466" y="20"/>
      <point x="487" y="43"/>
      <point x="498" y="83" type="curve"/>
      <point x="480" y="70" type="line"/>
      <point x="466" y="-19"/>
      <point x="386" y="-63"/>
      <point x="298" y="-63" type="curve" smooth="yes"/>
      <point x="240" y="-63"/>
      <point x="179" y="-44"/>
      <point x="131" y="-7" type="curve"/>
      <point x="152" y="-6" type="line"/>
    </contour>
    <contour>
      <point x="483" y="117" type="curve" smooth="yes"/>
      <point x="483" y="71"/>
      <point x="466" y="45"/>
      <point x="435" y="45" type="curve" smooth="yes"/>
      <point x="404" y="45"/>
      <point x="385" y="72"/>
      <point x="385" y="119" type="curve" smooth="yes"/>
      <point x="385" y="162"/>
      <point x="403" y="187"/>
      <point x="434" y="187" type="curve" smooth="yes"/>
      <point x="465" y="187"/>
      <point x="483" y="161"/>
    </contour>
    <contour>
      <point x="449" y="-244" type="line"/>
      <point x="449" y="-30" type="line"/>
      <point x="423" y="-30" type="line"/>
      <point x="423" y="-219" type="line"/>
      <point x="125" y="-219" type="line"/>
      <point x="125" y="-244" type="line"/>
    </contour>
  </outline>
</glyph>
<glyph name="nna_ddha-oriya" format="2">
  <advance width="528"/>
  <note>
nnaddhaorya
</note>
  <guideline x="449" y="381" angle="90"/>
  <guideline x="509" y="381" angle="90"/>
  <anchor x="252" y="658" name="top"/>
  <anchor x="436" y="658" name="topright"/>
  <outline>
    <contour>
      <point x="212" y="90" type="curve" smooth="yes"/>
      <point x="292" y="90"/>
      <point x="348" y="138"/>
      <point x="348" y="211" type="curve" smooth="yes"/>
      <point x="348" y="300"/>
      <point x="271" y="344"/>
      <point x="180" y="344" type="curve" smooth="yes"/>
      <point x="133" y="344"/>
      <point x="82" y="332"/>
      <point x="37" y="309" type="curve"/>
      <point x="38" y="286" type="line"/>
      <point x="80" y="307"/>
      <point x="131" y="319"/>
      <point x="177" y="319" type="curve" smooth="yes"/>
      <point x="255" y="319"/>
      <point x="322" y="286"/>
      <point x="322" y="211" type="curve" smooth="yes"/>
      <point x="322" y="152"/>
      <point x="276" y="115"/>
      <point x="211" y="115" type="curve" smooth="yes"/>
      <point x="110" y="115"/>
      <point x="54" y="208"/>
      <point x="54" y="303" type="curve" smooth="yes"/>
      <point x="54" y="403"/>
      <point x="115" y="477"/>
      <point x="202" y="477" type="curve" smooth="yes"/>
      <point x="232" y="477"/>
      <point x="268" y="468"/>
      <point x="303" y="448" type="curve"/>
      <point x="267" y="422" type="line"/>
      <point x="310" y="512" type="line"/>
      <point x="309" y="470" type="line"/>
      <point x="273" y="492"/>
      <point x="236" y="502"/>
      <point x="202" y="502" type="curve" smooth="yes"/>
      <point x="104" y="502"/>
      <point x="28" y="419"/>
      <point x="28" y="303" type="curve" smooth="yes"/>
      <point x="28" y="196"/>
      <point x="92" y="90"/>
    </contour>
    <contour>
      <point x="516" y="-168" type="curve"/>
      <point x="520" y="-142" type="line"/>
      <point x="428" y="-127"/>
      <point x="352" y="-74"/>
      <point x="352" y="41" type="curve" smooth="yes"/>
      <point x="352" y="118"/>
      <point x="389" y="154"/>
      <point x="424" y="154" type="curve" smooth="yes"/>
      <point x="464" y="154"/>
      <point x="484" y="116"/>
      <point x="484" y="77" type="curve" smooth="yes"/>
      <point x="484" y="36"/>
      <point x="462" y="-5"/>
      <point x="417" y="-5" type="curve" smooth="yes"/>
      <point x="381" y="-5"/>
      <point x="359" y="16"/>
      <point x="345" y="41" type="curve"/>
      <point x="342" y="9" type="line"/>
      <point x="367" y="-17"/>
      <point x="391" y="-29"/>
      <point x="422" y="-29" type="curve" smooth="yes"/>
      <point x="480" y="-29"/>
      <point x="509" y="23"/>
      <point x="509" y="75" type="curve" smooth="yes"/>
      <point x="509" y="126"/>
      <point x="481" y="177"/>
      <point x="424" y="177" type="curve" smooth="yes"/>
      <point x="377" y="177"/>
      <point x="327" y="133"/>
      <point x="327" y="42" type="curve" smooth="yes"/>
      <point x="327" y="-64"/>
      <point x="392" y="-148"/>
    </contour>
    <contour>
      <point x="425" y="434" type="curve"/>
      <point x="449" y="436" type="line"/>
      <point x="449" y="594"/>
      <point x="352" y="666"/>
      <point x="259" y="666" type="curve" smooth="yes"/>
      <point x="187" y="666"/>
      <point x="123" y="623"/>
      <point x="123" y="538" type="curve" smooth="yes"/>
      <point x="123" y="527"/>
      <point x="124" y="504"/>
      <point x="132" y="485" type="curve"/>
      <point x="155" y="494" type="line"/>
      <point x="151" y="505"/>
      <point x="148" y="527"/>
      <point x="148" y="543" type="curve" smooth="yes"/>
      <point x="148" y="608"/>
      <point x="199" y="641"/>
      <point x="259" y="641" type="curve" smooth="yes"/>
      <point x="338" y="641"/>
      <point x="425" y="584"/>
    </contour>
    <contour>
      <point x="423" y="166" type="line"/>
      <point x="449" y="166" type="line"/>
      <point x="449" y="658" type="line"/>
      <point x="423" y="658" type="line"/>
      <point x="423" y="528" type="line"/>
      <point x="423" y="518" type="line"/>
    </contour>
  </outline>
</glyph>
<glyph name="pa_ta-oriya" format="2">
  <advance width="560"/>
  <note>
pataorya
</note>
  <guideline x="482" y="274" angle="90"/>
  <guideline x="542" y="274" angle="90"/>
  <anchor x="253" y="658" name="top"/>
  <anchor x="469" y="658" name="topright"/>
  <outline>
    <contour>
      <point x="137" y="192" type="curve"/>
      <point x="142" y="221" type="line"/>
      <point x="82" y="269"/>
      <point x="54" y="339"/>
      <point x="54" y="416" type="curve" smooth="yes"/>
      <point x="54" y="560"/>
      <point x="152" y="641"/>
      <point x="252" y="641" type="curve" smooth="yes"/>
      <point x="355" y="641"/>
      <point x="460" y="566"/>
      <point x="460" y="397" type="curve"/>
      <point x="482" y="397" type="line"/>
      <point x="482" y="582"/>
      <point x="366" y="666"/>
      <point x="253" y="666" type="curve" smooth="yes"/>
      <point x="141" y="666"/>
      <point x="28" y="576"/>
      <point x="28" y="417" type="curve" smooth="yes"/>
      <point x="28" y="329"/>
      <point x="63" y="246"/>
    </contour>
    <contour>
      <point x="293" y="-8" type="curve" smooth="yes"/>
      <point x="335" y="-8"/>
      <point x="373" y="7"/>
      <point x="404" y="33" type="curve"/>
      <point x="404" y="65" type="line"/>
      <point x="374" y="35"/>
      <point x="336" y="18"/>
      <point x="294" y="17" type="curve" smooth="yes"/>
      <point x="208" y="15"/>
      <point x="149" y="88"/>
      <point x="149" y="180" type="curve" smooth="yes"/>
      <point x="149" y="268"/>
      <point x="201" y="337"/>
      <point x="272" y="362" type="curve"/>
      <point x="278" y="318" type="line"/>
      <point x="241" y="411" type="line"/>
      <point x="260" y="384" type="line"/>
      <point x="177" y="353"/>
      <point x="123" y="276"/>
      <point x="123" y="182" type="curve" smooth="yes"/>
      <point x="123" y="73"/>
      <point x="192" y="-8"/>
    </contour>
    <contour>
      <point x="456" y="118" type="line"/>
      <point x="482" y="118" type="line"/>
      <point x="482" y="658" type="line"/>
      <point x="456" y="658" type="line"/>
      <point x="456" y="494" type="line"/>
      <point x="456" y="479" type="line"/>
    </contour>
    <contour>
      <point x="331" y="-168" type="curve" smooth="yes"/>
      <point x="443" y="-168"/>
      <point x="542" y="-100"/>
      <point x="542" y="30" type="curve" smooth="yes"/>
      <point x="542" y="95"/>
      <point x="516" y="132"/>
      <point x="470" y="132" type="curve" smooth="yes"/>
      <point x="416" y="132"/>
      <point x="392" y="83"/>
      <point x="392" y="36" type="curve" smooth="yes"/>
      <point x="392" y="-13"/>
      <point x="417" y="-60"/>
      <point x="465" y="-60" type="curve" smooth="yes"/>
      <point x="499" y="-60"/>
      <point x="520" y="-37"/>
      <point x="531" y="3" type="curve"/>
      <point x="513" y="-10" type="line"/>
      <point x="499" y="-99"/>
      <point x="419" y="-143"/>
      <point x="331" y="-143" type="curve" smooth="yes"/>
      <point x="273" y="-143"/>
      <point x="212" y="-124"/>
      <point x="164" y="-87" type="curve"/>
      <point x="185" y="-86" type="line"/>
      <point x="154" y="-135" type="line"/>
      <point x="147" y="-104" type="line"/>
      <point x="200" y="-147"/>
      <point x="268" y="-168"/>
    </contour>
    <contour>
      <point x="516" y="37" type="curve" smooth="yes"/>
      <point x="516" y="-9"/>
      <point x="499" y="-35"/>
      <point x="468" y="-35" type="curve" smooth="yes"/>
      <point x="437" y="-35"/>
      <point x="418" y="-8"/>
      <point x="418" y="39" type="curve" smooth="yes"/>
      <point x="418" y="82"/>
      <point x="436" y="107"/>
      <point x="467" y="107" type="curve" smooth="yes"/>
      <point x="498" y="107"/>
      <point x="516" y="81"/>
    </contour>
  </outline>
</glyph>
<glyph name="ra-oriya.base" format="2">
  <advance width="501"/>
  <anchor x="331" y="110" name="bottom"/>
  <anchor x="251" y="658" name="top"/>
  <anchor x="435" y="658" name="topright"/>
  <outline>
    <contour>
      <point x="114" y="272" type="curve"/>
      <point x="118" y="299" type="line"/>
      <point x="80" y="334"/>
      <point x="54" y="385"/>
      <point x="54" y="448" type="curve" smooth="yes"/>
      <point x="54" y="570"/>
      <point x="148" y="641"/>
      <point x="252" y="641" type="curve" smooth="yes"/>
      <point x="368" y="641"/>
      <point x="454" y="551"/>
      <point x="454" y="422" type="curve" smooth="yes"/>
      <point x="454" y="341"/>
      <point x="421" y="276"/>
      <point x="372" y="225" type="curve" smooth="yes"/>
      <point x="481" y="56" type="line"/>
      <point x="434" y="71" type="line"/>
      <point x="510" y="119" type="line"/>
      <point x="502" y="68" type="line"/>
      <point x="398" y="230" type="line"/>
      <point x="386" y="206" type="line"/>
      <point x="442" y="263"/>
      <point x="480" y="333"/>
      <point x="480" y="424" type="curve" smooth="yes"/>
      <point x="480" y="580"/>
      <point x="371" y="666"/>
      <point x="251" y="666" type="curve" smooth="yes"/>
      <point x="136" y="666"/>
      <point x="28" y="588"/>
      <point x="28" y="447" type="curve" smooth="yes"/>
      <point x="28" y="373"/>
      <point x="60" y="311"/>
    </contour>
    <contour>
      <point x="219" y="90" type="curve" smooth="yes"/>
      <point x="294" y="90"/>
      <point x="344" y="150"/>
      <point x="344" y="241" type="curve" smooth="yes"/>
      <point x="344" y="332"/>
      <point x="294" y="393"/>
      <point x="219" y="393" type="curve" smooth="yes"/>
      <point x="144" y="393"/>
      <point x="94" y="332"/>
      <point x="94" y="241" type="curve" smooth="yes"/>
      <point x="94" y="150"/>
      <point x="144" y="90"/>
    </contour>
    <contour>
      <point x="219" y="115" type="curve" smooth="yes"/>
      <point x="160" y="115"/>
      <point x="120" y="165"/>
      <point x="120" y="242" type="curve" smooth="yes"/>
      <point x="120" y="319"/>
      <point x="160" y="368"/>
      <point x="219" y="368" type="curve" smooth="yes"/>
      <point x="278" y="368"/>
      <point x="318" y="318"/>
      <point x="318" y="241" type="curve" smooth="yes"/>
      <point x="318" y="164"/>
      <point x="278" y="115"/>
    </contour>
  </outline>
</glyph>
<glyph name="ra_uuMatra-oriya.below" format="2">
  <note>
uuvowelsignaltorya
</note>
  <anchor x="463" y="0" name="_bottom_ra"/>
  <outline>
    <contour>
      <point x="463" y="-80" type="line"/>
      <point x="463" y="10" type="line"/>
      <point x="437" y="10" type="line"/>
      <point x="437" y="-55" type="line"/>
      <point x="123" y="-55" type="line"/>
      <point x="123" y="-80" type="line"/>
    </contour>
    <contour>
      <point x="409" y="-263" type="curve" smooth="yes"/>
      <point x="427" y="-263"/>
      <point x="446" y="-258"/>
      <point x="463" y="-249" type="curve"/>
      <point x="453" y="-259" type="line"/>
      <point x="439" y="-220" type="line"/>
      <point x="459" y="-220" type="line"/>
      <point x="442" y="-233"/>
      <point x="423" y="-238"/>
      <point x="408" y="-238" type="curve" smooth="yes"/>
      <point x="375" y="-238"/>
      <point x="355" y="-216"/>
      <point x="328" y="-184" type="curve"/>
      <point x="294" y="-225"/>
      <point x="265" y="-238"/>
      <point x="241" y="-238" type="curve" smooth="yes"/>
      <point x="211" y="-238"/>
      <point x="184" y="-219"/>
      <point x="184" y="-188" type="curve" smooth="yes"/>
      <point x="184" y="-159"/>
      <point x="205" y="-139"/>
      <point x="243" y="-139" type="curve" smooth="yes"/>
      <point x="301" y="-139" type="line"/>
      <point x="301" y="-80" type="line"/>
      <point x="301" y="-64" type="line"/>
      <point x="275" y="-64" type="line"/>
      <point x="275" y="-80" type="line"/>
      <point x="275" y="-129" type="line"/>
      <point x="285" y="-114" type="line"/>
      <point x="244" y="-114" type="line" smooth="yes"/>
      <point x="190" y="-114"/>
      <point x="158" y="-143"/>
      <point x="158" y="-188" type="curve" smooth="yes"/>
      <point x="158" y="-240"/>
      <point x="198" y="-263"/>
      <point x="241" y="-263" type="curve" smooth="yes"/>
      <point x="267" y="-263"/>
      <point x="303" y="-253"/>
      <point x="338" y="-209" type="curve"/>
      <point x="317" y="-211" type="line"/>
      <point x="341" y="-237"/>
      <point x="366" y="-263"/>
    </contour>
  </outline>
</glyph>
<glyph name="reph_aiLength-oriya" format="2">
  <advance width="600"/>
  <note>
ailengthmarkrephorya
</note>
  <anchor x="474" y="658" name="_topright"/>
  <outline>
    <contour>
      <point x="493" y="818" type="line"/>
      <point x="595" y="931" type="line"/>
      <point x="578" y="946" type="line"/>
      <point x="477" y="834" type="line"/>
    </contour>
    <contour>
      <point x="446" y="711" type="line"/>
      <point x="500" y="687" type="line"/>
      <point x="470" y="673" type="line"/>
      <point x="494" y="706"/>
      <point x="508" y="745"/>
      <point x="508" y="780" type="curve" smooth="yes"/>
      <point x="508" y="838"/>
      <point x="472" y="876"/>
      <point x="417" y="876" type="curve" smooth="yes"/>
      <point x="347" y="876"/>
      <point x="270" y="816"/>
      <point x="205" y="816" type="curve" smooth="yes"/>
      <point x="165" y="816"/>
      <point x="134" y="838"/>
      <point x="109" y="902" type="curve"/>
      <point x="148" y="889" type="line"/>
      <point x="81" y="849" type="line"/>
      <point x="93" y="883" type="line"/>
      <point x="120" y="813"/>
      <point x="161" y="791"/>
      <point x="204" y="791" type="curve" smooth="yes"/>
      <point x="274" y="791"/>
      <point x="350" y="851"/>
      <point x="413" y="851" type="curve" smooth="yes"/>
      <point x="460" y="851"/>
      <point x="482" y="816"/>
      <point x="482" y="776" type="curve" smooth="yes"/>
      <point x="482" y="747"/>
      <point x="469" y="713"/>
      <point x="450" y="685" type="curve"/>
    </contour>
  </outline>
</glyph>
<glyph name="reph_aiLength-oriya.stem" format="2">
  <note>
ailengthmarkrephorya
</note>
  <anchor x="427" y="658" name="_topright"/>
  <outline>
    <contour>
      <point x="486" y="818" type="line"/>
      <point x="588" y="931" type="line"/>
      <point x="571" y="946" type="line"/>
      <point x="470" y="834" type="line"/>
    </contour>
    <contour>
      <point x="414" y="658" type="curve"/>
      <point x="449" y="641" type="line"/>
      <point x="434" y="642" type="line"/>
      <point x="477" y="679"/>
      <point x="501" y="732"/>
      <point x="501" y="780" type="curve" smooth="yes"/>
      <point x="501" y="838"/>
      <point x="465" y="876"/>
      <point x="410" y="876" type="curve" smooth="yes"/>
      <point x="340" y="876"/>
      <point x="263" y="816"/>
      <point x="198" y="816" type="curve" smooth="yes"/>
      <point x="158" y="816"/>
      <point x="127" y="838"/>
      <point x="102" y="902" type="curve"/>
      <point x="141" y="889" type="line"/>
      <point x="74" y="849" type="line"/>
      <point x="86" y="883" type="line"/>
      <point x="113" y="813"/>
      <point x="154" y="791"/>
      <point x="197" y="791" type="curve" smooth="yes"/>
      <point x="267" y="791"/>
      <point x="343" y="851"/>
      <point x="406" y="851" type="curve" smooth="yes"/>
      <point x="453" y="851"/>
      <point x="475" y="816"/>
      <point x="475" y="776" type="curve" smooth="yes"/>
      <point x="475" y="735"/>
      <point x="453" y="687"/>
    </contour>
  </outline>
</glyph>
<glyph name="reph_aiLength-oriya.umbrella" format="2">
  <note>
ailengthmarkrephorya
</note>
  <anchor x="469" y="658" name="_topright"/>
  <outline>
    <contour>
      <point x="488" y="818" type="line"/>
      <point x="590" y="931" type="line"/>
      <point x="573" y="946" type="line"/>
      <point x="472" y="834" type="line"/>
    </contour>
    <contour>
      <point x="441" y="711" type="line"/>
      <point x="495" y="687" type="line"/>
      <point x="465" y="673" type="line"/>
      <point x="489" y="706"/>
      <point x="503" y="745"/>
      <point x="503" y="780" type="curve" smooth="yes"/>
      <point x="503" y="838"/>
      <point x="467" y="876"/>
      <point x="412" y="876" type="curve" smooth="yes"/>
      <point x="342" y="876"/>
      <point x="265" y="816"/>
      <point x="200" y="816" type="curve" smooth="yes"/>
      <point x="160" y="816"/>
      <point x="129" y="838"/>
      <point x="104" y="902" type="curve"/>
      <point x="143" y="889" type="line"/>
      <point x="76" y="849" type="line"/>
      <point x="88" y="883" type="line"/>
      <point x="115" y="813"/>
      <point x="156" y="791"/>
      <point x="199" y="791" type="curve" smooth="yes"/>
      <point x="269" y="791"/>
      <point x="345" y="851"/>
      <point x="408" y="851" type="curve" smooth="yes"/>
      <point x="455" y="851"/>
      <point x="477" y="816"/>
      <point x="477" y="776" type="curve" smooth="yes"/>
      <point x="477" y="747"/>
      <point x="464" y="713"/>
      <point x="445" y="685" type="curve"/>
    </contour>
  </outline>
</glyph>
<glyph name="sa_ra-oriya" format="2">
  <advance width="504"/>
  <anchor x="230" y="658" name="top"/>
  <anchor x="439" y="658" name="topright"/>
  <outline>
    <contour>
      <point x="140" y="229" type="curve"/>
      <point x="158" y="246" type="line"/>
      <point x="88" y="291"/>
      <point x="54" y="366"/>
      <point x="54" y="438" type="curve" smooth="yes"/>
      <point x="54" y="572"/>
      <point x="142" y="641"/>
      <point x="232" y="641" type="curve" smooth="yes"/>
      <point x="330" y="641"/>
      <point x="430" y="562"/>
      <point x="430" y="398" type="curve"/>
      <point x="452" y="398" type="line"/>
      <point x="452" y="579"/>
      <point x="339" y="666"/>
      <point x="230" y="666" type="curve" smooth="yes"/>
      <point x="127" y="666"/>
      <point x="28" y="589"/>
      <point x="28" y="440" type="curve" smooth="yes"/>
      <point x="28" y="360"/>
      <point x="64" y="280"/>
    </contour>
    <contour>
      <point x="434" y="-4" type="line"/>
      <point x="426" y="10" type="line"/>
      <point x="426" y="-115" type="line"/>
      <point x="64" y="-115" type="line"/>
      <point x="64" y="-140" type="line"/>
      <point x="452" y="-140" type="line"/>
      <point x="452" y="658" type="line"/>
      <point x="426" y="658" type="line"/>
      <point x="426" y="495" type="line"/>
      <point x="426" y="480" type="line"/>
      <point x="426" y="19" type="line"/>
      <point x="444" y="19" type="line"/>
      <point x="89" y="153" type="line"/>
      <point x="94" y="139" type="line"/>
      <point x="294" y="398" type="line"/>
      <point x="313" y="357" type="line"/>
      <point x="240" y="420" type="line"/>
      <point x="270" y="408" type="line"/>
      <point x="72" y="152" type="line"/>
      <point x="77" y="131" type="line"/>
    </contour>
  </outline>
</glyph>
<glyph name="sa_ta-oriya" format="2">
  <advance width="530"/>
  <note>
sataorya
</note>
  <guideline x="452" y="315" angle="90"/>
  <guideline x="512" y="315" angle="90"/>
  <anchor x="230" y="658" name="top"/>
  <anchor x="439" y="658" name="topright"/>
  <outline>
    <contour>
      <point x="140" y="229" type="curve"/>
      <point x="158" y="246" type="line"/>
      <point x="88" y="291"/>
      <point x="54" y="366"/>
      <point x="54" y="438" type="curve" smooth="yes"/>
      <point x="54" y="572"/>
      <point x="142" y="641"/>
      <point x="232" y="641" type="curve" smooth="yes"/>
      <point x="330" y="641"/>
      <point x="430" y="562"/>
      <point x="430" y="398" type="curve"/>
      <point x="452" y="398" type="line"/>
      <point x="452" y="579"/>
      <point x="339" y="666"/>
      <point x="230" y="666" type="curve" smooth="yes"/>
      <point x="127" y="666"/>
      <point x="28" y="589"/>
      <point x="28" y="440" type="curve" smooth="yes"/>
      <point x="28" y="360"/>
      <point x="64" y="280"/>
    </contour>
    <contour>
      <point x="374" y="19" type="line"/>
      <point x="381" y="43" type="line"/>
      <point x="89" y="153" type="line"/>
      <point x="94" y="139" type="line"/>
      <point x="294" y="398" type="line"/>
      <point x="313" y="357" type="line"/>
      <point x="240" y="420" type="line"/>
      <point x="270" y="408" type="line"/>
      <point x="72" y="152" type="line"/>
      <point x="77" y="131" type="line"/>
    </contour>
    <contour>
      <point x="426" y="116" type="line"/>
      <point x="452" y="116" type="line"/>
      <point x="452" y="658" type="line"/>
      <point x="426" y="658" type="line"/>
      <point x="426" y="495" type="line"/>
      <point x="426" y="480" type="line"/>
    </contour>
    <contour>
      <point x="301" y="-168" type="curve" smooth="yes"/>
      <point x="413" y="-168"/>
      <point x="512" y="-100"/>
      <point x="512" y="30" type="curve" smooth="yes"/>
      <point x="512" y="95"/>
      <point x="486" y="132"/>
      <point x="440" y="132" type="curve" smooth="yes"/>
      <point x="386" y="132"/>
      <point x="362" y="83"/>
      <point x="362" y="36" type="curve" smooth="yes"/>
      <point x="362" y="-13"/>
      <point x="387" y="-60"/>
      <point x="435" y="-60" type="curve" smooth="yes"/>
      <point x="469" y="-60"/>
      <point x="490" y="-37"/>
      <point x="501" y="3" type="curve"/>
      <point x="483" y="-10" type="line"/>
      <point x="469" y="-99"/>
      <point x="389" y="-143"/>
      <point x="301" y="-143" type="curve" smooth="yes"/>
      <point x="243" y="-143"/>
      <point x="182" y="-124"/>
      <point x="134" y="-87" type="curve"/>
      <point x="155" y="-86" type="line"/>
      <point x="124" y="-135" type="line"/>
      <point x="117" y="-104" type="line"/>
      <point x="170" y="-147"/>
      <point x="238" y="-168"/>
    </contour>
    <contour>
      <point x="486" y="37" type="curve" smooth="yes"/>
      <point x="486" y="-9"/>
      <point x="469" y="-35"/>
      <point x="438" y="-35" type="curve" smooth="yes"/>
      <point x="407" y="-35"/>
      <point x="388" y="-8"/>
      <point x="388" y="39" type="curve" smooth="yes"/>
      <point x="388" y="82"/>
      <point x="406" y="107"/>
      <point x="437" y="107" type="curve" smooth="yes"/>
      <point x="468" y="107"/>
      <point x="486" y="81"/>
    </contour>
  </outline>
</glyph>
<glyph name="sha-oriya.base" format="2">
  <advance width="501"/>
  <anchor x="436" y="110" name="bottom"/>
  <anchor x="239" y="658" name="top"/>
  <anchor x="436" y="658" name="topright"/>
  <outline>
    <contour>
      <point x="425" y="434" type="curve"/>
      <point x="449" y="436" type="line"/>
      <point x="449" y="594"/>
      <point x="353" y="666"/>
      <point x="257" y="666" type="curve" smooth="yes"/>
      <point x="188" y="666"/>
      <point x="123" y="622"/>
      <point x="123" y="540" type="curve" smooth="yes"/>
      <point x="123" y="530"/>
      <point x="124" y="516"/>
      <point x="127" y="502" type="curve"/>
      <point x="151" y="508" type="line"/>
      <point x="149" y="519"/>
      <point x="148" y="532"/>
      <point x="148" y="540" type="curve" smooth="yes"/>
      <point x="148" y="608"/>
      <point x="199" y="641"/>
      <point x="257" y="641" type="curve" smooth="yes"/>
      <point x="339" y="641"/>
      <point x="425" y="584"/>
    </contour>
    <contour>
      <point x="222" y="90" type="curve" smooth="yes"/>
      <point x="299" y="90"/>
      <point x="348" y="151"/>
      <point x="348" y="230" type="curve" smooth="yes"/>
      <point x="348" y="308"/>
      <point x="299" y="369"/>
      <point x="222" y="369" type="curve" smooth="yes"/>
      <point x="146" y="369"/>
      <point x="96" y="308"/>
      <point x="96" y="230" type="curve" smooth="yes"/>
      <point x="96" y="151"/>
      <point x="146" y="90"/>
    </contour>
    <contour>
      <point x="222" y="115" type="curve" smooth="yes"/>
      <point x="161" y="115"/>
      <point x="122" y="165"/>
      <point x="122" y="231" type="curve" smooth="yes"/>
      <point x="122" y="296"/>
      <point x="161" y="344"/>
      <point x="222" y="344" type="curve" smooth="yes"/>
      <point x="283" y="344"/>
      <point x="322" y="296"/>
      <point x="322" y="230" type="curve" smooth="yes"/>
      <point x="322" y="164"/>
      <point x="283" y="115"/>
    </contour>
    <contour>
      <point x="104" y="255" type="curve"/>
      <point x="110" y="279" type="line"/>
      <point x="72" y="304"/>
      <point x="54" y="342"/>
      <point x="54" y="384" type="curve" smooth="yes"/>
      <point x="54" y="450"/>
      <point x="103" y="499"/>
      <point x="183" y="499" type="curve" smooth="yes"/>
      <point x="214" y="499"/>
      <point x="249" y="490"/>
      <point x="283" y="471" type="curve"/>
      <point x="266" y="468" type="line"/>
      <point x="286" y="512" type="line"/>
      <point x="289" y="495" type="line"/>
      <point x="253" y="515"/>
      <point x="214" y="524"/>
      <point x="182" y="524" type="curve" smooth="yes"/>
      <point x="84" y="524"/>
      <point x="28" y="462"/>
      <point x="28" y="384" type="curve" smooth="yes"/>
      <point x="28" y="336"/>
      <point x="52" y="286"/>
    </contour>
    <contour>
      <point x="423" y="96" type="line"/>
      <point x="449" y="96" type="line"/>
      <point x="449" y="658" type="line"/>
      <point x="423" y="658" type="line"/>
      <point x="423" y="519" type="line"/>
      <point x="423" y="507" type="line"/>
    </contour>
  </outline>
</glyph>
<glyph name="sha_cha-oriya" format="2">
  <advance width="527"/>
  <note>
shachaorya
</note>
  <guideline x="449" y="315" angle="90"/>
  <guideline x="509" y="315" angle="90"/>
  <anchor x="239" y="658" name="top"/>
  <anchor x="436" y="658" name="topright"/>
  <outline>
    <contour>
      <point x="425" y="434" type="curve"/>
      <point x="449" y="436" type="line"/>
      <point x="449" y="594"/>
      <point x="353" y="666"/>
      <point x="257" y="666" type="curve" smooth="yes"/>
      <point x="188" y="666"/>
      <point x="123" y="622"/>
      <point x="123" y="540" type="curve" smooth="yes"/>
      <point x="123" y="530"/>
      <point x="124" y="516"/>
      <point x="127" y="502" type="curve"/>
      <point x="151" y="508" type="line"/>
      <point x="149" y="519"/>
      <point x="148" y="532"/>
      <point x="148" y="540" type="curve" smooth="yes"/>
      <point x="148" y="608"/>
      <point x="199" y="641"/>
      <point x="257" y="641" type="curve" smooth="yes"/>
      <point x="339" y="641"/>
      <point x="425" y="584"/>
    </contour>
    <contour>
      <point x="222" y="90" type="curve" smooth="yes"/>
      <point x="299" y="90"/>
      <point x="348" y="151"/>
      <point x="348" y="230" type="curve" smooth="yes"/>
      <point x="348" y="308"/>
      <point x="299" y="369"/>
      <point x="222" y="369" type="curve" smooth="yes"/>
      <point x="146" y="369"/>
      <point x="96" y="308"/>
      <point x="96" y="230" type="curve" smooth="yes"/>
      <point x="96" y="151"/>
      <point x="146" y="90"/>
    </contour>
    <contour>
      <point x="222" y="115" type="curve" smooth="yes"/>
      <point x="161" y="115"/>
      <point x="122" y="165"/>
      <point x="122" y="231" type="curve" smooth="yes"/>
      <point x="122" y="296"/>
      <point x="161" y="344"/>
      <point x="222" y="344" type="curve" smooth="yes"/>
      <point x="283" y="344"/>
      <point x="322" y="296"/>
      <point x="322" y="230" type="curve" smooth="yes"/>
      <point x="322" y="164"/>
      <point x="283" y="115"/>
    </contour>
    <contour>
      <point x="104" y="255" type="curve"/>
      <point x="110" y="279" type="line"/>
      <point x="72" y="304"/>
      <point x="54" y="342"/>
      <point x="54" y="384" type="curve" smooth="yes"/>
      <point x="54" y="450"/>
      <point x="103" y="499"/>
      <point x="183" y="499" type="curve" smooth="yes"/>
      <point x="214" y="499"/>
      <point x="249" y="490"/>
      <point x="283" y="471" type="curve"/>
      <point x="266" y="468" type="line"/>
      <point x="286" y="512" type="line"/>
      <point x="289" y="495" type="line"/>
      <point x="253" y="515"/>
      <point x="214" y="524"/>
      <point x="182" y="524" type="curve" smooth="yes"/>
      <point x="84" y="524"/>
      <point x="28" y="462"/>
      <point x="28" y="384" type="curve" smooth="yes"/>
      <point x="28" y="336"/>
      <point x="52" y="286"/>
    </contour>
    <contour>
      <point x="423" y="42" type="line"/>
      <point x="449" y="42" type="line"/>
      <point x="449" y="658" type="line"/>
      <point x="423" y="658" type="line"/>
      <point x="423" y="519" type="line"/>
      <point x="423" y="507" type="line"/>
    </contour>
    <contour>
      <point x="418" y="-168" type="curve" smooth="yes"/>
      <point x="474" y="-168"/>
      <point x="509" y="-122"/>
      <point x="509" y="-55" type="curve" smooth="yes"/>
      <point x="509" y="14"/>
      <point x="473" y="57"/>
      <point x="422" y="57" type="curve" smooth="yes"/>
      <point x="325" y="57"/>
      <point x="287" y="-144"/>
      <point x="208" y="-144" type="curve" smooth="yes"/>
      <point x="174" y="-144"/>
      <point x="146" y="-106"/>
      <point x="146" y="-54" type="curve" smooth="yes"/>
      <point x="146" y="-1"/>
      <point x="175" y="33"/>
      <point x="207" y="33" type="curve" smooth="yes"/>
      <point x="285" y="33"/>
      <point x="319" y="-168"/>
    </contour>
    <contour>
      <point x="210" y="-168" type="curve" smooth="yes"/>
      <point x="309" y="-168"/>
      <point x="347" y="33"/>
      <point x="422" y="33" type="curve" smooth="yes"/>
      <point x="455" y="33"/>
      <point x="484" y="-1"/>
      <point x="484" y="-54" type="curve" smooth="yes"/>
      <point x="484" y="-106"/>
      <point x="456" y="-144"/>
      <point x="422" y="-144" type="curve" smooth="yes"/>
      <point x="342" y="-144"/>
      <point x="305" y="57"/>
      <point x="208" y="57" type="curve" smooth="yes"/>
      <point x="157" y="57"/>
      <point x="121" y="14"/>
      <point x="121" y="-55" type="curve" smooth="yes"/>
      <point x="121" y="-124"/>
      <point x="157" y="-168"/>
    </contour>
  </outline>
</glyph>
<glyph name="ssa_ka-oriya" format="2">
  <advance width="574"/>
  <note>
ssakaorya
</note>
  <guideline x="482" y="177" angle="90"/>
  <guideline x="542" y="173" angle="90"/>
  <anchor x="253" y="658" name="top"/>
  <anchor x="469" y="658" name="topright"/>
  <outline>
    <contour>
      <point x="137" y="193" type="curve"/>
      <point x="142" y="222" type="line"/>
      <point x="82" y="270"/>
      <point x="54" y="340"/>
      <point x="54" y="417" type="curve" smooth="yes"/>
      <point x="54" y="561"/>
      <point x="151" y="641"/>
      <point x="254" y="641" type="curve" smooth="yes"/>
      <point x="354" y="641"/>
      <point x="460" y="567"/>
      <point x="460" y="398" type="curve"/>
      <point x="482" y="398" type="line"/>
      <point x="482" y="583"/>
      <point x="366" y="666"/>
      <point x="253" y="666" type="curve" smooth="yes"/>
      <point x="141" y="666"/>
      <point x="28" y="577"/>
      <point x="28" y="418" type="curve" smooth="yes"/>
      <point x="28" y="330"/>
      <point x="63" y="247"/>
    </contour>
    <contour>
      <point x="285" y="-8" type="curve"/>
      <point x="286" y="17" type="line"/>
      <point x="285" y="17"/>
      <point x="284" y="17"/>
      <point x="283" y="17" type="curve" smooth="yes"/>
      <point x="213" y="17"/>
      <point x="149" y="84"/>
      <point x="149" y="180" type="curve" smooth="yes"/>
      <point x="149" y="268"/>
      <point x="201" y="337"/>
      <point x="272" y="362" type="curve"/>
      <point x="278" y="318" type="line"/>
      <point x="241" y="411" type="line"/>
      <point x="260" y="384" type="line"/>
      <point x="177" y="353"/>
      <point x="123" y="276"/>
      <point x="123" y="182" type="curve" smooth="yes"/>
      <point x="123" y="72"/>
      <point x="196" y="-6"/>
      <point x="280" y="-8" type="curve" smooth="yes"/>
      <point x="282" y="-8"/>
      <point x="280" y="-8"/>
    </contour>
    <contour>
      <point x="456" y="102" type="line"/>
      <point x="482" y="102" type="line"/>
      <point x="482" y="658" type="line"/>
      <point x="456" y="658" type="line"/>
      <point x="456" y="495" type="line"/>
      <point x="456" y="480" type="line"/>
    </contour>
    <contour>
      <point x="425" y="74" type="line"/>
      <point x="442" y="93" type="line"/>
      <point x="134" y="615" type="line"/>
      <point x="119" y="592" type="line"/>
    </contour>
    <contour>
      <point x="342" y="-96" type="curve" smooth="yes"/>
      <point x="389" y="-96"/>
      <point x="420" y="-52"/>
      <point x="420" y="10" type="curve" smooth="yes"/>
      <point x="420" y="75"/>
      <point x="389" y="116"/>
      <point x="342" y="116" type="curve" smooth="yes"/>
      <point x="295" y="116"/>
      <point x="264" y="75"/>
      <point x="264" y="9" type="curve" smooth="yes"/>
      <point x="264" y="-53"/>
      <point x="295" y="-96"/>
    </contour>
    <contour>
      <point x="342" y="-73" type="curve" smooth="yes"/>
      <point x="311" y="-73"/>
      <point x="289" y="-41"/>
      <point x="289" y="9" type="curve" smooth="yes"/>
      <point x="289" y="60"/>
      <point x="311" y="93"/>
      <point x="342" y="93" type="curve" smooth="yes"/>
      <point x="373" y="93"/>
      <point x="395" y="60"/>
      <point x="395" y="9" type="curve" smooth="yes"/>
      <point x="395" y="-41"/>
      <point x="373" y="-73"/>
    </contour>
    <contour>
      <point x="395" y="-164" type="line"/>
      <point x="421" y="-164" type="line"/>
      <point x="421" y="27" type="line" smooth="yes"/>
      <point x="421" y="69"/>
      <point x="439" y="93"/>
      <point x="469" y="93" type="curve" smooth="yes"/>
      <point x="500" y="93"/>
      <point x="516" y="69"/>
      <point x="516" y="27" type="curve" smooth="yes"/>
      <point x="516" y="-164" type="line"/>
      <point x="542" y="-164" type="line"/>
      <point x="542" y="27" type="line" smooth="yes"/>
      <point x="542" y="84"/>
      <point x="514" y="116"/>
      <point x="469" y="116" type="curve" smooth="yes"/>
      <point x="425" y="116"/>
      <point x="397" y="84"/>
      <point x="397" y="27" type="curve"/>
      <point x="395" y="-14" type="line"/>
    </contour>
  </outline>
</glyph>
<glyph name="ssa_tta_halant-oriya" format="2">
  <advance width="568"/>
  <guideline x="449" y="400" angle="90"/>
  <guideline x="536" y="400" angle="90"/>
  <anchor x="239" y="658" name="top"/>
  <anchor x="436" y="658" name="topright"/>
  <outline>
    <contour>
      <point x="134" y="260" type="curve"/>
      <point x="139" y="286" type="line"/>
      <point x="82" y="327"/>
      <point x="54" y="387"/>
      <point x="54" y="455" type="curve" smooth="yes"/>
      <point x="54" y="572"/>
      <point x="136" y="641"/>
      <point x="235" y="641" type="curve" smooth="yes"/>
      <point x="325" y="641"/>
      <point x="425" y="584"/>
      <point x="425" y="434" type="curve"/>
      <point x="449" y="436" type="line"/>
      <point x="449" y="598"/>
      <point x="337" y="666"/>
      <point x="232" y="666" type="curve" smooth="yes"/>
      <point x="115" y="666"/>
      <point x="28" y="581"/>
      <point x="28" y="456" type="curve" smooth="yes"/>
      <point x="28" y="378"/>
      <point x="62" y="306"/>
    </contour>
    <contour>
      <point x="514" y="-292" type="line"/>
      <point x="536" y="-279" type="line"/>
      <point x="457" y="-141" type="line"/>
      <point x="434" y="-154" type="line"/>
    </contour>
    <contour>
      <point x="411" y="-148" type="curve" smooth="yes"/>
      <point x="458" y="-148"/>
      <point x="490" y="-110"/>
      <point x="490" y="-52" type="curve" smooth="yes"/>
      <point x="490" y="6"/>
      <point x="458" y="44"/>
      <point x="411" y="44" type="curve" smooth="yes"/>
      <point x="363" y="44"/>
      <point x="332" y="6"/>
      <point x="332" y="-52" type="curve" smooth="yes"/>
      <point x="332" y="-109"/>
      <point x="362" y="-148"/>
    </contour>
    <contour>
      <point x="411" y="-125" type="curve" smooth="yes"/>
      <point x="378" y="-125"/>
      <point x="357" y="-95"/>
      <point x="357" y="-51" type="curve" smooth="yes"/>
      <point x="357" y="-8"/>
      <point x="378" y="21"/>
      <point x="411" y="21" type="curve" smooth="yes"/>
      <point x="444" y="21"/>
      <point x="465" y="-9"/>
      <point x="465" y="-52" type="curve" smooth="yes"/>
      <point x="465" y="-95"/>
      <point x="444" y="-125"/>
    </contour>
    <contour>
      <point x="275" y="90" type="curve" smooth="yes"/>
      <point x="288" y="90"/>
      <point x="300" y="91"/>
      <point x="311" y="94" type="curve"/>
      <point x="317" y="121" type="line"/>
      <point x="304" y="117"/>
      <point x="291" y="115"/>
      <point x="278" y="115" type="curve" smooth="yes"/>
      <point x="201" y="114"/>
      <point x="146" y="169"/>
      <point x="146" y="244" type="curve" smooth="yes"/>
      <point x="146" y="320"/>
      <point x="196" y="381"/>
      <point x="265" y="403" type="curve"/>
      <point x="271" y="368" type="line"/>
      <point x="235" y="448" type="line"/>
      <point x="253" y="424" type="line"/>
      <point x="173" y="397"/>
      <point x="120" y="329"/>
      <point x="120" y="243" type="curve" smooth="yes"/>
      <point x="120" y="155"/>
      <point x="184" y="90"/>
    </contour>
    <contour>
      <point x="336" y="-28" type="curve"/>
      <point x="348" y="-7" type="line"/>
      <point x="327" y="17"/>
      <point x="316" y="48"/>
      <point x="316" y="79" type="curve" smooth="yes"/>
      <point x="316" y="147"/>
      <point x="354" y="193"/>
      <point x="411" y="193" type="curve" smooth="yes"/>
      <point x="473" y="193"/>
      <point x="514" y="140"/>
      <point x="514" y="61" type="curve"/>
      <point x="535" y="71" type="line"/>
      <point x="535" y="158"/>
      <point x="485" y="216"/>
      <point x="410" y="216" type="curve" smooth="yes"/>
      <point x="339" y="216"/>
      <point x="291" y="162"/>
      <point x="291" y="82" type="curve" smooth="yes"/>
      <point x="291" y="40"/>
      <point x="305" y="1"/>
    </contour>
    <contour>
      <point x="386" y="199" type="line"/>
      <point x="416" y="199" type="line"/>
      <point x="133" y="621" type="line"/>
      <point x="116" y="602" type="line"/>
    </contour>
    <contour>
      <point x="510" y="34" type="line"/>
      <point x="536" y="34" type="line"/>
      <point x="536" y="212" type="line"/>
      <point x="510" y="212" type="line"/>
      <point x="510" y="144" type="line"/>
      <point x="510" y="136" type="line"/>
    </contour>
    <contour>
      <point x="423" y="198" type="line"/>
      <point x="449" y="198" type="line"/>
      <point x="449" y="658" type="line"/>
      <point x="423" y="658" type="line"/>
      <point x="423" y="519" type="line"/>
      <point x="423" y="507" type="line"/>
    </contour>
  </outline>
</glyph>
<glyph name="ta-oriya.base" format="2">
  <advance width="485"/>
  <anchor x="341" y="110" name="bottom"/>
  <anchor x="241" y="658" name="top"/>
  <anchor x="412" y="658" name="topright"/>
  <outline>
    <contour>
      <point x="121" y="273" type="curve"/>
      <point x="129" y="295" type="line"/>
      <point x="80" y="334"/>
      <point x="54" y="389"/>
      <point x="54" y="454" type="curve" smooth="yes"/>
      <point x="54" y="567"/>
      <point x="129" y="641"/>
      <point x="241" y="641" type="curve" smooth="yes"/>
      <point x="355" y="641"/>
      <point x="431" y="565"/>
      <point x="431" y="447" type="curve" smooth="yes"/>
      <point x="431" y="392"/>
      <point x="417" y="342"/>
      <point x="385" y="302" type="curve"/>
      <point x="380" y="315" type="line"/>
      <point x="420" y="287" type="line"/>
      <point x="406" y="288" type="line"/>
      <point x="438" y="329"/>
      <point x="457" y="385"/>
      <point x="457" y="447" type="curve" smooth="yes"/>
      <point x="457" y="578"/>
      <point x="371" y="666"/>
      <point x="241" y="666" type="curve" smooth="yes"/>
      <point x="113" y="666"/>
      <point x="28" y="581"/>
      <point x="28" y="454" type="curve" smooth="yes"/>
      <point x="28" y="379"/>
      <point x="61" y="311"/>
    </contour>
    <contour>
      <point x="227" y="90" type="curve" smooth="yes"/>
      <point x="303" y="90"/>
      <point x="354" y="148"/>
      <point x="354" y="235" type="curve" smooth="yes"/>
      <point x="354" y="306"/>
      <point x="314" y="365"/>
      <point x="268" y="365" type="curve" smooth="yes"/>
      <point x="239" y="365"/>
      <point x="226" y="343"/>
      <point x="226" y="322" type="curve" smooth="yes"/>
      <point x="226" y="296"/>
      <point x="244" y="281"/>
      <point x="262" y="281" type="curve" smooth="yes"/>
      <point x="279" y="281"/>
      <point x="295" y="294"/>
      <point x="295" y="318" type="curve" smooth="yes"/>
      <point x="295" y="336"/>
      <point x="284" y="354"/>
      <point x="262" y="354" type="curve"/>
      <point x="269" y="341" type="line"/>
      <point x="315" y="341"/>
      <point x="328" y="275"/>
      <point x="328" y="233" type="curve" smooth="yes"/>
      <point x="328" y="161"/>
      <point x="288" y="115"/>
      <point x="227" y="115" type="curve" smooth="yes"/>
      <point x="165" y="115"/>
      <point x="126" y="163"/>
      <point x="126" y="238" type="curve" smooth="yes"/>
      <point x="126" y="289"/>
      <point x="153" y="349"/>
      <point x="201" y="397" type="curve"/>
      <point x="184" y="414" type="line"/>
      <point x="130" y="361"/>
      <point x="100" y="293"/>
      <point x="100" y="239" type="curve" smooth="yes"/>
      <point x="100" y="150"/>
      <point x="150" y="90"/>
    </contour>
  </outline>
</glyph>
<glyph name="ta_alt-oriya.below" format="2">
  <advance width="190"/>
  <anchor x="138" y="10" name="_bottom_ta"/>
  <anchor x="138" y="-153" name="bottom_ra"/>
  <outline>
    <contour>
      <point x="205" y="-197" type="line"/>
      <point x="214" y="-178" type="line"/>
      <point x="38" y="-86" type="line"/>
      <point x="44" y="-103" type="line"/>
      <point x="138" y="0" type="line"/>
      <point x="124" y="17" type="line"/>
      <point x="29" y="-89" type="line"/>
      <point x="35" y="-109" type="line"/>
    </contour>
  </outline>
</glyph>
<glyph name="ta_pa_ra-oriya" format="2">
  <advance width="501"/>
  <note>
tapaorya
</note>
  <guideline x="449" y="-23" angle="90"/>
  <guideline x="977" y="-100" angle="0"/>
  <anchor x="239" y="658" name="top"/>
  <anchor x="436" y="658" name="topright"/>
  <outline>
    <contour>
      <point x="134" y="260" type="curve"/>
      <point x="139" y="286" type="line"/>
      <point x="82" y="327"/>
      <point x="54" y="387"/>
      <point x="54" y="455" type="curve" smooth="yes"/>
      <point x="54" y="572"/>
      <point x="136" y="641"/>
      <point x="235" y="641" type="curve" smooth="yes"/>
      <point x="325" y="641"/>
      <point x="425" y="584"/>
      <point x="425" y="434" type="curve"/>
      <point x="449" y="436" type="line"/>
      <point x="449" y="598"/>
      <point x="337" y="666"/>
      <point x="232" y="666" type="curve" smooth="yes"/>
      <point x="115" y="666"/>
      <point x="28" y="581"/>
      <point x="28" y="456" type="curve" smooth="yes"/>
      <point x="28" y="378"/>
      <point x="62" y="306"/>
    </contour>
    <contour>
      <point x="275" y="92" type="curve" smooth="yes"/>
      <point x="352" y="92"/>
      <point x="411" y="139"/>
      <point x="445" y="219" type="curve"/>
      <point x="425" y="231" type="line"/>
      <point x="394" y="160"/>
      <point x="343" y="118"/>
      <point x="278" y="117" type="curve" smooth="yes"/>
      <point x="201" y="116"/>
      <point x="146" y="170"/>
      <point x="146" y="244" type="curve" smooth="yes"/>
      <point x="146" y="320"/>
      <point x="196" y="381"/>
      <point x="265" y="403" type="curve"/>
      <point x="271" y="368" type="line"/>
      <point x="235" y="448" type="line"/>
      <point x="253" y="424" type="line"/>
      <point x="173" y="397"/>
      <point x="120" y="329"/>
      <point x="120" y="243" type="curve" smooth="yes"/>
      <point x="120" y="156"/>
      <point x="184" y="92"/>
    </contour>
    <contour>
      <point x="423" y="96" type="line"/>
      <point x="449" y="96" type="line"/>
      <point x="449" y="658" type="line"/>
      <point x="423" y="658" type="line"/>
      <point x="423" y="519" type="line"/>
      <point x="423" y="507" type="line"/>
      <point x="423" y="200" type="line"/>
      <point x="423" y="186" type="line"/>
    </contour>
    <contour>
      <point x="516" y="-101" type="line"/>
      <point x="525" y="-82" type="line"/>
      <point x="349" y="10" type="line"/>
      <point x="355" y="-7" type="line"/>
      <point x="449" y="96" type="line"/>
      <point x="435" y="113" type="line"/>
      <point x="340" y="7" type="line"/>
      <point x="346" y="-13" type="line"/>
    </contour>
    <contour>
      <point x="449" y="-188" type="line"/>
      <point x="449" y="-48" type="line"/>
      <point x="423" y="-48" type="line"/>
      <point x="423" y="-163" type="line"/>
      <point x="169" y="-163" type="line"/>
      <point x="169" y="-188" type="line"/>
    </contour>
  </outline>
</glyph>
<glyph name="ta_ra-oriya" format="2">
  <advance width="522"/>
  <anchor x="259" y="658" name="top"/>
  <anchor x="449" y="658" name="topright"/>
  <outline>
    <contour>
      <point x="28" y="418" type="curve" smooth="yes"/>
      <point x="28" y="328"/>
      <point x="62" y="250"/>
      <point x="124" y="206" type="curve"/>
      <point x="132" y="231" type="line"/>
      <point x="81" y="275"/>
      <point x="54" y="340"/>
      <point x="54" y="417" type="curve" smooth="yes"/>
      <point x="54" y="565"/>
      <point x="155" y="641"/>
      <point x="260" y="641" type="curve" smooth="yes"/>
      <point x="365" y="641"/>
      <point x="468" y="564"/>
      <point x="468" y="410" type="curve" smooth="yes"/>
      <point x="468" y="348"/>
      <point x="452" y="288"/>
      <point x="418" y="242" type="curve"/>
      <point x="413" y="255" type="line"/>
      <point x="451" y="226" type="line"/>
      <point x="438" y="227" type="line"/>
      <point x="473" y="273"/>
      <point x="494" y="338"/>
      <point x="494" y="410" type="curve" smooth="yes"/>
      <point x="494" y="580"/>
      <point x="377" y="666"/>
      <point x="259" y="666" type="curve" smooth="yes"/>
      <point x="143" y="666"/>
      <point x="28" y="582"/>
    </contour>
    <contour>
      <point x="105" y="161" type="curve" smooth="yes"/>
      <point x="105" y="64"/>
      <point x="163" y="-8"/>
      <point x="242" y="-8" type="curve" smooth="yes"/>
      <point x="313" y="-8"/>
      <point x="382" y="49"/>
      <point x="382" y="161" type="curve" smooth="yes"/>
      <point x="382" y="246"/>
      <point x="343" y="311"/>
      <point x="293" y="311" type="curve" smooth="yes"/>
      <point x="265" y="311"/>
      <point x="251" y="287"/>
      <point x="251" y="263" type="curve" smooth="yes"/>
      <point x="251" y="239"/>
      <point x="264" y="216"/>
      <point x="288" y="216" type="curve" smooth="yes"/>
      <point x="312" y="216"/>
      <point x="323" y="237"/>
      <point x="323" y="258" type="curve" smooth="yes"/>
      <point x="323" y="279"/>
      <point x="312" y="300"/>
      <point x="288" y="301" type="curve"/>
      <point x="295" y="285" type="line"/>
      <point x="342" y="285"/>
      <point x="356" y="204"/>
      <point x="356" y="159" type="curve" smooth="yes"/>
      <point x="356" y="65"/>
      <point x="300" y="17"/>
      <point x="244" y="17" type="curve" smooth="yes"/>
      <point x="179" y="17"/>
      <point x="131" y="78"/>
      <point x="131" y="163" type="curve" smooth="yes"/>
      <point x="131" y="235"/>
      <point x="165" y="301"/>
      <point x="215" y="357" type="curve"/>
      <point x="197" y="373" type="line"/>
      <point x="141" y="312"/>
      <point x="105" y="237"/>
    </contour>
    <contour>
      <point x="440" y="-140" type="line"/>
      <point x="440" y="10" type="line"/>
      <point x="414" y="10" type="line"/>
      <point x="414" y="-115" type="line"/>
      <point x="72" y="-115" type="line"/>
      <point x="72" y="-140" type="line"/>
    </contour>
  </outline>
</glyph>
<glyph name="ta_ta-oriya" format="2">
  <advance width="596"/>
  <note>
tataorya
</note>
  <anchor x="275" y="0" name="bottom"/>
  <anchor x="477" y="0" name="bottom_ra"/>
  <anchor x="291" y="658" name="top"/>
  <anchor x="508" y="658" name="topright"/>
  <outline>
    <contour>
      <point x="573" y="-39" type="line"/>
      <point x="524" y="-27" type="line"/>
      <point x="593" y="14" type="line"/>
      <point x="586" y="-13" type="line"/>
      <point x="490" y="156" type="line"/>
      <point x="482" y="136" type="line"/>
      <point x="537" y="208"/>
      <point x="563" y="294"/>
      <point x="563" y="375" type="curve" smooth="yes"/>
      <point x="563" y="529"/>
      <point x="461" y="666"/>
      <point x="291" y="666" type="curve" smooth="yes"/>
      <point x="152" y="666"/>
      <point x="28" y="574"/>
      <point x="28" y="408" type="curve" smooth="yes"/>
      <point x="28" y="336"/>
      <point x="51" y="266"/>
      <point x="108" y="203" type="curve"/>
      <point x="119" y="230" type="line"/>
      <point x="73" y="284"/>
      <point x="54" y="344"/>
      <point x="54" y="405" type="curve" smooth="yes"/>
      <point x="54" y="557"/>
      <point x="164" y="641"/>
      <point x="290" y="641" type="curve" smooth="yes"/>
      <point x="443" y="641"/>
      <point x="537" y="517"/>
      <point x="537" y="375" type="curve" smooth="yes"/>
      <point x="537" y="300"/>
      <point x="513" y="220"/>
      <point x="464" y="151" type="curve"/>
    </contour>
    <contour>
      <point x="288" y="-8" type="curve" smooth="yes"/>
      <point x="373" y="-8"/>
      <point x="424" y="48"/>
      <point x="424" y="120" type="curve" smooth="yes"/>
      <point x="424" y="174"/>
      <point x="391" y="226"/>
      <point x="316" y="226" type="curve"/>
      <point x="287" y="200" type="line"/>
      <point x="295" y="204" type="line" smooth="yes"/>
      <point x="331" y="222"/>
      <point x="418" y="247"/>
      <point x="418" y="339" type="curve" smooth="yes"/>
      <point x="418" y="405"/>
      <point x="374" y="438"/>
      <point x="323" y="438" type="curve" smooth="yes"/>
      <point x="271" y="438"/>
      <point x="232" y="405"/>
      <point x="232" y="338" type="curve" smooth="yes"/>
      <point x="232" y="318"/>
      <point x="235" y="303"/>
      <point x="242" y="280" type="curve"/>
      <point x="265" y="287" type="line"/>
      <point x="261" y="305"/>
      <point x="258" y="317"/>
      <point x="258" y="335" type="curve" smooth="yes"/>
      <point x="258" y="387"/>
      <point x="287" y="413"/>
      <point x="326" y="413" type="curve" smooth="yes"/>
      <point x="362" y="413"/>
      <point x="392" y="389"/>
      <point x="392" y="339" type="curve" smooth="yes"/>
      <point x="392" y="257"/>
      <point x="311" y="232"/>
      <point x="281" y="223" type="curve" smooth="yes"/>
      <point x="255" y="215" type="line"/>
      <point x="262" y="192" type="line"/>
      <point x="279" y="198"/>
      <point x="301" y="202"/>
      <point x="320" y="202" type="curve" smooth="yes"/>
      <point x="375" y="202"/>
      <point x="398" y="162"/>
      <point x="398" y="120" type="curve" smooth="yes"/>
      <point x="398" y="61"/>
      <point x="355" y="17"/>
      <point x="288" y="17" type="curve" smooth="yes"/>
      <point x="194" y="17"/>
      <point x="124" y="104"/>
      <point x="124" y="224" type="curve" smooth="yes"/>
      <point x="124" y="321"/>
      <point x="170" y="417"/>
      <point x="228" y="467" type="curve"/>
      <point x="236" y="430" type="line"/>
      <point x="169" y="509" type="line"/>
      <point x="213" y="488" type="line"/>
      <point x="150" y="432"/>
      <point x="98" y="339"/>
      <point x="98" y="225" type="curve" smooth="yes"/>
      <point x="98" y="81"/>
      <point x="180" y="-8"/>
    </contour>
  </outline>
</glyph>
